<?xml version="1.0" encoding="utf-8"?>
<!-- Generator: Adobe Illustrator 24.2.1, SVG Export Plug-In . SVG Version: 6.00 Build 0)  -->
<svg version="1.1" id="레이어_1" xmlns="http://www.w3.org/2000/svg" xmlns:xlink="http://www.w3.org/1999/xlink" x="0px"
	 y="0px" width="70px" height="70px" viewBox="0 0 70 70" style="enable-background:new 0 0 70 70;" xml:space="preserve">
<style type="text/css">
	.st0{fill:#231815;}
</style>
<path class="st0" d="M51.2,33.6c1.8,0,3.3,1.5,3.3,3.3c0,1.8-1.5,3.3-3.3,3.3c-1.8,0-3.3-1.5-3.3-3.3C47.9,35.1,49.4,33.6,51.2,33.6
	L51.2,33.6 M30.6,31h-2.9v11.7h2.9V31L30.6,31 M30.6,29.9v-2.9h-2.9v2.9H30.6L30.6,29.9 M69,38.9c0-1.6-1.2-2.7-3-3.2
	c-1.9-0.5-4.3-0.4-4.3-1.6c0.1-0.8,0.8-1,2-1c1.7,0,1.8,1,1.9,1.6h2.9c-0.2-2.3-2-3.8-5-3.8c-3,0-4.8,1.7-4.8,3.7
	c0,1.2,0.7,2.3,1.6,2.8c0.8,0.4,1.8,0.6,3,0.8c1.2,0.2,2.4,0.3,2.5,1.2c0,0.6-0.6,1.3-1.9,1.3c-2,0-2.4-1.1-2.4-1.8h-3
	c0.1,2.3,2,4,5.3,4C66.7,42.9,69,41.8,69,38.9L69,38.9 M54.5,41.9v0.8h2.9V31h-2.9v0.9c-1-0.7-2.2-1-3.4-1c-3.3,0-6,2.7-6,6
	c0,3.3,2.7,6,6,6C52.4,42.9,53.6,42.6,54.5,41.9L54.5,41.9 M41.3,31.9c-1-0.7-2.2-1-3.5-1c-3.3,0-6,2.7-6,6c0,3.3,2.7,6,6,6
	c1.3,0,2.5-0.4,3.5-1v0.8h2.9V27.1h-2.9V31.9L41.3,31.9 M37.9,33.6c1.8,0,3.4,1.5,3.4,3.3c0,1.8-1.5,3.3-3.4,3.3
	c-1.8,0-3.3-1.5-3.3-3.3C34.6,35.1,36.1,33.6,37.9,33.6L37.9,33.6 M23.4,41.9v0.8h2.9V27.1h-2.9v4.9c-1-0.7-2.2-1-3.4-1
	c-3.3,0-6.1,2.7-6.1,6c0,3.3,2.7,6,6.1,6C21.3,42.9,22.4,42.6,23.4,41.9L23.4,41.9 M20.1,33.6c1.8,0,3.3,1.5,3.3,3.3
	c0,1.8-1.5,3.3-3.3,3.3c-1.8,0-3.4-1.5-3.4-3.3C16.7,35.1,18.2,33.6,20.1,33.6L20.1,33.6 M10.1,41.9v0.8h2.8V31h-2.8v0.9
	c-1-0.7-2.2-1-3.5-1c-3.3,0-6,2.7-6,6c0,3.3,2.7,6,6,6C7.9,42.9,9.1,42.6,10.1,41.9L10.1,41.9 M6.7,33.6c1.9,0,3.4,1.5,3.4,3.3
	c0,1.8-1.5,3.3-3.4,3.3c-1.8,0-3.3-1.5-3.3-3.3C3.3,35.1,4.9,33.6,6.7,33.6L6.7,33.6 M67.5,28.7h0.4c0.2,0,0.3,0.1,0.3,0.3
	c0,0.1-0.2,0.2-0.4,0.2h-0.3V28.7L67.5,28.7 M68.2,29.3c0.3-0.1,0.3-0.2,0.3-0.4c0-0.3-0.2-0.5-0.6-0.5h-0.7v1.7h0.3v-0.7h0.3
	c0.2,0,0.4,0.1,0.4,0.4c0,0.1,0.1,0.2,0.1,0.3h0.3c-0.1-0.1-0.1-0.3-0.1-0.5C68.5,29.4,68.3,29.3,68.2,29.3L68.2,29.3 M67.9,27.7
	c-0.9,0-1.6,0.7-1.6,1.6c0,0.9,0.7,1.6,1.6,1.6c0.9,0,1.6-0.7,1.6-1.6C69.4,28.4,68.8,27.7,67.9,27.7L67.9,27.7 M67.9,27.9
	c0.7,0,1.4,0.7,1.4,1.4c0,0.7-0.7,1.4-1.4,1.4c-0.7,0-1.4-0.7-1.4-1.4C66.4,28.5,67.1,27.9,67.9,27.9"/>
</svg>
