<?xml version="1.0" encoding="utf-8"?>
<!-- Generator: Adobe Illustrator 24.2.1, SVG Export Plug-In . SVG Version: 6.00 Build 0)  -->
<svg version="1.1" id="레이어_1" xmlns="http://www.w3.org/2000/svg" xmlns:xlink="http://www.w3.org/1999/xlink" x="0px"
	 y="0px" width="70px" height="70px" viewBox="0 0 70 70" style="enable-background:new 0 0 70 70;" xml:space="preserve">
<style type="text/css">
	.st0{fill:#999999;}
	.st1{fill:#FFFFFF;}
	.st2{fill:#8F1A00;}
	.st3{fill:#730A00;}
	.st4{fill:#666666;}
	.st5{fill:#0D0D0D;}
</style>
<g>
	<path class="st0" d="M67.9,19.7l-33.1-5.1L2.1,19.7c-0.5,0.1-0.9,0.2-1.1,0.5c-0.3,0.3-0.4,0.7-0.4,1.1v25.2c0,0.5,0.3,0.9,0.5,1.1
		c0.3,0.3,0.7,0.5,1.1,0.6l32.7,7.2l33-7.2c0.6-0.1,1-0.3,1.2-0.6c0.3-0.3,0.4-0.6,0.4-1.1V21.3c0-0.4-0.1-0.8-0.4-1.1
		C68.8,19.9,68.4,19.7,67.9,19.7z"/>
	<path class="st1" d="M67.5,23v-0.9c0-0.6-0.1-1-0.5-1.4c-0.3-0.4-0.8-0.6-1.6-0.7l-30.7-4.5l-0.1,0L4.4,20.1
		c-0.6,0.1-1.1,0.3-1.5,0.6c-0.3,0.4-0.5,0.8-0.5,1.4V23c0,0,0,0,0,0v22.5c0,0.5,0.2,1,0.7,1.4c0.4,0.3,0.8,0.5,1.3,0.6L34.8,54
		l30.8-6.5c0.6-0.1,1-0.3,1.4-0.7c0.4-0.4,0.6-0.8,0.6-1.4L67.5,23C67.5,23.1,67.5,23,67.5,23z"/>
	<path d="M3.2,34v10.6c0,0.4,0.2,0.6,0.4,0.8c0.2,0.2,0.6,0.4,0.9,0.4l30.3,6.4l30.6-6.4c0.5-0.1,0.8-0.2,1-0.4
		c0.2-0.2,0.3-0.4,0.3-0.8V34L3.2,34z"/>
	<path class="st2" d="M66.7,21.8c0-0.2-0.1-0.4-0.2-0.5c-0.2-0.2-0.5-0.3-1-0.4c0,0,0,0-0.1,0l-30.6-4.5L4.5,21
		c-0.3,0-0.6,0.1-0.8,0.2c-0.1,0-0.1,0.1-0.2,0.1c-0.1,0.2-0.2,0.4-0.3,0.6c0,0.1,0,0.1,0,0.2V23v11l63.5,0v-11v-0.9
		C66.7,22,66.7,21.9,66.7,21.8z"/>
	<path class="st3" d="M7.8,33.2h4.3c1.7,0,3.2-0.4,4.5-1.1c0.4-0.2,0.8-0.5,1.1-0.8c0,0,0,0,0,0c-1.3,0.7-2.8,1.1-4.5,1.1l-4.3,0
		c-0.5,0-0.9-0.1-1.1-0.3c-0.2-0.2-0.3-0.4-0.2-0.9l2.3-8.6c0-0.1,0.1-0.2,0.1-0.2c-0.2,0-0.4,0.1-0.5,0.2C9.2,22.7,9,23,8.9,23.4
		L6.6,32c-0.1,0.5,0,0.8,0.2,0.9C7,33.1,7.4,33.2,7.8,33.2z"/>
	<path class="st3" d="M15.9,25.1c0.3,0.2,0.3,0.6,0.3,0.9l-0.9,3.4c0,0.1-0.1,0.2-0.2,0.3c0.2-0.1,0.3-0.1,0.5-0.2
		c0.4-0.3,0.7-0.6,0.8-1l0.9-3.4c0.1-0.3,0-0.6-0.2-0.9c-0.2-0.2-0.6-0.4-1.4-0.4h-1.9c-0.1,0-0.1,0-0.2,0c0,0,0,0-0.1,0.1l-0.2,0.7
		h1.2C15.1,24.6,15.6,24.8,15.9,25.1z"/>
	<path class="st3" d="M28.6,32.2c-0.1-0.1-0.2-0.3-0.1-0.6l0.9-3.5c0,0,0,0-0.1,0h-3.9c-0.1,0-0.1,0-0.2,0c0,0,0,0-0.1,0.1L25,28.9
		h3.2c0.1,0,0.1,0,0.1,0l-1,3.5c-0.1,0.2,0,0.4,0.1,0.5c0.1,0.1,0.3,0.2,0.6,0.2h2c0.3,0,0.5-0.1,0.6-0.2c0.2-0.1,0.3-0.3,0.4-0.5
		l0-0.2h-1.9C28.9,32.4,28.7,32.3,28.6,32.2z"/>
	<path class="st3" d="M28.9,25c0.2,0.2,0.3,0.4,0.3,0.6h0.7c0.1,0,0.1,0,0.2,0c0,0,0,0,0.1-0.1l0.1-0.4c0.1-0.3,0-0.7-0.2-0.9
		c-0.2-0.2-0.6-0.5-1.4-0.5c-0.8,0-1.4,0.3-1.7,0.5c-0.2,0.2-0.4,0.3-0.6,0.5c0.3-0.1,0.7-0.2,1.2-0.2C28.2,24.5,28.7,24.8,28.9,25z
		"/>
	<path class="st3" d="M19.5,33c0.1,0.1,0.3,0.2,0.6,0.2h2c0.3,0,0.5-0.1,0.6-0.2c0.2-0.1,0.3-0.3,0.4-0.5l0-0.2h-1.9
		c-0.3,0-0.5-0.1-0.6-0.2c-0.1-0.1-0.2-0.3-0.1-0.6l1.8-6.5c0.2-0.7,0.6-1.3,1.2-1.9c-1.2,0.7-2,1.7-2.3,2.7l-1.8,6.5
		C19.3,32.7,19.4,32.9,19.5,33z"/>
	<path class="st3" d="M42.2,32.2c-0.1-0.1-0.2-0.3-0.1-0.5l0.6-2.1c0.1-0.4,0-0.7-0.2-1c-0.2-0.2-0.6-0.5-1.4-0.5h-2
		c-0.1,0-0.1,0-0.2,0c0,0-0.1,0-0.1,0.1l-0.2,0.7h1.3c0.8,0,1.2,0.3,1.4,0.5c0.3,0.3,0.3,0.6,0.2,1L41,32.5c-0.1,0.2,0,0.4,0.1,0.5
		c0.1,0.1,0.3,0.2,0.6,0.2h2c0.3,0,0.5-0.1,0.6-0.2c0.2-0.1,0.3-0.3,0.4-0.5l0-0.2h-2C42.5,32.4,42.3,32.3,42.2,32.2z"/>
	<path class="st3" d="M33.2,33c0.1,0.1,0.3,0.2,0.6,0.2h2c0.3,0,0.5-0.1,0.6-0.2c0.2-0.1,0.3-0.3,0.4-0.5l0-0.2h-2
		c-0.3,0-0.5-0.1-0.6-0.2c-0.1-0.1-0.2-0.3-0.1-0.5l1.8-6.5c0.2-0.7,0.6-1.4,1.3-2c-1.2,0.7-2.1,1.7-2.3,2.8L33,32.5
		C33,32.7,33,32.9,33.2,33z"/>
	<path class="st3" d="M42.5,24.8c0.3,0.2,0.4,0.4,0.4,0.7c0,0,0,0,0,0c0.6-0.2,0.9-0.4,1-0.8c0.1-0.3,0-0.5-0.4-0.7
		c-0.3-0.2-0.8-0.3-1.4-0.3c-0.8,0-1.4,0.3-1.7,0.5c-0.2,0.2-0.4,0.3-0.6,0.5c0.3-0.1,0.7-0.2,1.3-0.2
		C41.7,24.5,42.2,24.6,42.5,24.8z"/>
	<path class="st3" d="M45.6,27C45.7,27,45.7,27,45.6,27C45.7,27,45.7,27,45.6,27c0.1,0,0.1-0.1,0.2-0.1c0,0,0-0.1,0.1-0.1
		c0,0-0.1,0.1-0.1,0.1C45.7,26.9,45.7,26.9,45.6,27z"/>
	<path class="st3" d="M47.7,32.2c-0.1-0.1-0.2-0.3-0.1-0.6l2.6-9.5h-0.2c-0.3,0-0.5,0.1-0.6,0.2c-0.2,0.1-0.3,0.3-0.4,0.5l-2.7,9.8
		c-0.1,0.2,0,0.4,0.1,0.6c0.1,0.1,0.3,0.2,0.6,0.2h1.9c0.3,0,0.5-0.1,0.6-0.2c0.2-0.1,0.3-0.3,0.4-0.5l0.1-0.3h-1.6
		C48,32.4,47.8,32.3,47.7,32.2z"/>
	<path class="st3" d="M55.9,32.2c-0.2-0.1-0.3-0.2-0.4-0.4l-2.8-5.1c0-0.1-0.1-0.1-0.1-0.1c0,0,0,0,0,0L52,28.7l2.2,4
		c0.1,0.2,0.2,0.3,0.4,0.4c0.2,0.1,0.4,0.2,0.7,0.2h1.9c0.3,0,0.5-0.1,0.6-0.2c0.2-0.1,0.3-0.3,0.4-0.5l0.1-0.3h-1.7
		C56.3,32.4,56.1,32.3,55.9,32.2z"/>
	<path class="st3" d="M57.1,26.9C57.1,26.9,57.1,26.9,57.1,26.9l1.3-4.8h-0.2c-0.3,0-0.5,0.1-0.6,0.2c-0.2,0.1-0.3,0.3-0.4,0.5
		l-0.8,3L57.1,26.9C57.1,26.9,57.1,26.9,57.1,26.9z"/>
	<path class="st4" d="M15.6,36.5h-0.2h-0.2h-1.7c-0.1,0-0.1,0-0.1,0c0,0,0,0,0,0l-0.1,0.2L13.1,37l-0.1,0.2h1.6c0.2,0,0.4,0,0.5-0.1
		c0.2-0.1,0.3-0.2,0.3-0.4L15.6,36.5z"/>
	<path class="st4" d="M10.2,43.1H9.3c-0.2,0-0.4-0.1-0.5-0.2c-0.1-0.1-0.2-0.2-0.1-0.5l1.6-6c0,0,0,0,0,0H8c-0.2,0-0.4-0.1-0.5-0.2
		c-0.1-0.1-0.2-0.2-0.1-0.5l0.1-0.3l0.1-0.2l0.1-0.2H7.4c-0.2,0-0.4,0-0.5,0.1c-0.2,0.1-0.3,0.2-0.3,0.4l-0.2,0.8
		c-0.1,0.3,0,0.4,0.1,0.5c0.1,0.1,0.3,0.2,0.5,0.2h2.3l-1.6,6c-0.1,0.3,0,0.4,0.1,0.5c0.1,0.1,0.3,0.2,0.5,0.2h1.5
		c0.2,0,0.4,0,0.5-0.1c0.2-0.1,0.3-0.2,0.3-0.4l0-0.1h-0.2H10.2z"/>
	<path class="st4" d="M22.2,37.4c0.2,0.2,0.2,0.4,0.2,0.7l-0.7,2.6c0,0.1-0.1,0.3-0.2,0.4c0.1,0,0.3-0.1,0.4-0.1
		c0.1,0,0.2-0.1,0.3-0.2c0,0,0,0,0,0c0.3-0.2,0.5-0.5,0.6-0.8l0.7-2.6c0.1-0.3,0-0.5-0.2-0.7c-0.2-0.2-0.5-0.3-1.1-0.3
		c-0.5,0-0.9,0.1-1.1,0.3c-0.1,0-0.1,0.1-0.2,0.1c-0.1,0-0.1,0.1-0.2,0.1c-0.1,0.1-0.2,0.2-0.3,0.3c0.2-0.1,0.5-0.1,0.8-0.1
		C21.6,37.1,22,37.2,22.2,37.4z"/>
	<path class="st4" d="M21.5,43.2c-0.4,0.1-0.8,0.1-1.2,0.1c-1.3,0-2.4-0.3-3.1-0.9c-0.7-0.6-0.9-1.4-0.7-2.3l0.7-2.6
		c0-0.2,0.1-0.3,0.2-0.5c0.1-0.2,0.3-0.5,0.4-0.7c0.2-0.2,0.4-0.4,0.6-0.6c-0.1,0.1-0.3,0.1-0.4,0.2c-1,0.6-1.6,1.4-1.9,2.2
		l-0.7,2.6c-0.2,0.9,0,1.7,0.7,2.3c0.7,0.6,1.8,1,3.1,1c1.3,0,2.5-0.3,3.5-0.9c0.3-0.2,0.6-0.4,0.8-0.6c-0.3,0.1-0.6,0.3-0.9,0.4
		C22.3,43,21.9,43.1,21.5,43.2z"/>
	<path class="st4" d="M34.3,35.3c-0.2,0.1-0.3,0.2-0.3,0.4l-1.4,5.1c0,0.1-0.1,0.3-0.2,0.4c0.1,0,0.2-0.1,0.3-0.1
		c0.1-0.1,0.2-0.1,0.3-0.2c0,0,0,0,0,0c0.3-0.2,0.5-0.5,0.6-0.8l1.2-4.5l0.1-0.2l0.1-0.2h-0.2C34.6,35.1,34.4,35.2,34.3,35.3z"/>
	<path class="st4" d="M32.4,43.2c-0.4,0.1-0.8,0.1-1.2,0.1c-1.3,0-2.4-0.3-3.1-0.9c-0.7-0.6-0.9-1.4-0.7-2.3l1.2-4.5l0.1-0.2
		l0.1-0.2h-0.2c-0.2,0-0.4,0-0.5,0.1c-0.2,0.1-0.3,0.2-0.3,0.4l-1.4,5.1c-0.2,0.9,0,1.7,0.7,2.3c0.7,0.6,1.8,1,3.1,1
		c1.3,0,2.5-0.3,3.5-0.9c0.3-0.2,0.6-0.4,0.8-0.6c-0.3,0.1-0.6,0.3-0.9,0.4C33.3,43,32.9,43.1,32.4,43.2z"/>
	<path class="st4" d="M42.7,40.5h1l-0.1,0.2c0,0.1-0.1,0.3-0.2,0.4c0.1,0,0.2-0.1,0.3-0.1c0.1-0.1,0.2-0.1,0.3-0.2c0,0,0,0,0,0
		c0.3-0.2,0.5-0.5,0.6-0.8l0.1-0.3c0,0,0,0,0,0l-1,0c-0.2,0-0.4-0.1-0.5-0.2c-0.1-0.1-0.2-0.2-0.1-0.5l0.1-0.3l0.1-0.2l0.1-0.2h-0.2
		c-0.2,0-0.4,0-0.5,0.1c-0.2,0.1-0.3,0.2-0.3,0.4L42,39.8c-0.1,0.3,0,0.4,0.1,0.5C42.3,40.5,42.5,40.5,42.7,40.5z"/>
	<path class="st4" d="M43.4,43.2c-0.4,0.1-0.8,0.1-1.2,0.1c-1.3,0-2.4-0.3-3.1-0.9c-0.7-0.6-0.9-1.4-0.7-2.3l0.7-2.6
		c0-0.2,0.1-0.3,0.2-0.5c0.1-0.2,0.3-0.5,0.4-0.7c0.2-0.2,0.4-0.4,0.6-0.6c-0.1,0.1-0.3,0.1-0.4,0.2c-1,0.6-1.6,1.4-1.9,2.2
		l-0.7,2.6c-0.2,0.9,0,1.7,0.7,2.3c0.7,0.6,1.8,1,3.1,1c1.3,0,2.5-0.3,3.5-0.9c0.3-0.2,0.6-0.4,0.8-0.6c-0.3,0.1-0.6,0.3-0.9,0.4
		C44.3,43,43.8,43.1,43.4,43.2z"/>
	<path class="st4" d="M46.6,37.6c-0.2,0.1-0.4,0.1-0.5,0.1c0,0-0.1,0-0.1,0c-0.1,0-0.2-0.1-0.3-0.2c-0.2-0.3-0.3-0.5-0.5-0.7
		c-0.2-0.2-0.6-0.3-1-0.3c-0.5,0-0.9,0.1-1.1,0.3c-0.1,0-0.1,0.1-0.2,0.1c-0.1,0-0.1,0.1-0.2,0.1c-0.1,0.1-0.2,0.2-0.3,0.3
		c0.2-0.1,0.5-0.1,0.8-0.1c0.4,0,0.8,0.1,1,0.3c0.1,0.1,0.2,0.3,0.3,0.4h0.3h0.2h0.5H46h0.6l0.2-0.1c0.3-0.1,0.4-0.3,0.4-0.4
		c0,0,0,0,0,0l-0.3,0.1L46.6,37.6z"/>
	<path class="st4" d="M56.8,43.1h-0.2h-1c-0.2,0-0.4-0.1-0.5-0.2c-0.1-0.1-0.2-0.2-0.1-0.5l0.7-2.7c0,0,0,0,0,0h-3
		c-0.1,0-0.1,0-0.1,0c0,0,0,0,0,0l-0.1,0.2l-0.1,0.2l-0.1,0.2h2.3l-0.7,2.6c-0.1,0.3,0,0.4,0.1,0.5c0.1,0.1,0.3,0.2,0.5,0.2h1.5
		c0.2,0,0.4,0,0.5-0.1c0.2-0.1,0.3-0.2,0.3-0.4l0-0.1H56.8z"/>
	<path class="st4" d="M50.3,43.1h-1c-0.2,0-0.4-0.1-0.5-0.2c-0.1-0.1-0.2-0.2-0.1-0.5l1.9-6.9l0.1-0.2l0.1-0.2h-0.2
		c-0.2,0-0.4,0-0.5,0.1c-0.2,0.1-0.3,0.2-0.3,0.4l-2,7.5c-0.1,0.3,0,0.4,0.1,0.5c0.1,0.1,0.3,0.2,0.5,0.2h1.5c0.2,0,0.4,0,0.5-0.1
		c0.2-0.1,0.3-0.2,0.3-0.4l0-0.1h-0.2H50.3z"/>
	<path class="st4" d="M55.8,37.8h0.3c0.1,0,0.1,0,0.1,0c0,0,0,0,0,0l0.6-2.2l0.1-0.2l0.1-0.2h-0.2c-0.2,0-0.4,0-0.5,0.1
		c-0.2,0.1-0.3,0.2-0.3,0.4l-0.6,2.1h0.2H55.8z"/>
	<path class="st5" d="M52.4,45.3c-0.1,0-0.2,0-0.2,0.1c-0.1,0.1-0.1,0.1-0.1,0.2c0,0.1,0,0.2,0.1,0.2c0.1,0.1,0.2,0.1,0.2,0.1
		c0.1,0,0.2,0,0.2-0.1c0.1-0.1,0.1-0.1,0.1-0.2c0-0.1,0-0.2-0.1-0.2C52.6,45.3,52.5,45.3,52.4,45.3z M52.5,45.8l-0.1-0.2h-0.1v0.2
		h-0.1v-0.4h0.2c0.1,0,0.1,0,0.1,0c0,0,0,0,0,0.1c0,0,0,0.1,0,0.1c0,0-0.1,0-0.1,0l0.1,0.2H52.5z"/>
	<path class="st5" d="M52.6,45.5C52.6,45.5,52.5,45.5,52.6,45.5c-0.1-0.1-0.1-0.1-0.1-0.1h-0.1v0.1h0.1
		C52.5,45.6,52.5,45.6,52.6,45.5C52.5,45.5,52.6,45.5,52.6,45.5z"/>
	<polygon class="st1" points="19.8,47.4 18.5,45.2 17.7,45.2 19.4,48 20.2,48 21.9,45.2 21.2,45.2 	"/>
	<polygon class="st1" points="23.7,46.8 25.8,46.8 25.8,46.3 23.7,46.3 23.7,45.7 26.2,45.7 26.2,45.2 23,45.2 23,48 26.2,48 
		26.2,47.5 23.7,47.5 	"/>
	<path class="st1" d="M30.6,46.6c0.2-0.1,0.3-0.3,0.3-0.6c0-0.3-0.2-0.5-0.4-0.7c-0.3-0.1-0.6-0.2-1-0.2h-2.1V48h0.7v-1.1h1.1l1,1.1
		H31l-1.1-1.1C30.2,46.9,30.5,46.8,30.6,46.6z M28.1,46.5v-0.8h1.3c0.3,0,0.5,0,0.6,0.1c0.1,0.1,0.2,0.2,0.2,0.3
		c0,0.2-0.1,0.3-0.2,0.3c-0.1,0.1-0.4,0.1-0.6,0.1H28.1z"/>
	<polygon class="st1" points="34.3,47.3 33.2,45.2 32.3,45.2 32.3,48 32.9,48 32.9,45.9 32.9,45.9 34,48 34.6,48 35.7,45.9 
		35.7,45.9 35.7,48 36.3,48 36.3,45.2 35.4,45.2 	"/>
	<path class="st1" d="M41.3,45.6c-0.3-0.3-0.9-0.5-1.6-0.5c-0.8,0-1.3,0.2-1.6,0.5c-0.3,0.3-0.5,0.6-0.5,1c0,0.3,0.1,0.7,0.4,0.9
		c0.3,0.3,0.8,0.5,1.7,0.5c0.8,0,1.4-0.2,1.7-0.5c0.3-0.3,0.4-0.6,0.4-0.9C41.7,46.3,41.6,45.9,41.3,45.6z M40.6,47.4
		c-0.3,0.2-0.6,0.2-1,0.2c-0.3,0-0.7-0.1-1-0.2c-0.3-0.2-0.5-0.4-0.5-0.8c0-0.3,0.2-0.6,0.4-0.7c0.3-0.2,0.6-0.2,1-0.2
		c0.4,0,0.8,0.1,1,0.2c0.3,0.2,0.4,0.4,0.4,0.7C41,47,40.8,47.3,40.6,47.4z"/>
	<polygon class="st1" points="46,47.2 43.7,45.2 42.9,45.2 42.9,48 43.6,48 43.6,45.9 46.1,48 46.7,48 46.7,45.2 46,45.2 	"/>
	<polygon class="st1" points="47.8,45.7 49.4,45.7 49.4,48 50.1,48 50.1,45.7 51.6,45.7 51.6,45.2 47.8,45.2 	"/>
	<path class="st1" d="M9,32l4.3,0c1.6,0,3.1-0.4,4.3-1c0.4-0.2,0.8-0.5,1.1-0.8c0.5-0.5,0.9-1.1,1.1-1.7l0.9-3.4
		c0.3-0.9,0-1.8-0.8-2.4c-0.8-0.6-2.1-1-3.7-1h-4.3c-0.4,0-0.7,0.1-1,0.2c-0.1,0.1-0.2,0.1-0.3,0.2c-0.1,0.1-0.2,0.2-0.2,0.4L8,31.2
		c-0.1,0.2,0,0.4,0.1,0.6C8.3,31.9,8.6,32,9,32z M17.6,25.2l-0.9,3.4c-0.1,0.5-0.5,0.9-1,1.2c-0.3,0.2-0.7,0.3-1.2,0.4
		c-0.2,0-0.5,0.1-0.7,0.1h-1.9c-0.2,0-0.3,0-0.4-0.1c-0.1-0.1-0.1-0.2-0.1-0.4l1.4-5.2l0.2-0.8c0-0.1,0.1-0.2,0.2-0.3
		c0.1-0.1,0.2-0.1,0.4-0.1h1.9c0.7,0,1.3,0.2,1.7,0.5C17.6,24.3,17.7,24.8,17.6,25.2z"/>
	<path class="st1" d="M21.2,32h2c0,0,0,0,0,0c0.2,0,0.3,0,0.4-0.1c0.1-0.1,0.2-0.1,0.2-0.3l0.7-2.7l0.2-0.8c0-0.1,0.1-0.2,0.2-0.3
		c0.1-0.1,0.2-0.1,0.4-0.1h3.9c0.2,0,0.3,0,0.4,0.1c0.1,0.1,0.1,0.2,0.1,0.4l-0.9,3.5c0,0.1,0,0.2,0,0.2c0,0,0.1,0.1,0.3,0.1h2
		c0,0,0,0,0,0c0.2,0,0.3,0,0.4-0.1c0.1-0.1,0.2-0.1,0.2-0.3l1.8-6.5c0.3-0.9,0-1.8-0.8-2.5c-0.8-0.7-2.1-1.1-3.7-1.1
		c-1.4,0-2.7,0.3-3.8,0.9c-0.2,0.1-0.3,0.2-0.5,0.3c-1.2,0.7-1.9,1.6-2.2,2.6l-1.8,6.5c0,0.1,0,0.2,0,0.2C20.9,31.9,21,32,21.2,32z
		 M30.6,25.2l-0.1,0.4c0,0.1-0.1,0.2-0.2,0.3C30.1,26,30,26,29.9,26h-0.8H26c-0.2,0-0.3,0-0.4-0.1c-0.1-0.1-0.1-0.2-0.1-0.4l0.1-0.4
		c0,0,0,0,0-0.1c0.1-0.4,0.5-0.8,1-1.2c0.4-0.3,1-0.6,1.9-0.6c0.9,0,1.4,0.3,1.7,0.6C30.6,24.3,30.7,24.7,30.6,25.2z"/>
	<path class="st1" d="M34.8,32h2c0,0,0,0,0.1,0c0.2,0,0.3,0,0.4-0.1c0.1-0.1,0.2-0.2,0.2-0.3l0.7-2.8l0.2-0.8c0-0.1,0.1-0.2,0.2-0.3
		c0.1-0.1,0.2-0.1,0.4-0.1h2c0.9,0,1.4,0.3,1.7,0.6c0.3,0.3,0.5,0.8,0.3,1.3l-0.6,2.1c0,0.1,0,0.2,0,0.2c0,0,0.1,0.1,0.4,0.1h2
		c0,0,0,0,0.1,0c0.2,0,0.3,0,0.4-0.1c0.1-0.1,0.2-0.2,0.2-0.3l0.6-2.1c0.2-0.6,0.2-1.1,0.1-1.4c-0.1-0.3-0.3-0.6-0.6-0.8
		c0,0,0,0-0.1,0c-0.1-0.1-0.1-0.3-0.1-0.3c0-0.1,0.1-0.2,0.3-0.3c0.3-0.2,0.6-0.3,0.8-0.5c0.1-0.1,0.2-0.1,0.3-0.2
		c0.3-0.3,0.5-0.7,0.6-1.1c0.3-1,0-1.8-0.8-2.3c-0.8-0.6-2.1-0.9-3.8-0.9c-1.4,0-2.7,0.3-3.9,0.9c-0.2,0.1-0.3,0.2-0.4,0.2
		c-1.2,0.7-1.9,1.6-2.2,2.6l-1.8,6.5c0,0.1,0,0.2,0,0.2C34.5,32,34.6,32,34.8,32z M44.3,24.8c-0.1,0.5-0.6,0.8-1.3,1
		c-0.1,0-0.3,0.1-0.4,0.1C42.1,26,41.7,26,41.5,26h-1.9c-0.2,0-0.3,0-0.4-0.1c-0.1-0.1-0.1-0.2-0.1-0.4l0.1-0.4c0,0,0-0.1,0-0.1
		c0.1-0.4,0.5-0.8,0.9-1.1c0.4-0.3,1-0.6,1.9-0.6c0.5,0,1.1,0.1,1.6,0.3C44.2,23.9,44.4,24.3,44.3,24.8z"/>
	<path class="st1" d="M48.3,32H50h0.1c0.2,0,0.4,0,0.5-0.1c0.1-0.1,0.2-0.2,0.2-0.3l0.9-3.4l0.5-1.8c0.1-0.2,0.2-0.3,0.4-0.3
		c0.1,0,0.3,0.1,0.4,0.3l2.8,5.1c0.1,0.1,0.2,0.2,0.3,0.3c0.1,0.1,0.3,0.1,0.5,0.1h1.8h0.1c0.2,0,0.4,0,0.5-0.1
		c0.1-0.1,0.2-0.2,0.2-0.3l2.7-9.8c0-0.1,0-0.2,0-0.2c0,0-0.1-0.1-0.4-0.1h-1.9c-0.2,0-0.4,0-0.5,0.1c-0.1,0.1-0.2,0.2-0.2,0.3
		l-0.1,0.2L57.5,27c-0.1,0.2-0.2,0.3-0.3,0.3c-0.1,0-0.3,0-0.4-0.3l-0.5-0.8l-2.4-4.2c-0.1-0.2-0.2-0.2-0.2-0.3
		c-0.1-0.1-0.2-0.1-0.4-0.1h-2c-0.2,0-0.4,0-0.5,0.1c-0.1,0.1-0.2,0.2-0.2,0.3l-0.1,0.2l-2.6,9.6c0,0.1,0,0.2,0,0.2
		C48,32,48.1,32,48.3,32z"/>
	<path class="st1" d="M8,36.1h2.3c0.1,0,0.2,0,0.3,0.1c0.1,0.1,0.1,0.2,0.1,0.3L9,42.6c0,0.1,0,0.1,0,0.1c0,0,0.1,0.1,0.2,0.1h1h0.2
		h0.2h0c0.1,0,0.2,0,0.3-0.1c0.1,0,0.1-0.1,0.1-0.2l1.4-5.3l0.1-0.2l0.1-0.2l0.1-0.3c0-0.1,0.1-0.2,0.2-0.3c0.1-0.1,0.2-0.1,0.3-0.1
		h1.8h0.2h0.2h0c0.1,0,0.2,0,0.3-0.1c0.1,0,0.1-0.1,0.1-0.2l0.2-0.8c0-0.1,0-0.1,0-0.1c0,0-0.1-0.1-0.2-0.1l-7.7,0
		c-0.1,0-0.2,0-0.3,0.1C8,35,8,35.1,7.9,35.1l0,0l-0.1,0.2l-0.1,0.2l-0.1,0.4c0,0.1,0,0.1,0,0.1C7.7,36.1,7.8,36.1,8,36.1z"/>
	<path class="st1" d="M23.2,42.3c0.1-0.1,0.3-0.1,0.4-0.2c0.1-0.1,0.2-0.2,0.3-0.2c0.2-0.1,0.4-0.3,0.5-0.4c0.4-0.4,0.7-0.9,0.8-1.3
		l0.7-2.6c0.2-0.7,0-1.4-0.6-1.9c-0.6-0.5-1.6-0.8-2.8-0.8c-0.8,0-1.5,0.1-2.2,0.4c-0.4,0.1-0.7,0.3-1,0.4c0,0-0.1,0-0.1,0.1
		c-0.3,0.2-0.6,0.4-0.8,0.6c-0.5,0.4-0.8,0.9-0.9,1.4l-0.7,2.6c-0.2,0.7,0,1.4,0.6,1.9c0.6,0.5,1.6,0.8,2.8,0.8
		C21.3,42.9,22.3,42.7,23.2,42.3z M23.1,40.2c-0.1,0.4-0.4,0.7-0.8,1c-0.1,0.1-0.3,0.2-0.5,0.3c-0.1,0-0.3,0.1-0.4,0.1
		c-0.2,0-0.3,0.1-0.5,0.1c0,0-0.1,0-0.1,0c-0.7,0-1.1-0.3-1.3-0.5c-0.3-0.3-0.4-0.7-0.3-1.1l0.7-2.6l0,0c0-0.1,0.1-0.2,0.1-0.3
		c0.1-0.1,0.1-0.2,0.2-0.3c0.1-0.1,0.3-0.3,0.4-0.4c0.3-0.2,0.8-0.4,1.5-0.4c0.7,0,1.1,0.3,1.3,0.5c0.3,0.3,0.4,0.7,0.3,1.1
		L23.1,40.2z"/>
	<path class="st1" d="M33.3,41.2c-0.2,0.1-0.3,0.2-0.5,0.2c-0.1,0.1-0.3,0.1-0.4,0.1c-0.2,0-0.3,0.1-0.5,0.1c0,0-0.1,0-0.1,0
		c-0.7,0-1.1-0.3-1.4-0.5c-0.3-0.3-0.4-0.7-0.3-1.1l1.4-5.1c0,0,0-0.1,0-0.1c0,0-0.1-0.1-0.2-0.1h-1.5c-0.1,0-0.2,0-0.3,0.1
		c-0.1,0-0.1,0.1-0.1,0.2l0,0l-0.1,0.2l-0.1,0.2l-1.2,4.6c-0.2,0.7,0,1.4,0.6,1.9c0.6,0.5,1.6,0.8,2.8,0.8c1,0,2-0.2,2.9-0.6
		c0.1-0.1,0.3-0.1,0.4-0.2c0.1-0.1,0.2-0.1,0.3-0.2c0.2-0.1,0.4-0.3,0.5-0.4c0.4-0.4,0.7-0.9,0.8-1.3l1.4-5.1c0,0,0-0.1,0-0.1
		c0,0-0.1-0.1-0.2-0.1h-1.5c-0.1,0-0.2,0-0.3,0.1c-0.1,0-0.1,0.1-0.1,0.2l0,0l-0.1,0.2l-0.1,0.2L34,40.2
		C33.9,40.5,33.6,40.9,33.3,41.2z"/>
	<path class="st1" d="M44.5,34.7c-0.8,0-1.5,0.1-2.2,0.4c-0.4,0.1-0.7,0.3-1,0.4c0,0-0.1,0-0.1,0.1c-0.3,0.2-0.6,0.4-0.8,0.6
		c-0.5,0.4-0.8,0.9-0.9,1.4l-0.7,2.6c-0.2,0.7,0,1.4,0.6,1.9c0.6,0.5,1.6,0.8,2.8,0.8c1,0,2-0.2,2.9-0.6c0.1-0.1,0.3-0.1,0.4-0.2
		c0.1-0.1,0.2-0.2,0.4-0.2c0.2-0.1,0.4-0.3,0.5-0.4c0.4-0.4,0.7-0.9,0.8-1.3l0.5-1.7c0-0.1,0-0.1,0-0.1c0,0-0.1-0.1-0.2-0.1h-1.8h-1
		h-0.5c-0.1,0-0.2,0-0.3,0.1c-0.1,0-0.1,0.1-0.1,0.2l0,0l-0.1,0.2l-0.1,0.2l-0.1,0.4c0,0,0,0.1,0,0.1c0,0,0.1,0.1,0.2,0.1l1,0
		c0.1,0,0.2,0,0.3,0.1c0.1,0.1,0.1,0.2,0.1,0.3L45,40.2c-0.1,0.4-0.4,0.7-0.8,1c-0.1,0.1-0.3,0.2-0.5,0.3c-0.1,0-0.3,0.1-0.4,0.1
		c-0.2,0-0.3,0.1-0.5,0.1c0,0-0.1,0-0.1,0c-0.7,0-1.1-0.3-1.3-0.5c-0.3-0.3-0.4-0.7-0.3-1.1l0.7-2.6l0,0c0-0.1,0.1-0.2,0.1-0.3
		c0.1-0.1,0.1-0.2,0.2-0.3c0.1-0.1,0.3-0.3,0.4-0.4c0.3-0.2,0.8-0.4,1.5-0.4c0.5,0,0.9,0.1,1.3,0.4c0.3,0.2,0.5,0.5,0.6,0.8
		c0,0,0,0.1,0.1,0.1c0.1,0,0.2,0,0.3-0.1l0.4-0.2l0.2-0.1l0.2-0.1l0.5-0.2c0.1,0,0.2-0.1,0.2-0.2c0-0.1,0-0.1,0-0.1
		c-0.1-0.4-0.4-0.8-0.9-1.1C46.3,34.9,45.5,34.7,44.5,34.7z"/>
	<path class="st1" d="M59.3,34.9h-1.5c-0.1,0-0.2,0-0.3,0.1c-0.1,0-0.1,0.1-0.1,0.2l0,0l-0.1,0.2l-0.1,0.2l-0.6,2.3
		c0,0.1-0.1,0.2-0.2,0.3c-0.1,0.1-0.2,0.1-0.3,0.1h-0.4h-0.2h-0.2h-2.2c-0.1,0-0.2,0-0.3-0.1c-0.1-0.1-0.1-0.2-0.1-0.3l0.7-2.7
		c0-0.1,0-0.1,0-0.1c0,0-0.1-0.1-0.2-0.1h-1.5c-0.1,0-0.2,0-0.3,0.1c-0.1,0-0.1,0.1-0.1,0.2l0,0l-0.1,0.2L51,35.6l-1.9,7
		c0,0.1,0,0.1,0,0.1c0,0,0.1,0.1,0.2,0.1h1.1h0.2h0.2h0c0.1,0,0.2,0,0.3-0.1c0.1,0,0.1-0.1,0.1-0.2l0.5-2l0.1-0.2l0.1-0.2l0.1-0.3
		c0-0.1,0.1-0.2,0.2-0.3c0.1-0.1,0.2-0.1,0.3-0.1h3c0.1,0,0.2,0,0.3,0.1c0.1,0.1,0.1,0.2,0.1,0.3l-0.7,2.7c0,0.1,0,0.1,0,0.1
		c0,0,0.1,0.1,0.2,0.1h1.1h0.2h0.2h0c0.1,0,0.2,0,0.3-0.1c0.1,0,0.1-0.1,0.1-0.2l2-7.5c0-0.1,0-0.1,0-0.1
		C59.6,34.9,59.5,34.9,59.3,34.9z"/>
	<path class="st1" d="M52.4,45.2c-0.1,0-0.2,0-0.3,0.1C52,45.4,52,45.5,52,45.6c0,0.1,0.1,0.2,0.1,0.3c0.1,0.1,0.2,0.1,0.3,0.1
		c0.1,0,0.2,0,0.3-0.1c0.1-0.1,0.1-0.2,0.1-0.3c0-0.1-0.1-0.2-0.1-0.3C52.7,45.3,52.6,45.2,52.4,45.2z M52.7,45.8
		c-0.1,0.1-0.2,0.1-0.2,0.1c-0.1,0-0.2,0-0.2-0.1c-0.1-0.1-0.1-0.1-0.1-0.2c0-0.1,0-0.2,0.1-0.2c0.1-0.1,0.2-0.1,0.2-0.1
		c0.1,0,0.2,0,0.2,0.1c0.1,0.1,0.1,0.1,0.1,0.2C52.8,45.7,52.8,45.7,52.7,45.8z"/>
	<path class="st1" d="M52.6,45.6C52.6,45.6,52.6,45.5,52.6,45.6c0-0.1,0-0.2,0-0.2c0,0-0.1,0-0.1,0h-0.2v0.4h0.1v-0.2h0.1l0.1,0.2
		h0.1L52.6,45.6C52.6,45.6,52.6,45.6,52.6,45.6z M52.4,45.6v-0.1h0.1c0,0,0.1,0,0.1,0c0,0,0,0,0,0c0,0,0,0,0,0.1
		C52.5,45.6,52.5,45.6,52.4,45.6L52.4,45.6z"/>
</g>
</svg>
