<?xml version="1.0" encoding="utf-8"?>
<!-- Generator: Adobe Illustrator 24.2.1, SVG Export Plug-In . SVG Version: 6.00 Build 0)  -->
<svg version="1.1" id="레이어_1" xmlns="http://www.w3.org/2000/svg" xmlns:xlink="http://www.w3.org/1999/xlink" x="0px"
	 y="0px" width="70px" height="70px" viewBox="0 0 70 70" style="enable-background:new 0 0 70 70;" xml:space="preserve">
<style type="text/css">
	.st0{fill:#1C1C1B;}
</style>
<g>
	<defs>
		<rect id="SVGID_1_" y="0" width="70" height="70"/>
	</defs>
	<clipPath id="SVGID_2_">
		<use xlink:href="#SVGID_1_"  style="overflow:visible;"/>
	</clipPath>
</g>
<path class="st0" d="M14.2,9.8c0.5-0.9,1.7-1.6,3.4-2.1H4.3c-4.6,0-5.2,3.7-1.3,8.4l10.2,12.1c-0.4-0.6-0.7-1.4-0.7-2.2v-7.8H10
	c-1,0-2.5-0.8-3.3-1.8l-2-2.4c-1.9-2.3-1.6-4.2,0.7-4.2H14.2 M67.1,16c3.9-4.6,3.3-8.4-1.3-8.4H52.5c1.6,0.5,2.9,1.2,3.4,2.1h8.8
	c2.3,0,2.6,1.9,0.7,4.2l-2,2.4c-0.8,1-2.3,1.8-3.3,1.8h-2.4v7.8c0,0.8-0.3,1.6-0.7,2.2L67.1,16z M28.8,25.4l-4.2-4.9h-8.4
	c-0.8,0-0.9,0.7-0.2,1.5l2.4,2.9c0.7,0.8,1.8,1.3,2.6,1.3h4.7c0.7,0,2.8,1,2.8,2.7v2.7c0,1.3,0.2,1.7,0.8,1.8v-6.5
	C29.3,26.4,29.1,25.8,28.8,25.4z M23,25.2c-1.8,0-3.4-1.3-4.1-3.2h2.2c0.1,1.2,1.1,2.1,2.3,2.1c0.8,0,1.6-0.4,2-1.1l0.6,0.7
	C25.3,24.7,24.2,25.2,23,25.2z M53.7,20.5h-8.4l-4.2,4.9c-0.4,0.4-0.6,1-0.6,1.5v6.5c0.6-0.1,0.8-0.5,0.8-1.8v-2.7
	c0-1.7,2.1-2.7,2.8-2.7H49c0.7,0,1.8-0.5,2.6-1.3L54,22C54.7,21.2,54.6,20.5,53.7,20.5z M47,25.2c-1.2,0-2.2-0.5-3-1.4l0.6-0.7
	c0.4,0.7,1.1,1.1,2,1.1c1.2,0,2.2-0.9,2.3-2.1h2.2C50.4,23.9,48.8,25.2,47,25.2z M29.4,33.8V35c0,1,0.8,1.9,1.8,1.9h0h1.2
	c1.3,0,2.3,1,2.3,2.3v1.1c0,0.8-0.7,1.5-1.5,1.5H28c-2.1,0-3.8-1.7-3.8-3.8l0-4c0-1.7-1-2.7-2.6-2.7l-4.4,0c-0.6,0-1.4-0.3-2.1-0.9
	l9.4,11.2c1.7,2,4.6,3.7,6.6,3.7h7.9c2,0,4.9-1.7,6.6-3.7L55,30.4c-0.7,0.6-1.5,0.9-2.1,0.9l-4.4,0c-1.6,0-2.6,1-2.6,2.7l0,4
	c0,2.1-1.7,3.8-3.8,3.8h-5.1c-0.8,0-1.5-0.7-1.5-1.5v-1.1c0-1.3,1-2.3,2.3-2.3h1.2l0,0c1,0,1.8-0.9,1.8-1.9v-1.1H29.4z M69.6,54.1
	l-1.3,1.6h-2.2l-4.2,5h-2.8l4.2-5h-2.6l1.3-1.6H69.6z M60.6,54.1l-5.5,6.6h-2.8l5.5-6.6H60.6z M28.3,54.9l0.6,3.2l3.3-4H35l-5.5,6.6
	h-2.4l-0.8-4.8l-4.1,4.8h-2.8l5.5-6.6h2.5C27.9,54.1,28.2,54.5,28.3,54.9z M22.9,54.1L16,62.3h-2.8l2.4-2.8l-1-5.4h2.3l0.6,3.2
	l2.7-3.2H22.9z M39,57l2.8,0c0.5-0.6,0.8-1,1-1.2c0,0,0-0.1,0-0.1h-4.2c-0.1,0-0.1,0-0.2,0.1l-4.1,4.9h-2.8l4.8-5.7
	c0.5-0.6,1.2-0.9,1.9-0.9h7.1c0.3,0,0.6,0.1,0.7,0.4c0.1,0.3,0.1,0.6-0.1,0.8c-0.3,0.4-0.7,0.9-2.3,2.7c-1.6,1.9-2.2,2.6-2.2,2.6
	h-2.8c0,0,0.8-1,1.8-2.1h-3.5l0.9-1.1C38.1,57.2,38.5,57,39,57z M4.7,60c0.5-0.6,1.2-0.9,1.9-0.9h1.6c0.5,0,1-0.2,1.4-0.6
	c0.4-0.4,1.7-2,2-2.5c0-0.1,0.1-0.1,0-0.2c0-0.1-0.1-0.1-0.1-0.1H7.3l-4.2,5H0.4l5.5-6.6l6.3,0c0.5,0,1,0.2,1.3,0.5
	c0.3,0.3,0.5,0.7,0.5,1.1c0,0.4-0.2,0.7-0.4,1.1c-0.2,0.4-1.7,2.2-2.4,2.9c-0.6,0.7-1.5,1-2.3,1H4.1L4.7,60z M50.2,54.1h6.3
	l-1.4,1.6h-4.5c-0.1,0-0.1,0-0.2,0.1l-1,1.2l3.5,0l-1.3,1.6H48l-1.7,2.1h-2.8l4.8-5.7C48.7,54.4,49.4,54.1,50.2,54.1z"/>
</svg>
