<?xml version="1.0" encoding="utf-8"?>
<!-- Generator: Adobe Illustrator 24.2.1, SVG Export Plug-In . SVG Version: 6.00 Build 0)  -->
<svg version="1.1" id="레이어_1" xmlns="http://www.w3.org/2000/svg" xmlns:xlink="http://www.w3.org/1999/xlink" x="0px"
	 y="0px" width="70px" height="70px" viewBox="0 0 70 70" style="enable-background:new 0 0 70 70;" xml:space="preserve">
<g>
	<path d="M30.5,25.8"/>
	<path d="M30.5,28.5"/>
	<path d="M38.5,21.3v0.4c0.1,0,0.2,0,0.3,0c1.2,0.2,2.3,0.5,2.8,0.8c0.3,0.2,0.6,0.5,0.6,0.8c0,0.3-0.1,0.6-0.4,0.9
		c-0.4,0.3-0.7,0.4-1.3,0.4c-0.3,0-0.6,0-1-0.1c-0.2-0.1-0.5-0.1-0.8-0.2c-0.3-0.1-0.7-0.1-0.9-0.2c-0.7-0.1-1.4-0.2-2-0.2
		c-0.6,0-1.1,0-1.8,0.1c-1,0.1-1.8,0.4-2.5,0.8c-0.4,0.2-0.7,0.5-0.9,0.8l7.3,0c0.1,0,0.3,0,0.5,0c0.1,0,0.3,0,0.4,0.1
		c0.1,0,0.2,0.1,0.3,0.1c0.3,0.2,0.6,0.6,0.6,1.1c0,0.5-0.2,0.9-0.6,1.1c-0.1,0.1-0.2,0.1-0.3,0.1c-0.1,0-0.2,0.1-0.4,0.1
		c-0.1,0-0.4,0-0.5,0l-7.3,0c0.2,0.3,0.6,0.5,0.9,0.8c0.7,0.4,1.5,0.7,2.5,0.8c0.6,0.1,1.2,0.1,1.8,0.1c0.7,0,1.3-0.1,2-0.2
		c0.2,0,0.6-0.1,0.9-0.2c0.3-0.1,0.6-0.1,0.8-0.2c0.4-0.1,0.7-0.1,1-0.1c0.6,0,1,0.1,1.3,0.4c0.3,0.3,0.4,0.6,0.4,0.9
		c0,0.3-0.2,0.6-0.6,0.8c-0.5,0.3-1.6,0.6-2.8,0.8c-0.1,0-0.2,0-0.3,0v0.4c5.9-0.7,10.3-3,10.3-5.8C48.8,24.3,44.4,22,38.5,21.3"/>
	<path d="M26.6,30.3c-1.1-1-1.5-2.1-1.5-3.2c0-1.1,0.5-2.2,1.5-3.2c1-1,2.7-1.7,4.3-2.1c0.2,0,0.3-0.1,0.5-0.1v-0.4
		c-5.9,0.7-10.2,3-10.2,5.8c0,2.8,4.3,5.1,10.2,5.8v-0.4c-0.1,0-0.3-0.1-0.5-0.1C29.3,32.1,27.6,31.3,26.6,30.3"/>
	<path d="M47,41.2c0.5-0.1,1-0.1,1.5-0.1c0.6,0,1.1,0,1.7,0.1c0.4,0.1,1,0.2,1.5,0.3c0.3,0.1,0.6,0.1,0.9,0.1c0.5,0,0.8-0.1,1.1-0.3
		c0.3-0.2,0.4-0.5,0.4-0.8c0-0.3-0.2-0.5-0.5-0.7c-0.4-0.3-1.3-0.6-2.3-0.8c-1.2-0.2-2-0.3-3.2-0.3c-1.2,0-2.3,0.1-3.6,0.4
		c-1.4,0.3-2.8,1-3.7,1.8c-0.9,0.9-1.3,1.8-1.3,2.8c0,1,0.4,1.9,1.3,2.8c0.9,0.8,2.3,1.5,3.7,1.8c1.3,0.3,2.4,0.4,3.6,0.4
		c1.2,0,2-0.1,3.2-0.3c1-0.2,1.9-0.5,2.3-0.8c0.3-0.2,0.5-0.4,0.5-0.7c0-0.2-0.1-0.5-0.4-0.8c-0.3-0.3-0.6-0.3-1.1-0.3
		c-0.2,0-0.5,0-0.9,0.1c-0.4,0.1-1.1,0.2-1.5,0.3c-0.6,0.1-1.2,0.1-1.7,0.1c-0.5,0-1,0-1.5-0.1c-1.3-0.2-2.3-0.7-2.9-1.4h6.2
		c0.1,0,0.3,0,0.4,0c0.2,0,0.3-0.1,0.5-0.2c0.3-0.2,0.5-0.5,0.5-0.9c0-0.4-0.2-0.8-0.5-0.9c-0.2-0.1-0.3-0.2-0.5-0.2
		c-0.1,0-0.3,0-0.4,0h-6.2C44.6,41.9,45.7,41.4,47,41.2"/>
	<path d="M19.8,39c-0.2,0-0.3,0-0.5,0c-0.1,0-0.3,0-0.5,0c-0.8,0-1.2,0.3-1.4,0.8c0,0.1-0.1,0.3-0.1,0.4v3.1v0v4
		c0,0.1,0,0.3,0.1,0.4c0.2,0.5,0.6,0.7,1.4,0.8c0.2,0,0.3,0,0.5,0c0.1,0,0.3,0,0.5,0c0.8,0,1.2-0.3,1.4-0.8c0-0.1,0.1-0.3,0.1-0.4
		v-4v0v-3.1c0-0.1,0-0.3-0.1-0.4C21,39.3,20.6,39.1,19.8,39"/>
	<path d="M30.1,39c-1.5,0-2.9,0-4.2,0c-0.1,0-0.7,0-0.9,0c-0.8,0-1.2,0.3-1.4,0.8c0,0.1-0.1,0.3-0.1,0.4v7c0,0.1,0,0.3,0.1,0.4
		c0.2,0.5,0.6,0.7,1.4,0.8c0.2,0,0.7,0,0.9,0c1.4,0,2.8,0,4.2,0c4.6,0,8.2-2.1,8.2-4.7c0,0,0,0,0,0v0C38.4,41.1,34.7,39,30.1,39
		 M34.3,43.7c0,1.5-1.7,2.5-3.9,2.6c-0.7,0-2.4,0-2.9,0v-5.3c0.5,0,2.2,0,2.9,0C32.6,41.3,34.3,42.2,34.3,43.7L34.3,43.7
		C34.3,43.7,34.3,43.7,34.3,43.7"/>
	<path d="M68.8,46.4c-1.1-0.6-3.2-1.8-3.2-1.8c2.1-0.2,3.4-1.4,3.4-2.8c0-1.7-1.9-2.9-4.6-2.9h-4.3h-2c-0.1,0-0.3,0-0.5,0
		c-0.8,0-1.2,0.3-1.4,0.8c0,0.1-0.1,0.3-0.1,0.4v3.1v0v4c0,0.1,0,0.3,0.1,0.4c0.2,0.5,0.6,0.7,1.4,0.8c0.2,0,0.3,0,0.5,0
		c0.1,0,0.3,0,0.5,0c0.8,0,1.2-0.3,1.4-0.8c0-0.1,0.1-0.3,0.1-0.4v-2.6c0,0,1.5,0.9,3.2,1.9c1,0.6,1.6,1,2.4,1.4
		c0.7,0.4,1.1,0.5,1.6,0.5c1.1,0,2-0.6,2.1-1.3C69.4,46.8,69.2,46.6,68.8,46.4 M63.4,42.9h-3.3V41h3.3c1.1,0,1.6,0.4,1.6,0.9
		C65,42.5,64.5,42.9,63.4,42.9"/>
	<path d="M8.1,41.2c0.5-0.1,1-0.1,1.5-0.1c0.6,0,1.1,0,1.7,0.1c0.4,0.1,1,0.2,1.5,0.3c0.3,0.1,0.6,0.1,0.9,0.1
		c0.5,0,0.8-0.1,1.1-0.3c0.3-0.2,0.4-0.5,0.4-0.8c0-0.3-0.2-0.5-0.5-0.7c-0.4-0.3-1.3-0.6-2.3-0.8c-1.2-0.2-2-0.3-3.2-0.3
		c-1.2,0-2.3,0.1-3.6,0.4c-1.4,0.3-2.8,1-3.7,1.8c-0.9,0.9-1.3,1.8-1.3,2.8c0,1,0.4,1.9,1.3,2.8c0.9,0.8,2.3,1.5,3.7,1.8
		c1.3,0.3,2.4,0.4,3.6,0.4c1.2,0,2-0.1,3.2-0.3c1-0.2,1.9-0.5,2.3-0.8c0.3-0.2,0.5-0.4,0.5-0.7c0-0.2-0.1-0.5-0.4-0.8
		c-0.3-0.3-0.6-0.3-1.1-0.3c-0.2,0-0.5,0-0.9,0.1c-0.4,0.1-1.1,0.2-1.5,0.3c-0.6,0.1-1.2,0.1-1.7,0.1c-0.5,0-1,0-1.5-0.1
		c-1.3-0.2-2.3-0.7-2.9-1.4h6.2c0.1,0,0.3,0,0.4,0c0.2,0,0.3-0.1,0.5-0.2c0.3-0.2,0.5-0.5,0.5-0.9c0-0.4-0.2-0.8-0.5-0.9
		c-0.2-0.1-0.3-0.2-0.5-0.2c-0.1,0-0.3,0-0.4,0H5.2C5.8,41.9,6.9,41.4,8.1,41.2"/>
</g>
</svg>
