<?xml version="1.0" encoding="utf-8"?>
<!-- Generator: Adobe Illustrator 24.2.1, SVG Export Plug-In . SVG Version: 6.00 Build 0)  -->
<svg version="1.1" id="레이어_1" xmlns="http://www.w3.org/2000/svg" xmlns:xlink="http://www.w3.org/1999/xlink" x="0px"
	 y="0px" width="70px" height="70px" viewBox="0 0 70 70" style="enable-background:new 0 0 70 70;" xml:space="preserve">
<style type="text/css">
	.st0{fill:#231815;}
</style>
<g>
	<g>
		<g>
			<polygon class="st0" points="30.5,17.9 30.5,17.9 30.5,17.9 			"/>
			<polygon class="st0" points="30.5,20.6 30.5,20.6 30.5,20.6 			"/>
			<path class="st0" d="M38.5,13.5v0.4c0.1,0,0.2,0,0.3,0c1.2,0.2,2.3,0.5,2.7,0.8c0.3,0.2,0.6,0.5,0.6,0.8c0,0.3-0.1,0.6-0.4,0.9
				c-0.3,0.3-0.7,0.4-1.3,0.4c-0.3,0-0.6,0-1-0.1c-0.2-0.1-0.5-0.1-0.8-0.2c-0.3-0.1-0.7-0.1-0.9-0.2c-0.7-0.1-1.4-0.2-2-0.1
				c-0.6,0-1.1,0-1.7,0.1c-0.9,0.1-1.8,0.4-2.5,0.8c-0.4,0.2-0.7,0.5-0.9,0.8l7.2,0c0.1,0,0.3,0,0.5,0c0.1,0,0.3,0,0.4,0.1
				c0.1,0,0.2,0.1,0.3,0.1c0.3,0.2,0.6,0.6,0.6,1.1c0,0.5-0.2,0.9-0.6,1.1c-0.1,0.1-0.2,0.1-0.3,0.1c-0.1,0-0.2,0.1-0.4,0.1
				c-0.1,0-0.4,0-0.5,0l-7.2,0c0.2,0.3,0.5,0.5,0.9,0.8c0.7,0.4,1.5,0.7,2.5,0.8c0.6,0.1,1.2,0.1,1.7,0.1c0.7,0,1.3-0.1,2-0.1
				c0.2,0,0.6-0.1,0.9-0.2c0.3-0.1,0.6-0.1,0.8-0.2c0.4-0.1,0.7-0.1,1-0.1c0.6,0,1,0.1,1.3,0.4c0.3,0.3,0.4,0.6,0.4,0.9
				c0,0.3-0.2,0.6-0.6,0.8c-0.5,0.3-1.6,0.6-2.7,0.8c-0.1,0-0.2,0-0.3,0v0.4c5.8-0.7,10.2-2.9,10.2-5.7
				C48.7,16.4,44.3,14.1,38.5,13.5z"/>
		</g>
		<path class="st0" d="M26.7,22.4c-1.1-1-1.5-2.1-1.5-3.2c0-1.1,0.4-2.2,1.5-3.2c1-1,2.6-1.7,4.3-2.1c0.2,0,0.3-0.1,0.4-0.1v-0.4
			c-5.8,0.7-10.1,3-10.1,5.7c0,2.7,4.3,5.1,10.1,5.7v-0.4c-0.1,0-0.3-0.1-0.4-0.1C29.3,24.1,27.7,23.4,26.7,22.4z"/>
	</g>
	<g>
		<path class="st0" d="M19.8,31c-0.2,0-0.3,0-0.5,0c-0.1,0-0.3,0-0.5,0c-0.8,0-1.2,0.3-1.4,0.8c0,0.1-0.1,0.3-0.1,0.4v3.1v0v4
			c0,0.1,0,0.3,0.1,0.4c0.2,0.5,0.6,0.7,1.4,0.8c0.2,0,0.3,0,0.5,0c0.1,0,0.3,0,0.5,0c0.8,0,1.2-0.3,1.4-0.8c0-0.1,0.1-0.3,0.1-0.4
			v-4v0v-3.1c0-0.1,0-0.3-0.1-0.4C21.1,31.3,20.6,31,19.8,31z"/>
		<path class="st0" d="M30.2,31c-1.4,0-2.9,0-4.2,0c-0.1,0-0.7,0-0.8,0c-0.8,0-1.2,0.3-1.4,0.8c0,0.1-0.1,0.3-0.1,0.4v7
			c0,0.1,0,0.3,0.1,0.4c0.2,0.5,0.6,0.7,1.4,0.8c0.2,0,0.7,0,0.8,0c1.4,0,2.8,0,4.2,0c4.6,0,8.2-2,8.2-4.7c0,0,0,0,0,0c0,0,0,0,0,0
			C38.3,33,34.7,31,30.2,31z M34.3,35.7c0,1.5-1.7,2.5-3.9,2.6c-0.7,0-2.4,0-2.9,0v-5.2c0.5,0,2.2,0,2.9,0
			C32.6,33.2,34.3,34.2,34.3,35.7C34.3,35.7,34.3,35.7,34.3,35.7C34.3,35.7,34.3,35.7,34.3,35.7z"/>
		<g>
			<path class="st0" d="M46.9,33.1c0.5-0.1,1-0.1,1.5-0.1c0.6,0,1.1,0,1.7,0.1c0.4,0.1,1,0.2,1.5,0.3c0.3,0.1,0.6,0.1,0.9,0.1
				c0.5,0,0.8-0.1,1.1-0.3c0.3-0.2,0.4-0.5,0.4-0.7c0-0.3-0.2-0.5-0.5-0.7c-0.4-0.3-1.3-0.6-2.3-0.8c-1.2-0.2-1.9-0.3-3.1-0.3
				c-1.2,0-2.3,0.1-3.6,0.4c-1.4,0.3-2.8,1-3.7,1.8c-0.9,0.9-1.3,1.8-1.3,2.7c0,1,0.4,1.9,1.3,2.7c0.9,0.8,2.3,1.5,3.7,1.8
				c1.3,0.3,2.4,0.4,3.6,0.4c1.2,0,2-0.1,3.1-0.3c1-0.2,1.9-0.5,2.3-0.8c0.3-0.2,0.5-0.4,0.5-0.7c0-0.2-0.1-0.5-0.4-0.7
				c-0.3-0.3-0.6-0.3-1.1-0.3c-0.2,0-0.5,0-0.9,0.1c-0.4,0.1-1.1,0.2-1.5,0.3c-0.6,0.1-1.2,0.1-1.7,0.1c-0.5,0-1,0-1.5-0.1
				c-1.3-0.2-2.3-0.7-2.9-1.4h6.2c0.1,0,0.3,0,0.4,0c0.2,0,0.3-0.1,0.5-0.2c0.3-0.2,0.5-0.5,0.5-0.9c0-0.4-0.2-0.8-0.5-0.9
				c-0.2-0.1-0.3-0.2-0.5-0.2c-0.1,0-0.3,0-0.4,0h-6.2C44.6,33.8,45.7,33.3,46.9,33.1z"/>
			<path class="st0" d="M68.5,38.3c-1-0.6-3.2-1.8-3.2-1.8c2.1-0.2,3.3-1.4,3.3-2.8c0-1.7-1.9-2.8-4.6-2.8h-4.3h-1.9
				c-0.1,0-0.3,0-0.5,0c-0.8,0-1.2,0.3-1.4,0.8c0,0.1-0.1,0.3-0.1,0.4v3.1v0v4c0,0.1,0,0.3,0.1,0.4c0.2,0.5,0.6,0.7,1.4,0.8
				c0.2,0,0.3,0,0.5,0c0.1,0,0.3,0,0.5,0c0.8,0,1.2-0.3,1.4-0.8c0-0.1,0.1-0.3,0.1-0.4v-2.6c0,0,1.5,0.9,3.2,1.9
				c1,0.6,1.6,1,2.4,1.4c0.7,0.4,1.1,0.5,1.6,0.5c1.1,0,1.9-0.6,2.1-1.3C69.1,38.7,68.9,38.5,68.5,38.3z M63.1,34.8h-3.3V33h3.3
				c1.1,0,1.6,0.4,1.6,0.9C64.7,34.4,64.1,34.8,63.1,34.8z"/>
		</g>
		<path class="st0" d="M8.5,33.1C9,33.1,9.5,33,9.9,33c0.6,0,1.1,0,1.7,0.1c0.4,0.1,1,0.2,1.5,0.3c0.3,0.1,0.6,0.1,0.9,0.1
			c0.5,0,0.8-0.1,1.1-0.3c0.3-0.2,0.4-0.5,0.4-0.7c0-0.3-0.2-0.5-0.5-0.7c-0.4-0.3-1.3-0.6-2.3-0.8c-1.2-0.2-1.9-0.3-3.1-0.3
			c-1.2,0-2.3,0.1-3.6,0.4c-1.4,0.3-2.8,1-3.7,1.8C1.4,33.8,1,34.7,1,35.7c0,1,0.4,1.9,1.3,2.7c0.9,0.8,2.3,1.5,3.7,1.8
			c1.3,0.3,2.4,0.4,3.6,0.4c1.2,0,2-0.1,3.1-0.3c1-0.2,1.9-0.5,2.3-0.8c0.3-0.2,0.5-0.4,0.5-0.7c0-0.2-0.1-0.5-0.4-0.7
			c-0.3-0.3-0.6-0.3-1.1-0.3c-0.2,0-0.5,0-0.9,0.1c-0.4,0.1-1.1,0.2-1.5,0.3c-0.6,0.1-1.2,0.1-1.7,0.1c-0.5,0-1,0-1.5-0.1
			c-1.3-0.2-2.3-0.7-2.9-1.4h6.2c0.1,0,0.3,0,0.4,0c0.2,0,0.3-0.1,0.5-0.2c0.3-0.2,0.5-0.5,0.5-0.9c0-0.4-0.2-0.8-0.5-0.9
			c-0.2-0.1-0.3-0.2-0.5-0.2c-0.1,0-0.3,0-0.4,0H5.6C6.2,33.8,7.2,33.3,8.5,33.1z"/>
	</g>
	<g>
		<path class="st0" d="M18.2,55.3c0-0.1,0.1-0.2,0.3-0.1c0.3,0.1,0.7,0.2,1,0.2c0.8,0,1.2-0.5,1.2-1.1c0-0.6-0.4-1-1-1.5
			c-0.9-0.6-1.5-1.4-1.5-2.2c0-1.3,0.9-2.2,2.3-2.2c0.4,0,0.8,0.1,1,0.2c0.1,0,0.1,0.1,0.1,0.2l-0.1,0.7c0,0.1-0.2,0.2-0.3,0.1
			c-0.2-0.1-0.5-0.2-0.8-0.2c-0.7,0-1.1,0.5-1.1,1c0,0.6,0.3,0.9,1.1,1.4c1,0.7,1.4,1.4,1.4,2.3c0,1.4-1,2.3-2.5,2.3
			c-0.5,0-1-0.1-1.3-0.3c-0.1,0-0.1-0.1-0.1-0.2L18.2,55.3z"/>
		<path class="st0" d="M25.2,54.5l-0.4,1.8c0,0.1-0.1,0.1-0.1,0.1h-0.9c-0.1,0-0.2-0.1-0.2-0.2l1.7-7.6c0-0.1,0.1-0.2,0.2-0.2h1.1
			c0.1,0,0.2,0.1,0.2,0.2l1.6,7.6c0,0.1-0.1,0.2-0.2,0.2h-0.9c-0.1,0-0.1,0-0.1-0.1l-0.4-1.8c0-0.1-0.1-0.2-0.2-0.2h-1.2
			C25.3,54.4,25.2,54.4,25.2,54.5z M26,50.5l-0.6,2.8c0,0.1,0,0.1,0.1,0.1h1.1c0.1,0,0.1,0,0.1-0.1l-0.6-2.8
			C26.1,50.4,26,50.4,26,50.5z"/>
		<path class="st0" d="M30.8,48.4h2.9c0.1,0,0.2,0.1,0.2,0.2v0.8c0,0.1-0.1,0.2-0.2,0.2h-1.7c-0.1,0-0.2,0.1-0.2,0.2v2
			c0,0.1,0.1,0.2,0.2,0.2h1.5c0.1,0,0.2,0.1,0.2,0.2v0.7c0,0.1-0.1,0.2-0.2,0.2h-1.5c-0.1,0-0.2,0.1-0.2,0.2v3.1
			c0,0.1-0.1,0.2-0.2,0.2h-0.9c-0.1,0-0.2-0.1-0.2-0.2v-7.7C30.7,48.5,30.7,48.4,30.8,48.4z"/>
		<path class="st0" d="M39.2,52.8h-1.6c-0.1,0-0.2,0.1-0.2,0.2v2.2c0,0.1,0.1,0.2,0.2,0.2h1.8c0.1,0,0.2,0.1,0.2,0.2v0.8
			c0,0.1-0.1,0.2-0.2,0.2h-3.1c-0.1,0-0.2-0.1-0.2-0.2v-7.7c0-0.1,0.1-0.2,0.2-0.2h2.9c0.1,0,0.2,0.1,0.2,0.2v0.8
			c0,0.1-0.1,0.2-0.2,0.2h-1.7c-0.1,0-0.2,0.1-0.2,0.2v1.9c0,0.1,0.1,0.2,0.2,0.2h1.6c0.1,0,0.2,0.1,0.2,0.2v0.7
			C39.4,52.7,39.3,52.8,39.2,52.8z"/>
		<path class="st0" d="M42.6,49.6h-1.1c-0.1,0-0.2-0.1-0.2-0.2v-0.8c0-0.1,0.1-0.2,0.2-0.2h3.8c0.1,0,0.2,0.1,0.2,0.2v0.8
			c0,0.1-0.1,0.2-0.2,0.2h-1.1c-0.1,0-0.2,0.1-0.2,0.2v6.5c0,0.1-0.1,0.2-0.2,0.2H43c-0.1,0-0.2-0.1-0.2-0.2v-6.5
			C42.8,49.7,42.7,49.6,42.6,49.6z"/>
		<path class="st0" d="M50.8,48.4h1c0.1,0,0.2,0.1,0.1,0.2l-1.7,4.5c0,0.1,0,0.1,0,0.2v3c0,0.1-0.1,0.2-0.2,0.2h-0.9
			c-0.1,0-0.2-0.1-0.2-0.2v-3c0-0.1,0-0.1,0-0.2l-1.7-4.5c0-0.1,0-0.2,0.1-0.2h1.1c0.1,0,0.1,0,0.1,0.1l1.1,3.3c0,0,0.1,0,0.1,0
			l1-3.3C50.7,48.5,50.7,48.4,50.8,48.4z"/>
	</g>
</g>
</svg>
