<svg width="16" height="18" viewBox="0 0 16 18" fill="none" xmlns="http://www.w3.org/2000/svg">
<path fill-rule="evenodd" clip-rule="evenodd" d="M11.8519 0.912226V3.42598H14.9997C15.5502 3.42598 16 3.83567 16 4.33712V17.0889C16 17.5903 15.5502 18 14.9997 18H1.0003C0.449778 18 0 17.5903 0 17.0889V4.33712C0 3.83567 0.449778 3.42598 1.0003 3.42598H4.14815V0.911146C4.14815 0.410232 4.59852 0 5.14844 0H10.8516C11.4015 0 11.8519 0.410232 11.8519 0.912226ZM6.14819 3.42595H9.85131V1.82173H6.14819V3.42595ZM14 16.1782H2V5.24772H4.14815V6.64629C4.14815 7.1472 4.59852 7.5569 5.14844 7.5569C5.69837 7.5569 6.14815 7.1472 6.14815 6.64629V5.24772H9.85185V6.64629C9.85185 7.1472 10.3016 7.5569 10.8516 7.5569C11.4015 7.5569 11.8519 7.1472 11.8519 6.64629V5.24772H14V16.1782Z" fill="white"/>
</svg>
