<svg width="20" height="17" viewBox="0 0 20 17" fill="none" xmlns="http://www.w3.org/2000/svg">
<mask id="path-1-outside-1_2068_16499" maskUnits="userSpaceOnUse" x="0" y="0" width="20" height="17" fill="black">
<rect fill="white" width="20" height="17"/>
<path fill-rule="evenodd" clip-rule="evenodd" d="M3.721 8.837L10 14.987L16.314 8.845C16.335 8.82 16.357 8.796 16.381 8.774C17.13 8.078 17.542 7.136 17.542 6.123C17.542 4.125 15.917 2.5 13.919 2.5C12.549 2.5 11.312 3.262 10.69 4.489C10.562 4.741 10.304 4.899 10.021 4.899C9.738 4.899 9.48 4.741 9.352 4.488C8.73 3.262 7.492 2.5 6.122 2.5C4.125 2.5 2.5 4.125 2.5 6.123C2.5 7.136 2.912 8.078 3.66 8.774C3.682 8.794 3.702 8.815 3.721 8.837M9.998 16.785C9.808 16.785 9.619 16.713 9.473 16.57L2.62 9.858C2.608 9.846 2.596 9.833 2.584 9.82C1.576 8.855 1 7.512 1 6.123C1 3.298 3.298 1 6.122 1C7.651 1 9.061 1.669 10.021 2.802C10.981 1.669 12.391 1 13.919 1C16.744 1 19.042 3.298 19.042 6.123C19.042 7.506 18.47 8.845 17.47 9.809C17.454 9.827 17.438 9.844 17.421 9.86L10.521 16.572C10.375 16.714 10.186 16.785 9.998 16.785"/>
</mask>
<path fill-rule="evenodd" clip-rule="evenodd" d="M3.721 8.837L10 14.987L16.314 8.845C16.335 8.82 16.357 8.796 16.381 8.774C17.13 8.078 17.542 7.136 17.542 6.123C17.542 4.125 15.917 2.5 13.919 2.5C12.549 2.5 11.312 3.262 10.69 4.489C10.562 4.741 10.304 4.899 10.021 4.899C9.738 4.899 9.48 4.741 9.352 4.488C8.73 3.262 7.492 2.5 6.122 2.5C4.125 2.5 2.5 4.125 2.5 6.123C2.5 7.136 2.912 8.078 3.66 8.774C3.682 8.794 3.702 8.815 3.721 8.837M9.998 16.785C9.808 16.785 9.619 16.713 9.473 16.57L2.62 9.858C2.608 9.846 2.596 9.833 2.584 9.82C1.576 8.855 1 7.512 1 6.123C1 3.298 3.298 1 6.122 1C7.651 1 9.061 1.669 10.021 2.802C10.981 1.669 12.391 1 13.919 1C16.744 1 19.042 3.298 19.042 6.123C19.042 7.506 18.47 8.845 17.47 9.809C17.454 9.827 17.438 9.844 17.421 9.86L10.521 16.572C10.375 16.714 10.186 16.785 9.998 16.785" fill="white"/>
<path d="M10 14.987L9.86005 15.1299L9.99952 15.2665L10.1395 15.1304L10 14.987ZM16.314 8.845L16.4535 8.98836L16.4607 8.98134L16.4671 8.97364L16.314 8.845ZM16.381 8.774L16.5161 8.92143L16.5171 8.92051L16.381 8.774ZM10.69 4.489L10.8683 4.57957L10.8684 4.57943L10.69 4.489ZM9.352 4.488L9.53046 4.39771L9.53036 4.39751L9.352 4.488ZM3.66 8.774L3.52375 8.92043L3.52547 8.92199L3.66 8.774ZM9.473 16.57L9.61295 16.4271L9.61294 16.4271L9.473 16.57ZM2.62 9.858L2.47857 9.99943L2.48006 10.0009L2.62 9.858ZM2.584 9.82L2.73124 9.68408L2.72231 9.67553L2.584 9.82ZM10.021 2.802L9.86841 2.93129L10.021 3.11138L10.1736 2.93129L10.021 2.802ZM17.47 9.809L17.3312 9.66501L17.3256 9.67036L17.3205 9.67613L17.47 9.809ZM17.421 9.86L17.2839 9.71434L17.2815 9.71664L17.421 9.86ZM10.521 16.572L10.6604 16.7154L10.6605 16.7154L10.521 16.572ZM3.58105 8.97988L9.86005 15.1299L10.1399 14.8441L3.86095 8.69412L3.58105 8.97988ZM10.1395 15.1304L16.4535 8.98836L16.1745 8.70164L9.86055 14.8436L10.1395 15.1304ZM16.4671 8.97364C16.4846 8.95286 16.5005 8.93575 16.5161 8.92143L16.2459 8.62657C16.2135 8.65625 16.1854 8.68714 16.1609 8.71636L16.4671 8.97364ZM16.5171 8.92051C17.3065 8.18699 17.742 7.19206 17.742 6.123H17.342C17.342 7.07994 16.9535 7.96901 16.2449 8.62749L16.5171 8.92051ZM17.742 6.123C17.742 4.01454 16.0275 2.3 13.919 2.3V2.7C15.8065 2.7 17.342 4.23546 17.342 6.123H17.742ZM13.919 2.3C12.4732 2.3 11.1675 3.10471 10.5116 4.39857L10.8684 4.57943C11.4565 3.41929 12.6248 2.7 13.919 2.7V2.3ZM10.5117 4.39843C10.4179 4.5831 10.2289 4.699 10.021 4.699V5.099C10.3791 5.099 10.7061 4.8989 10.8683 4.57957L10.5117 4.39843ZM10.021 4.699C9.8132 4.699 9.62432 4.58323 9.53046 4.39771L9.17354 4.57829C9.33568 4.89877 9.6628 5.099 10.021 5.099V4.699ZM9.53036 4.39751C8.87443 3.10463 7.56767 2.3 6.122 2.3V2.7C7.41633 2.7 8.58557 3.41937 9.17364 4.57849L9.53036 4.39751ZM6.122 2.3C4.01451 2.3 2.3 4.01458 2.3 6.123H2.7C2.7 4.23542 4.23549 2.7 6.122 2.7V2.3ZM2.3 6.123C2.3 7.19204 2.73547 8.18693 3.52376 8.92042L3.79624 8.62758C3.08853 7.96907 2.7 7.07996 2.7 6.123H2.3ZM3.52547 8.92199C3.54048 8.93564 3.5549 8.95066 3.56964 8.96772L3.87236 8.70628C3.8491 8.67934 3.82351 8.65236 3.79453 8.62601L3.52547 8.92199ZM9.998 16.585C9.85878 16.585 9.72048 16.5324 9.61295 16.4271L9.33305 16.7129C9.51752 16.8936 9.75722 16.985 9.998 16.985V16.585ZM9.61294 16.4271L2.75994 9.71512L2.48006 10.0009L9.33306 16.7129L9.61294 16.4271ZM2.76142 9.71658C2.75275 9.70791 2.7435 9.69793 2.73096 9.68434L2.43704 9.95566C2.4485 9.96807 2.46325 9.98409 2.47858 9.99942L2.76142 9.71658ZM2.72231 9.67553C1.75344 8.748 1.2 7.45707 1.2 6.123H0.8C0.8 7.56693 1.39856 8.962 2.44569 9.96447L2.72231 9.67553ZM1.2 6.123C1.2 3.40843 3.40848 1.2 6.122 1.2V0.8C3.18752 0.8 0.8 3.18757 0.8 6.123H1.2ZM6.122 1.2C7.59172 1.2 8.94609 1.84276 9.86841 2.93129L10.1736 2.67271C9.17591 1.49524 7.71028 0.8 6.122 0.8V1.2ZM10.1736 2.93129C11.0959 1.84275 12.4503 1.2 13.919 1.2V0.8C12.3317 0.8 10.8661 1.49525 9.86841 2.67271L10.1736 2.93129ZM13.919 1.2C16.6335 1.2 18.842 3.40846 18.842 6.123H19.242C19.242 3.18754 16.8545 0.8 13.919 0.8V1.2ZM18.842 6.123C18.842 7.45128 18.2924 8.73842 17.3312 9.66501L17.6088 9.95299C18.6476 8.95158 19.242 7.56073 19.242 6.123H18.842ZM17.3205 9.67613C17.3068 9.6915 17.2951 9.70381 17.2839 9.71436L17.5581 10.0056C17.5809 9.98419 17.6011 9.9625 17.6195 9.94187L17.3205 9.67613ZM17.2815 9.71664L10.3815 16.4286L10.6605 16.7154L17.5605 10.0034L17.2815 9.71664ZM10.3816 16.4286C10.2742 16.5331 10.1357 16.585 9.998 16.585V16.985C10.2363 16.985 10.4758 16.8949 10.6604 16.7154L10.3816 16.4286Z" fill="white" mask="url(#path-1-outside-1_2068_16499)"/>
</svg>
