<svg width="30" height="30" viewBox="0 0 30 30" fill="none" xmlns="http://www.w3.org/2000/svg">
<path fill-rule="evenodd" clip-rule="evenodd" d="M20.4391 4.65545C23.3878 5.8717 25.6803 8.15795 26.8941 11.0942C28.1003 14.013 28.0941 17.2267 26.8766 20.143C24.9766 24.6942 20.5316 27.4467 15.8566 27.4467C14.3378 27.4467 12.7953 27.1567 11.3078 26.5417C8.96032 25.573 7.02282 23.9242 5.70407 21.7742C5.43407 21.3317 5.57282 20.7555 6.01407 20.4842C6.45657 20.2155 7.03282 20.353 7.30407 20.7942C8.41282 22.6042 10.0453 23.993 12.0228 24.8092C17.1378 26.918 23.0241 24.5017 25.1466 19.4205C26.1703 16.968 26.1766 14.2655 25.1616 11.8105C24.1403 9.3392 22.2091 7.41295 19.7241 6.38795C14.6103 4.27795 8.72282 6.69545 6.59907 11.7767C6.23782 12.643 6.01907 13.538 5.91157 14.448L7.90782 12.9105C8.31782 12.5942 8.90532 12.6717 9.22282 13.0805C9.53782 13.4905 9.46157 14.0805 9.05282 14.3967L5.49532 17.1367C5.47189 17.1553 5.44586 17.1671 5.41992 17.1788C5.40571 17.1853 5.39153 17.1917 5.37782 17.1992C5.36407 17.2071 5.35087 17.2159 5.33768 17.2246C5.31129 17.2421 5.2849 17.2596 5.25407 17.2705C5.25157 17.2717 5.24876 17.272 5.24594 17.2723C5.24313 17.2726 5.24032 17.273 5.23782 17.2742C5.20286 17.2871 5.16722 17.2925 5.1314 17.298C5.11856 17.2999 5.10569 17.3019 5.09282 17.3042C5.07917 17.3068 5.0656 17.3097 5.0521 17.3127C5.01367 17.321 4.97574 17.3292 4.93782 17.3292C4.93532 17.3292 4.93282 17.3298 4.93032 17.3305C4.92782 17.3311 4.92532 17.3317 4.92282 17.3317C4.91603 17.3317 4.90962 17.3295 4.90317 17.3273C4.89774 17.3254 4.89228 17.3235 4.88657 17.323C4.77532 17.3192 4.67032 17.293 4.56782 17.2517C4.53657 17.2392 4.50782 17.2255 4.47907 17.2092C4.37032 17.1505 4.27032 17.0767 4.19032 16.9755C4.18873 16.9739 4.18714 16.9727 4.18564 16.9717C4.18361 16.9702 4.18176 16.9689 4.18032 16.9667C4.17907 16.9667 4.17907 16.9655 4.17907 16.9642C4.17859 16.9637 4.17811 16.9634 4.17771 16.9632C4.17705 16.9628 4.17657 16.9625 4.17657 16.9617L1.44157 13.3655C1.12782 12.9542 1.20782 12.3655 1.62032 12.0517C2.03157 11.7392 2.62032 11.818 2.93407 12.2305L4.09782 13.7617C4.24407 12.8405 4.50157 11.9355 4.86907 11.0542C7.38907 5.02295 14.3728 2.15045 20.4391 4.65545ZM13.7502 10.4496C13.7502 9.93208 14.1702 9.51208 14.6877 9.51208C15.2052 9.51208 15.6252 9.93208 15.6252 10.4496V14.6871L18.9977 17.1971C19.4127 17.5071 19.4989 18.0946 19.1902 18.5096C19.0064 18.7571 18.7239 18.8871 18.4377 18.8871C18.2427 18.8871 18.0464 18.8271 17.8777 18.7021L14.1277 15.9108C13.8902 15.7333 13.7502 15.4546 13.7502 15.1583V10.4496Z" fill="#333333"/>
</svg>
