<svg width="48" height="48" xmlns="http://www.w3.org/2000/svg">
    <defs>
        <path id="a" d="M0 0h34v36H0z"/>
    </defs>
    <g fill="none" fill-rule="evenodd">
        <path fill="#888" d="M14.996 36h1.499V4h-1.5z"/>
        <path fill="#888" d="M27.822 31.25v1.5h7.188l4.994 9.495-32.512.005 5.032-9.5h7.303v-1.5H11.62L5 43.75l37.487-.004-6.57-12.496z"/>
        <path d="M23.746 28.05a2.953 2.953 0 0 0-2.95 2.95 2.953 2.953 0 0 0 2.95 2.95 2.954 2.954 0 0 0 2.95-2.95 2.954 2.954 0 0 0-2.95-2.95m0 7.4a4.455 4.455 0 0 1-4.45-4.45 4.455 4.455 0 0 1 4.45-4.45 4.455 4.455 0 0 1 4.45 4.45 4.455 4.455 0 0 1-4.45 4.45" fill="#FF5B37"/>
        <path fill="#888" d="m15.98 20.713-.468-1.426 17.612-5.781-17.608-5.69.46-1.428 21.99 7.106z"/>
    </g>
</svg>
