<svg width="48" height="48" xmlns="http://www.w3.org/2000/svg">
    <g fill="none" fill-rule="evenodd">
        <path fill="#FF5B37" d="M29.03 29.5h9.64V28h-9.64zM9.75 29.5h9.64v-1.499H9.75z"/>
        <path d="m14.821 4-3.468 4.002v10.922L9 22.112V43.5h16.489V18.394l-5.837-4.156V4h-4.831zM10.5 22.606l2.354-3.188V8.56l2.653-3.06h2.645v9.512l5.837 4.155V42H10.5V22.606z" fill="#888"/>
        <path fill="#888" d="M29.297 4v10.26l-5.02 3.929.924 1.182 5.596-4.381V5.5h2.645l2.654 3.061v10.857l2.354 3.188V42H24.738v1.5H39.95V22.112l-2.354-3.188V8.001L34.129 4z"/>
        <path fill="#888" d="M18.902 8.031h11.146v-1.5H18.902z"/>
    </g>
</svg>
