<?xml version="1.0" encoding="utf-8"?>
<!-- Generator: Adobe Illustrator 24.2.1, SVG Export Plug-In . SVG Version: 6.00 Build 0)  -->
<svg version="1.1" id="레이어_1" xmlns="http://www.w3.org/2000/svg" xmlns:xlink="http://www.w3.org/1999/xlink" x="0px"
	 y="0px" width="24px" height="24px" viewBox="0 0 24 24" style="enable-background:new 0 0 24 24;" xml:space="preserve">
<style type="text/css">
	.st0{fill:#333333;}
</style>
<g id="매거진">
	<g id="M_ET_01-" transform="translate(-284.000000, -106.000000)">
		<g id="top_bar_white" transform="translate(0.000000, 93.000000)">
			<g id="Icons_x2F_24px_x2F_Search" transform="translate(284.000000, 13.000000)">
				<path id="Combined-Shape" class="st0" d="M11,3c4.4,0,8,3.6,8,8c0,1.8-0.6,3.6-1.7,4.9l3.4,3.4c0.4,0.4,0.4,1,0,1.4
					c-0.4,0.4-1,0.4-1.4,0l0,0l-3.4-3.4C14.6,18.4,12.8,19,11,19c-4.4,0-8-3.6-8-8S6.6,3,11,3z M11,5c-3.3,0-6,2.7-6,6s2.7,6,6,6
					s6-2.7,6-6S14.3,5,11,5z"/>
			</g>
		</g>
	</g>
</g>
</svg>
