<?xml version="1.0" encoding="UTF-8"?>
<svg width="21px" height="20px" viewBox="0 0 21 20" version="1.1" xmlns="http://www.w3.org/2000/svg" xmlns:xlink="http://www.w3.org/1999/xlink">
    <title>C8BB7E33-43B5-47CF-ACD7-F0A9F83E307C</title>
    <g id="Product_detail" stroke="none" stroke-width="1" fill="none" fill-rule="evenodd">
        <g id="M_PD_01" transform="translate(-122.000000, -9781.000000)" fill="#020303">
            <g id="바로구매" transform="translate(0.000000, 9734.000000)">
                <path d="M139.528912,65.3335625 C138.608908,65.3335625 137.862238,64.5877198 137.862238,63.666875 C137.862238,62.7468635 138.608908,62.0001875 139.528912,62.0001875 C140.448915,62.0001875 141.195585,62.7468635 141.195585,63.666875 C141.195585,64.5877198 140.448915,65.3335625 139.528912,65.3335625 M126.195523,58.6668125 C125.275519,58.6668125 124.528849,57.9209698 124.528849,57.000125 C124.528849,56.0801135 125.275519,55.3334375 126.195523,55.3334375 C127.115527,55.3334375 127.862196,56.0801135 127.862196,57.000125 C127.862196,57.9209698 127.115527,58.6668125 126.195523,58.6668125 M139.528912,48.6666875 C140.448915,48.6666875 141.195585,49.4133635 141.195585,50.333375 C141.195585,51.2542198 140.448915,52.0000625 139.528912,52.0000625 C138.608908,52.0000625 137.862238,51.2542198 137.862238,50.333375 C137.862238,49.4133635 138.608908,48.6666875 139.528912,48.6666875 M139.528912,60.3335 C138.413907,60.3335 137.432236,60.8868403 136.827234,61.7276841 L129.497203,57.3117956 C129.508037,57.2076276 129.52887,57.106793 129.52887,57.000125 C129.52887,56.9117906 129.509703,56.8276228 129.503037,56.7401218 L136.873901,52.3300666 C137.48307,53.1375767 138.43974,53.66675 139.528912,53.66675 C141.369753,53.66675 142.862259,52.1742313 142.862259,50.333375 C142.862259,48.4925187 141.369753,47 139.528912,47 C137.688071,47 136.195564,48.4925187 136.195564,50.333375 C136.195564,50.442543 136.217231,50.5458777 136.228065,50.6525457 L128.8272,54.975933 C128.218031,54.1850898 127.271361,53.66675 126.195523,53.66675 C124.354682,53.66675 122.862176,55.1592687 122.862176,57.000125 C122.862176,58.8409813 124.354682,60.3335 126.195523,60.3335 C127.303027,60.3335 128.276365,59.7876598 128.883034,58.9568161 L136.232231,63.3035371 C136.218898,63.4252053 136.195564,63.5427068 136.195564,63.666875 C136.195564,65.5077313 137.688071,67.00025 139.528912,67.00025 C141.369753,67.00025 142.862259,65.5077313 142.862259,63.666875 C142.862259,61.8260187 141.369753,60.3335 139.528912,60.3335" id="icons-/-share"></path>
            </g>
        </g>
    </g>
</svg>