<svg width="55" height="56" viewBox="0 0 55 56" fill="none" xmlns="http://www.w3.org/2000/svg">
<ellipse cx="27.5" cy="28" rx="27.5" ry="28" fill="#333333"/>
<path fill-rule="evenodd" clip-rule="evenodd" d="M17.1216 24.6773C17.5767 24.5862 17.7891 24.1517 17.5959 23.7068C17.2116 22.8217 17.2264 21.901 17.6596 21.1655L19.5344 17.9823C20.3562 16.5869 22.414 16.3086 24.1303 17.3606L32.9396 22.7607C34.6559 23.8127 35.381 25.7971 34.5592 27.1924L32.6844 30.3757C31.8626 31.771 29.8048 32.0494 28.0885 30.9973L24.1733 28.5973C23.7273 28.3239 23.1926 28.3962 22.9791 28.7588C22.7655 29.1214 22.9539 29.637 23.3999 29.9104L27.3152 32.3104C29.9234 33.9092 33.0505 33.4862 34.2995 31.3657L36.1743 28.1824C37.4232 26.0619 36.3212 23.0464 33.713 21.4476L24.9036 16.0475C22.2954 14.4487 19.1683 14.8717 17.9193 16.9923L16.0445 20.1755C15.3871 21.2918 15.3645 22.694 15.9476 24.0367C16.1408 24.4815 16.6664 24.7684 17.1216 24.6773ZM37.8793 31.3219C37.4242 31.413 37.2118 31.8475 37.405 32.2924C37.7893 33.1775 37.7745 34.0982 37.3413 34.8337L35.4665 38.0169C34.6447 39.4123 32.5869 39.6906 30.8706 38.6386L22.0613 33.2385C20.345 32.1865 19.6199 30.2021 20.4417 28.8068L22.3165 25.6236C23.1383 24.2282 25.1961 23.9499 26.9124 25.0019L30.8276 27.4019C31.2736 27.6753 31.8083 27.603 32.0219 27.2404C32.2354 26.8778 32.047 26.3622 31.601 26.0889L27.6857 23.6888C25.0775 22.09 21.9504 22.513 20.7014 24.6335L18.8266 27.8168C17.5777 29.9373 18.6797 32.9528 21.2879 34.5516L30.0973 39.9517C32.7055 41.5505 35.8326 41.1275 37.0816 39.0069L38.9564 35.8237C39.6138 34.7075 39.6364 33.3053 39.0533 31.9626C38.8601 31.5177 38.3345 31.2309 37.8793 31.3219Z" fill="white"/>
</svg>
