<svg width="48" height="48" viewBox="0 0 48 48" fill="none" xmlns="http://www.w3.org/2000/svg">
<path fill-rule="evenodd" clip-rule="evenodd" d="M25.466 29L24 28.3515L31.534 15L33 15.6485L25.466 29Z" fill="#888888"/>
<path fill-rule="evenodd" clip-rule="evenodd" d="M28 16H35V15H28V16Z" fill="#888888"/>
<path fill-rule="evenodd" clip-rule="evenodd" d="M23.6618 27.566H37.1488L30.2543 18.434H16.8344L23.6618 27.566ZM40 29H22.9721L14 17H30.9403L40 29Z" fill="#FF5B37"/>
<path fill-rule="evenodd" clip-rule="evenodd" d="M38.1263 20.7531C34.0085 20.7531 30.6577 24.0837 30.6577 28.1787C30.6577 32.2728 34.0085 35.6034 38.1263 35.6034C42.244 35.6034 45.5948 32.2728 45.5948 28.1787C45.5948 24.0837 42.244 20.7531 38.1263 20.7531M38.1263 37C33.2331 37 29.2529 33.0428 29.2529 28.1787C29.2529 23.3137 33.2331 19.3564 38.1263 19.3564C43.0185 19.3564 46.9996 23.3137 46.9996 28.1787C46.9996 33.0428 43.0185 37 38.1263 37" fill="#888888"/>
<mask id="mask0_46_3673" style="mask-type:alpha" maskUnits="userSpaceOnUse" x="1" y="19" width="18" height="18">
<path fill-rule="evenodd" clip-rule="evenodd" d="M1 19.3564H18.7463V37H1V19.3564Z" fill="white"/>
</mask>
<g mask="url(#mask0_46_3673)">
<path fill-rule="evenodd" clip-rule="evenodd" d="M9.87333 20.7531C5.75554 20.7531 2.40475 24.0837 2.40475 28.1787C2.40475 32.2728 5.75554 35.6034 9.87333 35.6034C13.9911 35.6034 17.3419 32.2728 17.3419 28.1787C17.3419 24.0837 13.9911 20.7531 9.87333 20.7531M9.87333 37C4.98106 37 1 33.0428 1 28.1787C1 23.3137 4.98106 19.3564 9.87333 19.3564C14.7665 19.3564 18.7467 23.3137 18.7467 28.1787C18.7467 33.0428 14.7665 37 9.87333 37" fill="#888888"/>
</g>
<path fill-rule="evenodd" clip-rule="evenodd" d="M10.1713 29.1203L8.9248 28.475L17.3467 12.3967H10.1376L11.5152 14.325L10.3689 15.1341L7.41797 11H19.6627L10.1713 29.1203Z" fill="#888888"/>
</svg>
