<svg width="70" height="70" viewBox="0 0 70 70" fill="none" xmlns="http://www.w3.org/2000/svg">
<path d="M1 26.5181H6.33581L6.21396 32.4103H6.33581C6.45057 31.8471 6.79628 31.364 7.0924 30.8744L9.73197 26.5181H15.7068L10.9915 33.1318L16.2069 40.1071H9.85098L7.2525 35.9955C6.9323 35.4708 6.45199 34.9716 6.33581 34.4101H6.21396L6.33581 40.1071H1V26.5181Z" fill="black"/>
<path d="M13.6338 40.1074L19.6497 35.1863C20.589 34.4152 22.9665 32.465 22.9665 31.2299C22.9665 30.6075 22.4083 30.1244 21.7282 30.1244C20.5692 30.1244 20.4275 31.0267 20.3879 31.8746H15.0322C15.4332 27.8222 17.3898 26 21.928 26C25.0648 26 28.3831 27.675 28.3831 30.9003C28.3831 33.7 25.7435 35.4295 23.0869 36.1862V36.335L25.6656 35.999L28.6013 35.8342V40.1074H13.6338Z" fill="black"/>
<path d="M31.9238 35.1926L34.2389 34.9926C34.2885 35.5125 34.392 35.9077 34.5478 36.1781C34.7986 36.618 35.1599 36.8372 35.626 36.8372C35.9746 36.8372 36.2438 36.7236 36.4294 36.4996C36.6164 36.2741 36.7099 36.0133 36.7099 35.7157C36.7099 35.4358 36.6221 35.1814 36.4464 34.9622C36.2636 34.7366 35.8456 34.527 35.1925 34.3303C34.1228 33.9991 33.3577 33.5591 32.9043 33.0072C32.4481 32.4601 32.2199 31.7577 32.2199 30.9066C32.2199 30.3467 32.3361 29.8203 32.5713 29.3196C32.8065 28.822 33.1579 28.4317 33.6297 28.1485C34.1015 27.8637 34.749 27.7197 35.5708 27.7197C36.5796 27.7197 37.3489 27.9789 37.8802 28.4956C38.4087 29.014 38.7232 29.8363 38.8224 30.9626L36.5186 31.1498C36.4577 30.6602 36.3288 30.3067 36.1347 30.0859C35.9377 29.8651 35.6699 29.7531 35.3271 29.7531C35.0437 29.7531 34.8312 29.8363 34.6881 30.0011C34.545 30.1659 34.4727 30.3691 34.4727 30.6042C34.4727 30.7786 34.5322 30.9338 34.6527 31.073C34.7674 31.217 35.0409 31.3498 35.4716 31.473C36.5342 31.7897 37.2965 32.1097 37.7584 32.4329C38.2203 32.756 38.556 33.1592 38.7657 33.6391C38.9754 34.1191 39.0803 34.655 39.0803 35.2502C39.0803 35.9477 38.94 36.5908 38.6609 37.178C38.3818 37.7683 37.9893 38.2163 37.4878 38.5218C36.9848 38.8258 36.3529 38.9746 35.5878 38.9746C34.246 38.9746 33.3166 38.6178 32.798 37.9075C32.2809 37.1956 31.9904 36.2901 31.9238 35.1926Z" fill="black"/>
<path d="M42.4981 32.7678C42.6781 32.6078 42.9473 32.5262 43.3057 32.5262C43.5877 32.5262 43.7861 32.603 43.8966 32.7518C44.0071 32.9022 44.0609 33.163 44.0609 33.5357C43.7875 33.6845 43.5268 33.8029 43.2831 33.8941C43.038 33.9853 42.5066 34.1453 41.6835 34.3741C40.9977 34.5596 40.5302 34.846 40.2765 35.2316C40.0187 35.6187 39.8926 36.1083 39.8926 36.705C39.8926 37.3434 40.0697 37.8777 40.4225 38.3113C40.7753 38.7464 41.2952 38.9608 41.981 38.9608C42.4939 38.9608 42.9459 38.8536 43.3298 38.636C43.6118 38.4729 43.8994 38.2057 44.1856 37.8249C44.2097 38.0521 44.2352 38.2185 44.2593 38.3241C44.2848 38.4329 44.34 38.588 44.4208 38.7912H46.4809C46.3675 38.4665 46.2924 38.1961 46.2613 37.9881C46.2273 37.7769 46.2117 37.4858 46.2117 37.1162V33.6333C46.2117 33.2622 46.1564 32.8702 46.0487 32.4639C45.9396 32.0559 45.7923 31.7391 45.6053 31.5151C45.3389 31.1936 45.0074 30.9824 44.6078 30.8816C44.2097 30.7792 43.6798 30.728 43.0224 30.728C42.6115 30.728 42.2304 30.7712 41.879 30.856C41.5276 30.9376 41.2499 31.0576 41.0487 31.2128C40.7696 31.4272 40.5528 31.6783 40.4041 31.9679C40.2539 32.2607 40.1419 32.6574 40.0612 33.163L42.1595 33.4734C42.2445 33.1278 42.3565 32.8926 42.4981 32.7678ZM44.0609 35.5339C44.0609 35.9099 44.0198 36.2171 43.9306 36.4491C43.8413 36.6842 43.694 36.8826 43.4843 37.0442C43.2746 37.2074 43.0465 37.289 42.7999 37.289C42.5676 37.289 42.3905 37.2138 42.2715 37.0618C42.1524 36.9114 42.0929 36.7178 42.0929 36.4827C42.0929 36.2763 42.1553 36.0907 42.2771 35.9275C42.3919 35.7707 42.6738 35.6091 43.1201 35.4476C43.4446 35.3356 43.7591 35.2028 44.0609 35.0556V35.5339Z" fill="black"/>
<path d="M49.9688 30.9002H51.0116V33.116H49.9688V38.7906H47.7685V33.116H46.9453V30.9002H47.7685V30.5434C47.7685 30.2203 47.794 29.8667 47.845 29.4828C47.896 29.0972 47.9895 28.7836 48.1284 28.5388C48.2644 28.2941 48.4599 28.0973 48.7093 27.9453C48.9586 27.7949 49.3242 27.7197 49.8059 27.7197C50.187 27.7197 50.7424 27.7821 51.4735 27.9069L51.2355 29.7307C50.9734 29.6715 50.7623 29.6443 50.6008 29.6443C50.4024 29.6443 50.2635 29.6891 50.1757 29.7819C50.0893 29.8715 50.0283 30.0155 49.9901 30.2123C49.9773 30.3211 49.9688 30.5498 49.9688 30.9002Z" fill="black"/>
<path d="M57.9741 35.2556C57.9741 34.2173 57.8495 33.3742 57.6029 32.7246C57.3564 32.0767 56.998 31.5823 56.5247 31.24C56.0501 30.9008 55.4068 30.728 54.5893 30.728C53.5791 30.728 52.7899 31.1088 52.2175 31.8735C51.6466 32.6334 51.3604 33.6301 51.3604 34.8604C51.3604 35.7259 51.502 36.4763 51.7882 37.1162C52.073 37.7593 52.4329 38.2281 52.8665 38.5224C53.3014 38.812 53.8965 38.9592 54.6502 38.9592C55.523 38.9592 56.1904 38.7896 56.6565 38.4473C57.1226 38.1065 57.5179 37.5433 57.8452 36.7562L55.6845 36.4779C55.5499 36.713 55.4238 36.8778 55.3048 36.969C55.1121 37.1178 54.9081 37.1898 54.6928 37.1898C54.3555 37.1898 54.0807 37.0186 53.8738 36.6794C53.7222 36.4411 53.6273 36.0811 53.5862 35.5931H57.9756V35.2556H57.9741ZM53.5919 34.1549C53.6287 33.6813 53.7123 33.3262 53.8426 33.0878C54.0538 32.7038 54.3315 32.5118 54.68 32.5118C54.979 32.5118 55.2198 32.6398 55.404 32.8942C55.5882 33.1486 55.703 33.5677 55.7483 34.1565H53.5919V34.1549Z" fill="black"/>
<path d="M61.6422 27.9067V30.9H62.8507V33.1142H61.6422V35.9043C61.6422 36.2387 61.6648 36.4579 61.7074 36.5699C61.7824 36.7395 61.91 36.821 62.0913 36.821C62.25 36.821 62.4767 36.7587 62.7672 36.6307L62.9272 38.7169C62.3846 38.88 61.876 38.96 61.4084 38.96C60.8615 38.96 60.4591 38.864 60.1998 38.6721C59.9391 38.4801 59.7479 38.1889 59.626 37.7954C59.5028 37.4002 59.4404 36.7651 59.4404 35.8867V33.1142H58.6328V30.9H59.4404L59.4489 27.9099L61.6422 27.9067Z" fill="black"/>
<path d="M63.2578 30.9004H65.5758L66.7517 36.1543L67.8384 30.9004H69.9991L67.7336 39.3363C67.4729 40.3011 67.2108 40.949 66.9458 41.2866C66.5633 41.7601 65.981 41.9985 65.2003 41.9985C64.8843 41.9985 64.3969 41.9409 63.7395 41.8209L63.5653 39.7139C63.8798 39.8531 64.2312 39.9219 64.6222 39.9219C64.8815 39.9219 65.0912 39.8403 65.2527 39.6755C65.4114 39.5107 65.5488 39.2148 65.6593 38.794L63.2578 30.9004Z" fill="black"/>
</svg>
