<?xml version="1.0" encoding="utf-8"?>
<!-- Generator: Adobe Illustrator 24.2.1, SVG Export Plug-In . SVG Version: 6.00 Build 0)  -->
<svg version="1.1" id="레이어_1" xmlns="http://www.w3.org/2000/svg" xmlns:xlink="http://www.w3.org/1999/xlink" x="0px"
	 y="0px" width="70px" height="70px" viewBox="0 0 70 70" style="enable-background:new 0 0 70 70;" xml:space="preserve">
<style type="text/css">
	.st0{fill:#231815;}
</style>
<g>
	<path class="st0" d="M24.1,14.4c-13,0-23.6,10.8-23.6,24.1c0,4.9,1.4,9.4,3.8,13.2l1.8-1.1c-1.1-1.7-2-3.6-2.5-5.6l4.7-2.5l2.7-4.6
		l4.6-2.9l4.4-5.6l1.3-4.6l6-3.8l2.9,3.9l5.4,2.3h6.4c0.2,0.3,0.3,0.6,0.5,0.9h2.7C41.5,20,33.5,14.4,24.1,14.4z M36,25.9l-4.7-2
		l-3.4-4.5l-7.3,4.6l-1.5,4.9L15.2,34l-5.1,3l-2.7,4.8l-4.1,1.9c-0.3-1.6-0.5-3.2-0.5-4.9c0-12,9.5-21.8,21.3-21.8
		c7.1,0,13.4,3.6,17.3,9L36,25.9z"/>
	<polygon class="st0" points="25.2,26.5 27.8,26.5 27.8,37.9 33.1,37.9 33.1,40.1 25.2,40.1 	"/>
	<path class="st0" d="M38.8,30.1c-2.8,0-5.2,2.3-5.2,5.2c0,2.8,2.3,5.2,5.2,5.2c2.8,0,5.2-2.3,5.2-5.2
		C43.9,32.4,41.6,30.1,38.8,30.1z M38.8,38.4c-1.5,0-2.6-1.4-2.6-3.1c0-1.7,1.2-3.1,2.6-3.1c1.5,0,2.6,1.4,2.6,3.1
		C41.4,37,40.2,38.4,38.8,38.4z"/>
	<polygon class="st0" points="43.9,30.1 46.9,30.1 48.3,37.4 49.8,30.1 52.5,30.1 53.9,37.4 55.7,30.1 58.3,30.1 55.5,40.4 
		52.8,40.4 51.1,33 49.6,40.4 46.7,40.4 	"/>
	<path class="st0" d="M67.9,35.9c0-0.2,0-0.4,0-0.7c0-2.8-2.2-5.2-4.9-5.2c-2.7,0-4.9,2.3-4.9,5.2c0,2.9,2.2,5.2,4.9,5.2
		c2,0,3.7-1.3,4.5-3.1H65c-0.5,0.7-1.2,1.2-1.9,1.2c-0.8,0-1.5-0.5-1.9-1.2c-0.2-0.4-0.4-0.9-0.5-1.4H67.9z M60.6,34.2
		C61,32.9,61.9,32,63,32c1.1,0,2,0.9,2.4,2.3H60.6z"/>
	<path class="st0" d="M59.9,47.1c0-0.2,0-0.4,0-0.7c0-2.9-2.2-5.2-4.9-5.2c-2.7,0-4.9,2.3-4.9,5.2c0,2.8,2.2,5.2,4.9,5.2
		c2,0,3.7-1.3,4.5-3.1H57c-0.5,0.7-1.2,1.2-1.9,1.2c-0.8,0-1.5-0.5-1.9-1.2c-0.2-0.4-0.4-0.9-0.5-1.4H59.9z M52.7,45.4
		c0.3-1.3,1.3-2.3,2.4-2.3c1.1,0,2,0.9,2.4,2.3H52.7z"/>
	<path class="st0" d="M21.1,51.4l-0.7-1.2v-5.4c-0.2-3.4-4.1-3.3-4.1-3.3c-4.1,0.1-4.1,3.4-4.1,3.4l2.5,0.1c0-0.6,0.2-1.1,0.7-1.3
		c0.4-0.2,0.8-0.2,1.2-0.1c0.3,0,0.6,0.1,0.9,0.3c0.2,0.1,0.5,0.4,0.5,0.7c0.1,1.4-2.8,1.4-2.8,1.4c-3.6,0.2-3.4,3.3-3.4,3.3
		c0.1,3.2,4,2.6,4,2.6c1.5-0.2,2.4-1.3,2.4-1.3v1H21.1z M16.3,49.9c-1.3,0.3-1.7-0.3-1.7-0.3c-1.5-2.5,3.2-2.7,3.2-2.7
		C18,49.9,16.3,49.9,16.3,49.9z"/>
	<rect x="21.6" y="38.5" class="st0" width="2.4" height="12.9"/>
	<path class="st0" d="M31,41.2c-1.3,0-2.5,0.8-3.3,2.1v-2h-2.5v14.3h2.5v-6.3c0.7,1.3,1.9,2.1,3.3,2.1c2.2,0,4-2.3,4-5.1
		C35,43.5,33.2,41.2,31,41.2z M30.2,49.7c-1.2,0-2.2-1.4-2.2-3.2c0-1.8,1-3.2,2.2-3.2c1.2,0,2.2,1.4,2.2,3.2
		C32.5,48.2,31.5,49.7,30.2,49.7z"/>
	<rect x="36.1" y="41.3" class="st0" width="2.5" height="10.4"/>
	<path class="st0" d="M48.9,44.2v7.5h-2.5v-6.4c0-1.1-0.4-1.5-0.4-1.5c-0.4-0.4-1.1-0.8-2.1-0.3c0,0-0.8,0.2-1.4,1c0,0,0,0,0,0
		c0,0,0,0,0,0c-0.1,0.1-0.2,0.5-0.2,1.1v6.1h-2.5V41.3h2.5v1.5c0.5-0.7,1.6-1.7,3.5-1.6C45.8,41.2,48.6,41.1,48.9,44.2z"/>
	<path class="st0" d="M68.5,30.3c0.2,0,0.4,0.1,0.5,0.2c0.1,0.1,0.2,0.3,0.2,0.5c0,0.2-0.1,0.4-0.2,0.5c-0.1,0.1-0.3,0.2-0.5,0.2
		c-0.2,0-0.4-0.1-0.5-0.2c-0.1-0.1-0.2-0.3-0.2-0.5c0-0.2,0.1-0.4,0.2-0.5C68.2,30.3,68.3,30.3,68.5,30.3 M69.4,31
		c0-0.2-0.1-0.5-0.3-0.6c-0.2-0.2-0.4-0.3-0.6-0.3c-0.2,0-0.4,0.1-0.6,0.2c-0.2,0.2-0.3,0.4-0.3,0.7c0,0.3,0.1,0.5,0.3,0.6
		c0.2,0.2,0.4,0.3,0.6,0.3c0.2,0,0.5-0.1,0.6-0.3C69.4,31.5,69.4,31.3,69.4,31 M68.7,30.8c0,0.1,0,0.1-0.1,0.1c0,0-0.1,0-0.1,0h-0.1
		v-0.3h0.1c0.1,0,0.1,0,0.2,0C68.7,30.7,68.7,30.8,68.7,30.8 M68.4,31.5v-0.4h0.1l0.1,0c0,0,0.1,0,0.1,0c0,0,0.1,0,0.1,0.1
		c0,0,0,0.1,0,0.1c0,0.1,0,0.1,0,0.1H69l0,0c0,0,0,0,0,0c0,0,0,0,0,0v-0.1c0-0.1,0-0.2-0.1-0.2c0,0-0.1,0-0.1-0.1
		c0.1,0,0.1,0,0.2-0.1c0,0,0.1-0.1,0.1-0.2c0-0.1,0-0.2-0.1-0.2c-0.1,0-0.1,0-0.2-0.1c0,0-0.1,0-0.2,0c-0.1,0-0.2,0-0.3,0v1H68.4z"
		/>
</g>
</svg>
