<?xml version="1.0" encoding="utf-8"?>
<!-- Generator: Adobe Illustrator 24.2.1, SVG Export Plug-In . SVG Version: 6.00 Build 0)  -->
<svg version="1.1" id="레이어_1" xmlns="http://www.w3.org/2000/svg" xmlns:xlink="http://www.w3.org/1999/xlink" x="0px"
	 y="0px" width="70px" height="70px" viewBox="0 0 70 70" style="enable-background:new 0 0 70 70;" xml:space="preserve">
<style type="text/css">
	.st0{fill:#221E1F;}
	.st1{fill:#E0393D;}
</style>
<g>
	<g>
		<g>
			<path class="st0" d="M66.4,44.7c0-0.8,0.7-1.5,1.5-1.5s1.5,0.7,1.5,1.5c0,0.8-0.7,1.5-1.5,1.5S66.4,45.5,66.4,44.7z M66.7,44.7
				c0,0.7,0.5,1.2,1.2,1.2c0.6,0,1.2-0.5,1.2-1.2c0-0.7-0.5-1.2-1.2-1.2C67.3,43.5,66.7,44,66.7,44.7z M68.6,45.4h-0.4l-0.4-0.6
				h-0.3v0.6h-0.3v-1.6H68c0.4,0,0.6,0.1,0.6,0.5c0,0.3-0.1,0.4-0.4,0.5L68.6,45.4z M68,44.5c0.2,0,0.3,0,0.3-0.2
				c0-0.2-0.2-0.2-0.4-0.2h-0.4v0.4H68z"/>
		</g>
	</g>
	<path class="st1" d="M0.7,53l30.5-37.1l4.8,6.1l2.7-3.3l18.3,23c0.2,0.4-0.3,0.4-0.6,0.2c-11.7-9.1-25.2-9.7-36.1-4.7
		C11.9,41,7.3,46.8,1.1,53.3C1,53.5,0.4,53.4,0.7,53z"/>
	<path class="st0" d="M51.3,53.7V42.8h9.6c3.7,0.1,3.5,3.3,3.5,3.3c-0.1,1.8-2,2.5-2,2.5l4,5h-5.1l-2.5-3.2h-2.9v3.2H51.3z
		 M55.9,45.6v2.3h2.6c0.7,0.1,1.3-0.5,1.3-1.2c0-0.6-0.6-1.1-1.2-1.1H55.9z"/>
	<polygon class="st0" points="13.8,53.7 19.7,42.8 24.3,42.8 25.2,47.5 28.3,42.8 33.4,42.8 33.4,53.7 28.9,53.7 28.9,48.7 
		25.4,53.7 22.1,53.7 21.1,48.7 18.4,53.7 	"/>
	<path class="st0" d="M48.3,43.1c-1.6-0.4-3.6-0.7-5.1-0.8c-3.8-0.1-7.3,0.9-7.3,3.5c0,4.1,7.8,2.6,7.3,4.7
		c-0.1,0.5-1.2,0.8-2.5,0.7c-1.9-0.1-3.4-0.7-4.6-1.1v2.9c1.8,0.5,3.5,0.8,5.6,1c3.3,0.2,7.1-0.9,7.1-3.6c0-4.2-7-3.2-7-4.6
		c0-0.7,1.2-0.9,2-0.9c1.5,0,3.1,0.5,4.5,1V43.1z"/>
</g>
</svg>
