<?xml version="1.0" encoding="utf-8"?>
<!-- Generator: Adobe Illustrator 24.2.1, SVG Export Plug-In . SVG Version: 6.00 Build 0)  -->
<svg version="1.1" id="레이어_1" xmlns="http://www.w3.org/2000/svg" xmlns:xlink="http://www.w3.org/1999/xlink" x="0px"
	 y="0px" width="70px" height="70px" viewBox="0 0 70 70" style="enable-background:new 0 0 70 70;" xml:space="preserve">
<style type="text/css">
	.st0{fill:#231815;}
</style>
<g>
	<g>
		<path class="st0" d="M41.3,31.8c-1,0-1.8,0.1-2.5,0.7C38,33,37.4,33.9,37,34.8c-0.4,1-0.3,1.8,0,2.3c0.4,0.7,1.1,0.7,2,0.7h1.3
			c0,0,0,0.1,0,0.1c-0.2,0.6-1,1.4-1.6,1.4h-2.9l-0.4,1.2h3.1c1.6,0,2.9-1.3,3.5-3l2.1-5.8H41.3z M40.9,36.6h-0.8
			c-1.4,0-1.8-0.4-1.3-1.8c0.3-0.8,0.6-1.2,1.3-1.6c0.4-0.2,0.8-0.2,1.3-0.2h0.8L40.9,36.6z"/>
		<polygon class="st0" points="36.7,29.4 33.7,37.8 35.3,37.8 38.4,29.4 		"/>
		<path class="st0" d="M32.6,31.8h-3.3L28.9,33h2.7c1,0,1.4,0.2,1.1,1c0,0,0,0.1-0.1,0.1h-2.1c-1.7,0-2.6,0.5-3.1,1.9
			c-0.4,1.1,0,1.7,1.2,1.7h4.3l1.4-3.8C34.8,32.5,34.3,31.8,32.6,31.8z M31.7,36.6h-2c-0.6,0-0.9-0.1-0.7-0.6
			c0.2-0.5,0.6-0.7,1.2-0.7h1.9L31.7,36.6z"/>
		<path class="st0" d="M25.8,31.8h-3l-2.2,6.1h1.6l1.7-4.7h1.3c0.9,0,1,0.2,0.7,1.1l-1.3,3.6h1.6l1.4-3.8
			C28.1,32.4,27.6,31.8,25.8,31.8z"/>
		<path class="st0" d="M66.2,27.1l-56.9,0C8.1,27.2,5.5,27,4,30.4l-3.3,9c-0.5,1.4,0.2,3.4,3,3.4l56.9,0c0.7-0.1,3.6,0.3,5.3-3.3
			l3.3-9C69.8,29.1,69,27.2,66.2,27.1z M11.9,42.1h-8c-1.8,0-2.8-1.2-2.3-2.7l3.3-8.8c0.5-1.5,2.4-2.7,4.3-2.7h12.2l-5.3,14.2H11.9z
			 M68.4,30.6l-2.2,5.9H59c-1,0-1.4-0.1-1.1-1.1H59l0,0h1c0.1,0,0.2,0,0.3,0h0.1l0,0c1.4-0.1,1.9-0.6,2.4-1.9
			c0.3-0.9-0.2-1.8-1.2-1.8l-0.9,0h-0.1h-0.2c-2,0-3.4,1.1-4.1,3c-0.7,2-0.1,3,1.9,3h7.4l-0.6,1.6c-0.5,1.5-2.4,2.7-4.3,2.7H17
			l5.3-14.2h43.8C67.9,27.9,68.9,29.1,68.4,30.6z M58.4,34.2c0.4-1,0.9-1.1,1.9-1.1h1c0.2,0.1,0.3,0.2,0.1,0.5
			c-0.1,0.3-0.3,0.5-0.6,0.6H58.4z"/>
		<path class="st0" d="M54.5,31.8h-3l-1.7,4.8h-3.5c-1,0-1.4-0.1-1.1-1.1h1.1l0,0h1c0.1,0,0.2,0,0.3,0h0.1l0,0
			c1.4-0.1,1.9-0.6,2.4-1.9c0.3-0.9-0.2-1.8-1.2-1.8l-0.9,0h-0.1h-0.2c-2,0-3.4,1.1-4.1,3c-0.7,2-0.1,3,1.9,3h3.7h0.4h1.2l1.7-4.7
			h1.3c0.9,0,1,0.2,0.7,1.1l-1.3,3.6h1.6l1.4-3.8C56.8,32.4,56.3,31.8,54.5,31.8z M47.5,33h1c0.2,0.1,0.3,0.2,0.1,0.5
			c-0.1,0.3-0.3,0.5-0.6,0.6h-2.5C46,33.2,46.5,33,47.5,33z"/>
	</g>
	<g>
		<path class="st0" d="M12.8,37.6c-0.2,0.8,0.4,1.2,0.9,1.1c0.4-0.1,0.7-0.5,0.7-1.1c-0.1-1.7-2.1-2-2.1-2
			C12.3,35.6,13.1,36.4,12.8,37.6z"/>
		<path class="st0" d="M10.5,38.2c-0.7,0.4-0.5,1.1-0.1,1.4c0.4,0.2,0.8,0.2,1.2-0.3c1.1-1.2-0.2-3-0.1-3
			C11.5,36.4,11.5,37.6,10.5,38.2z"/>
		<path class="st0" d="M8.5,36.9c-0.8-0.2-1.1,0.4-1,0.9c0.1,0.4,0.4,0.7,1,0.7c1.6-0.1,1.9-2.3,1.9-2.2
			C10.4,36.4,9.6,37.2,8.5,36.9z"/>
		<path class="st0" d="M7.9,34.5c-0.4-0.7-1.1-0.6-1.4-0.1c-0.2,0.4-0.2,0.9,0.2,1.3c1.2,1.2,2.8-0.2,2.8-0.2
			C9.6,35.5,8.5,35.5,7.9,34.5z"/>
		<path class="st0" d="M9.2,32.3c0.2-0.8-0.4-1.2-0.9-1.1c-0.4,0.1-0.7,0.5-0.7,1.1c0.1,1.7,2.1,2,2.1,2C9.6,34.3,8.8,33.5,9.2,32.3
			z"/>
		<path class="st0" d="M11.4,31.7c0.7-0.4,0.5-1.1,0.1-1.4c-0.4-0.2-0.8-0.2-1.2,0.3c-1.1,1.2,0.2,3,0.1,3
			C10.4,33.5,10.4,32.3,11.4,31.7z"/>
		<path class="st0" d="M13.4,33c0.8,0.2,1.1-0.4,1-0.9c-0.1-0.4-0.4-0.7-1-0.7c-1.6,0.1-1.9,2.3-1.9,2.2
			C11.6,33.5,12.3,32.7,13.4,33z"/>
		<path class="st0" d="M14,35.5c0.4,0.7,1.1,0.6,1.4,0.1c0.2-0.4,0.2-0.9-0.2-1.3c-1.2-1.2-2.8,0.2-2.8,0.2
			C12.3,34.4,13.4,34.4,14,35.5z"/>
	</g>
	<path class="st0" d="M64.3,31.9c0.2,0,0.4,0.1,0.5,0.2c0.1,0.1,0.2,0.3,0.2,0.5c0,0.2-0.1,0.4-0.2,0.5c-0.1,0.1-0.3,0.2-0.5,0.2
		c-0.2,0-0.4-0.1-0.5-0.2c-0.1-0.1-0.2-0.3-0.2-0.5c0-0.2,0.1-0.3,0.2-0.5C64,32,64.1,31.9,64.3,31.9 M65.1,32.6
		c0-0.2-0.1-0.4-0.2-0.6c-0.2-0.2-0.4-0.2-0.6-0.2c-0.2,0-0.4,0.1-0.6,0.2c-0.2,0.2-0.3,0.4-0.3,0.6c0,0.2,0.1,0.4,0.2,0.6
		c0.2,0.2,0.4,0.2,0.6,0.2c0.2,0,0.4-0.1,0.6-0.2C65.1,33,65.1,32.8,65.1,32.6 M64.5,32.4c0,0.1,0,0.1,0,0.1c0,0-0.1,0-0.1,0h-0.1
		v-0.3h0.1c0.1,0,0.1,0,0.1,0C64.4,32.3,64.5,32.3,64.5,32.4 M64.2,33v-0.3h0.1l0.1,0c0,0,0.1,0,0.1,0c0,0,0.1,0,0.1,0.1
		c0,0,0,0.1,0,0.1c0,0.1,0,0.1,0,0.1h0.2l0,0c0,0,0,0,0,0c0,0,0,0,0,0v-0.1c0-0.1,0-0.2-0.1-0.2c0,0-0.1,0-0.1-0.1
		c0.1,0,0.1,0,0.2-0.1c0,0,0.1-0.1,0.1-0.2c0-0.1,0-0.2-0.1-0.2c0,0-0.1,0-0.2,0c0,0-0.1,0-0.2,0c-0.1,0-0.2,0-0.3,0V33H64.2z"/>
</g>
</svg>
