<svg width="328" height="437" viewBox="0 0 328 437" fill="none" xmlns="http://www.w3.org/2000/svg">
<g clip-path="url(#clip0_2_76)">
<rect width="328" height="437" fill="white"/>
<rect width="656" height="876.005" fill="#F5F5F5"/>
<path d="M119.171 271.506H115.331V264.786H112.241V281.076H115.331V274.056H119.171V271.506ZM108.311 279.636L109.931 277.206C108.931 276.866 108.031 276.416 107.231 275.856C106.451 275.296 105.791 274.666 105.251 273.966C104.711 273.246 104.301 272.476 104.021 271.656C103.741 270.836 103.601 269.986 103.601 269.106V266.196H100.481V268.866C100.481 269.846 100.341 270.806 100.061 271.746C99.7814 272.666 99.3614 273.526 98.8014 274.326C98.2414 275.126 97.5514 275.836 96.7314 276.456C95.9114 277.076 94.9714 277.566 93.9114 277.926L95.5614 280.386C97.1214 279.806 98.4514 278.966 99.5514 277.866C100.651 276.766 101.501 275.466 102.101 273.966C102.681 275.246 103.491 276.386 104.531 277.386C105.591 278.366 106.851 279.116 108.311 279.636ZM106.601 281.736C105.201 281.736 103.941 281.856 102.821 282.096C101.721 282.316 100.781 282.646 100.001 283.086C99.2214 283.506 98.6214 284.036 98.2014 284.676C97.7814 285.296 97.5714 286.006 97.5714 286.806C97.5714 287.606 97.7814 288.326 98.2014 288.966C98.6214 289.586 99.2214 290.116 100.001 290.556C100.781 290.996 101.721 291.326 102.821 291.546C103.941 291.786 105.201 291.906 106.601 291.906C108.021 291.906 109.281 291.786 110.381 291.546C111.501 291.326 112.451 290.996 113.231 290.556C114.011 290.116 114.601 289.586 115.001 288.966C115.421 288.326 115.631 287.606 115.631 286.806C115.631 285.206 114.831 283.966 113.231 283.086C111.631 282.186 109.421 281.736 106.601 281.736ZM106.601 289.476C104.661 289.476 103.181 289.256 102.161 288.816C101.141 288.376 100.631 287.706 100.631 286.806C100.631 285.966 101.141 285.316 102.161 284.856C103.181 284.396 104.661 284.166 106.601 284.166C108.541 284.166 110.021 284.396 111.041 284.856C112.061 285.316 112.571 285.966 112.571 286.806C112.571 287.706 112.061 288.376 111.041 288.816C110.021 289.256 108.541 289.476 106.601 289.476ZM127.779 268.086V273.066H124.089V275.556H143.859V273.066H140.199V268.086H144.009V265.596H123.939V268.086H127.779ZM137.109 268.086V273.066H130.869V268.086H137.109ZM135.549 280.206H146.259V277.716H121.749V280.206H132.459V282.966H124.689V291.576H143.289V282.966H135.549V280.206ZM140.259 285.426V289.116H127.749V285.426H140.259ZM157.376 274.446L158.546 276.906C160.886 276.606 162.916 275.946 164.636 274.926C166.356 273.906 167.576 272.646 168.296 271.146C169.036 272.646 170.266 273.906 171.986 274.926C173.726 275.946 175.776 276.606 178.136 276.906L179.276 274.446C178.016 274.286 176.856 274.026 175.796 273.666C174.736 273.286 173.816 272.836 173.036 272.316C172.256 271.796 171.636 271.216 171.176 270.576C170.716 269.936 170.456 269.266 170.396 268.566H178.346V266.076H158.336V268.566H166.226C166.166 269.266 165.906 269.936 165.446 270.576C165.006 271.216 164.396 271.796 163.616 272.316C162.856 272.836 161.946 273.286 160.886 273.666C159.826 274.026 158.656 274.286 157.376 274.446ZM180.626 278.556H156.056V281.046H167.036V286.146H170.126V281.046H180.626V278.556ZM162.146 288.876V283.656H159.056V291.396H177.896V288.876H162.146ZM205.973 264.786H202.853V291.966H205.973V264.786ZM188.183 267.036H185.123V285.516H198.143V267.036H195.053V273.936H188.183V267.036ZM188.183 283.026V276.396H195.053V283.026H188.183ZM212.481 273.516L213.591 275.946C216.011 275.686 218.081 275.096 219.801 274.176C221.541 273.256 222.781 272.096 223.521 270.696C223.881 271.376 224.381 272.016 225.021 272.616C225.661 273.196 226.401 273.716 227.241 274.176C228.101 274.616 229.051 274.996 230.091 275.316C231.151 275.616 232.271 275.826 233.451 275.946L234.531 273.516C233.271 273.396 232.121 273.176 231.081 272.856C230.041 272.536 229.131 272.156 228.351 271.716C227.571 271.256 226.941 270.756 226.461 270.216C226.001 269.656 225.721 269.076 225.621 268.476H233.541V265.986H213.531V268.476H221.391C221.291 269.076 221.001 269.656 220.521 270.216C220.061 270.756 219.441 271.256 218.661 271.716C217.881 272.156 216.971 272.536 215.931 272.856C214.891 273.176 213.741 273.396 212.481 273.516ZM225.051 279.786H235.761V277.326H211.251V279.786H221.961V282.276C219.401 282.436 217.451 282.926 216.111 283.746C214.791 284.546 214.131 285.666 214.131 287.106C214.131 288.666 214.931 289.856 216.531 290.676C218.151 291.496 220.461 291.906 223.461 291.906C226.481 291.906 228.791 291.496 230.391 290.676C231.991 289.856 232.791 288.666 232.791 287.106C232.791 285.666 232.131 284.546 230.811 283.746C229.511 282.946 227.591 282.466 225.051 282.306V279.786ZM229.671 287.106C229.671 287.886 229.131 288.486 228.051 288.906C226.991 289.326 225.461 289.536 223.461 289.536C221.461 289.536 219.931 289.326 218.871 288.906C217.811 288.486 217.281 287.886 217.281 287.106C217.281 286.266 217.811 285.646 218.871 285.246C219.931 284.846 221.461 284.646 223.461 284.646C225.461 284.646 226.991 284.846 228.051 285.246C229.131 285.646 229.671 286.266 229.671 287.106Z" fill="#888888"/>
<mask id="mask0_2_76" style="mask-type:alpha" maskUnits="userSpaceOnUse" x="112" y="142" width="103" height="94">
<path fill-rule="evenodd" clip-rule="evenodd" d="M112 142.326H214.425V235.603H112V142.326Z" fill="white"/>
</mask>
<g mask="url(#mask0_2_76)">
<path fill-rule="evenodd" clip-rule="evenodd" d="M195.066 226.904C195.066 229.489 192.966 231.594 190.386 231.594C187.806 231.594 185.706 229.489 185.706 226.904C185.706 224.318 187.806 222.213 190.386 222.213C192.966 222.213 195.066 224.318 195.066 226.904M150.08 226.904C150.08 229.489 147.98 231.594 145.4 231.594C142.82 231.594 140.72 229.489 140.72 226.904C140.72 224.318 142.82 222.213 145.4 222.213C147.98 222.213 150.08 224.318 150.08 226.904M198.964 206.339L212.322 166.169C212.526 165.557 212.424 164.886 212.048 164.363C211.672 163.839 211.068 163.531 210.426 163.531H145.4C144.296 163.531 143.4 164.427 143.4 165.535C143.4 166.642 144.296 167.54 145.4 167.54H207.65L195.624 203.701H143.374L129.528 147.755C129.35 147.035 128.79 146.474 128.072 146.293L112.486 142.386C111.416 142.118 110.33 142.767 110.06 143.844C109.792 144.918 110.444 146.007 111.516 146.273L125.936 149.889L142.942 218.603C139.358 219.675 136.72 222.969 136.72 226.904C136.72 231.701 140.614 235.604 145.4 235.604C150.186 235.604 154.08 231.701 154.08 226.904C154.08 225.174 153.56 223.57 152.688 222.213H183.1C182.228 223.57 181.706 225.174 181.706 226.904C181.706 231.701 185.6 235.604 190.386 235.604C195.172 235.604 199.066 231.701 199.066 226.904C199.066 222.107 195.172 218.204 190.386 218.204H146.964L144.366 207.71H197.066C197.928 207.71 198.69 207.156 198.964 206.339" fill="#888888"/>
</g>
</g>
<defs>
<clipPath id="clip0_2_76">
<rect width="328" height="437" fill="white"/>
</clipPath>
</defs>
</svg>
