<?xml version="1.0" encoding="utf-8"?>
<!-- Generator: Adobe Illustrator 24.2.1, SVG Export Plug-In . SVG Version: 6.00 Build 0)  -->
<svg version="1.1" id="레이어_1" xmlns="http://www.w3.org/2000/svg" xmlns:xlink="http://www.w3.org/1999/xlink" x="0px"
	 y="0px" width="70px" height="70px" viewBox="0 0 70 70" style="enable-background:new 0 0 70 70;" xml:space="preserve">
<style type="text/css">
	.st0{fill:#231815;}
</style>
<g>
	<polygon class="st0" points="27.2,69.9 27.2,69.9 27.2,69.9 	"/>
	<path class="st0" d="M29.9,69.9l1,0c0,0,0.1-0.4,0.3-0.6c0.1-0.2,0.5-0.7,0.5-0.7s-0.6,0-1.1,0.6C30,69.7,29.9,69.9,29.9,69.9z"/>
	<path class="st0" d="M32.2,69.2c-0.6,0.6-0.5,0.7-0.5,0.7l0.9,0c0,0,0.1-0.3,0.2-0.5c0.1-0.3,0.5-0.7,0.5-0.7S32.8,68.6,32.2,69.2z
		"/>
	<path class="st0" d="M41.4,68.5c-0.6,0.4-0.5,0.6-0.5,0.6l1.4-0.1c0,0,0.1-0.3,0.3-0.5c0.1-0.2,0.1-0.6,0.1-0.6S42,68,41.4,68.5z"
		/>
	<path class="st0" d="M41.8,3c0,0-0.3-0.3-0.8-0.4c-0.5-0.1-1.9,0.1-1.9,0.1s0.5,0.2,0.7,0.4C40,3.3,40,3.7,40,3.7L41.8,3z"/>
	<path class="st0" d="M33.1,4.5c0.2,0.2,0.4,0.4,0.4,0.4c0-0.1,0.1-0.5,0.1-0.5s-0.7-0.5-1.1-0.4C32,4,32.9,4.3,33.1,4.5z"/>
	<path class="st0" d="M43.9,2.2c0.1,0,1.8,0.2,3.3,0.5c1.6,0.2,3.4,0.6,3.4,0.6c0,0.1-0.7,0.5-0.7,0.6c0,0.2,1.1,0.6,1.1,0.6
		c-0.2,0.6-1,1.1-1.5,1.5c0,0-0.1,0.1-0.2,0.1c-0.1,0.4-0.3,1-0.4,1c-0.1,0.1-0.2-0.4-0.3-0.7c-0.3,0.1-0.5,0.2-0.8,0.3l-0.7,0.6
		l-0.3,0l-0.3,0.1c-0.3,0.3-0.5,0.7-0.5,0.7c0,0.4,0.1,0.2,0.1,0.2c0.7-0.3,1.3-0.4,1.8-0.6c0.1-0.1,0.2-0.3,0.3-0.3
		c0.1-0.1,0.1,0.1,0.2,0.2c0.6-0.2,0.8-0.2,0.8-0.2s0.2,0.5,0.1,0.6c-0.4,0.5-4.3,2.3-4.8,2.6c-0.5,0.3-5.8,4.2-6.1,4.7
		c-0.6,1-2.6,5.4-2.4,7.3c0.1,1.1,0.3,1.5,0.5,2c0.1,0.3,0.7,1.7,1.1,2.4c0.1,0.3,0.2,0.5,0.3,0.4c0,0,0-0.2-0.1-0.4
		c-0.1-0.6-0.4-1.8-0.5-3c-0.1-1.7,0-3.4,0.8-5.3c0.7-1.9,1.4-2.5,2.1-3.2c0.4-0.4,5.3-4.3,8.1-5.7c1.4-0.7,2-1.5,2.1-1.8
		c0.1-0.3-0.1-1.2-0.1-1.2c0.2-0.1,1.6-1.3,2-2.8c0.4-1.3,0.2-1.5-0.2-1.5c-1-0.2-7.8-1.4-7.8-1.4C43,0.4,41.6,0,41.3,0
		c-0.8,0.1-2.1,0.4-3.3,0.7c-2.3,0.6-4.8,1.5-4.8,1.5c-1-0.5-3.6-0.2-4,0.2C28.6,3,30,5,30,5c1.9,2.1,3.9,1.5,3.8,1.5
		c-0.1,0-0.3-0.1-0.4-0.1c-1.6,0.1-3.5-3-3-3.4c0.9-0.3,2-0.3,2.8,0c0.3,0.1,0.7,0.5,0.7,0.5c0.1-0.8,4.7-1.8,6.6-2.2
		C41.8,1,43.9,2.2,43.9,2.2z"/>
	<path class="st0" d="M8.5,60.5c0.2,0.2,0.1-0.2,0.2-0.7c0.1-0.5,0.4-0.6,0.4-0.6l0.9-0.6c0,0,0.2,0.3,0.3,0.6
		c0.3,0.4,0.8,0.5,0.8,0.5s0-0.6,0-0.8c0.1-0.3,0.3-0.7,0.5-0.9c0.2-0.2,1.3-1.4,1.5-1.8l-1.1-3.2c-0.1-0.3-1.6-3.8-1.5-4.4
		c0.3-1.4,1.1-2.8,1.3-2.9c0.7-0.3,3.6-1.2,3.7-1.2c0.1,0,0.8-0.1,0.8-0.1c-0.3,0-3.4,0.2-5.8,0.5c-0.8,0.1-1.8,2.6-1.2,4.9
		c0.2,0.7,0.7,2.1,1.1,2.8h0c0.4,0.9,1.3,3,1.2,3.5c-0.1,0.6-1.1,2.1-1.1,2.1s-0.5-0.8-0.6-1C9.9,57,9.9,57,9.9,57
		c-0.3,0.3-0.1,0.9-0.1,0.9s-0.5,0.3-0.9,0.5c-0.3,0.3-0.4,0.3-0.4,0.3s-0.2-0.2-0.4-0.5C8.1,58,8.1,57.5,8,57.5
		c-0.4,0.3-0.2,1.2-0.2,1.2s-1,0.1-1.3,0.3c-0.1,0-0.1-0.3-0.1-0.3s-0.1-1-0.1-1c-0.4,0.1-0.6,1.1-0.6,1.1l-0.4-0.1L5.1,58
		c0,0-0.3-1.3-0.4-1.7c0-0.1,0-0.2-0.1-0.4c0-0.1,0-0.2,0-0.3c-0.9-4.7-0.8-13.1-0.1-14.3c0.7-1.3,4-6.4,5.2-8.2
		c1.2-1.8,1.8-3,2.1-3.7c0.2-0.6,1.3-5.5,2.7-7.6c0.4-0.6,3.9-5.3,4.3-5.7c0.3-0.4,1.9-2.6,2.8-3.7c1-1.2,4.1-4.1,4.6-4.6
		c0.3-0.3,2.7-2,3.4-2.2l-0.4-0.3c0,0-0.5-0.7-0.5-0.7s-0.9,0.4-3,1.9c-0.5,0.3-3.9,3.6-4.5,4.3c-0.6,0.7-2.7,3.4-4.1,5.3
		c-1.4,1.8-3.8,4.6-5,7.3c-0.3,0.7-0.8,3.4-1.4,5.2C10,31.1,8.5,32.8,7,34.9c-1.5,2.1-3.8,5.7-4,6.3c-0.6,1.4-0.6,9.7-0.3,11.2
		c0.1,0.6,0.3,2,0.6,3.5c0.5,2,0.7,2,0.9,3.1C4.5,60.1,5,60.5,5,60.5s0-0.7,0.2-1.1c0.1-0.3,0.6,0,0.6,0s-0.1,0.9,0.6,1.6
		c0.2,0.2,0.1-0.6,0.2-1.1c0.2-0.4,1.4-0.7,1.4-0.7S8.1,60.2,8.5,60.5z"/>
	<path class="st0" d="M51,28c-0.5-0.2-3.6-1.8-4.8-2.2c-1.7-0.6-2.9-1.4-4.8-2.2c-1.9-0.8-2.4-1.1-2.7-1.5c-0.1-0.1-0.6-1.7-0.6-1.7
		c-0.8,2.7,0.9,3,0.9,3c1.7,1.1,10.6,4.9,11.1,5.3c1.4,1.2,1.9,2.5,2.4,4c0.4,1.3,1.3,4.1,0.6,7.8c-0.7,3.7-1.4,5.2-2,6.8
		c-0.2,0.6-0.8,2.6-0.7,2.8l0.6-1.1c1-1.8,2.2-3.4,2.9-6c0.7-2.6,0.8-5.3,0.6-7.4C54.2,33.5,52.6,28.7,51,28z"/>
	<path class="st0" d="M18.6,47l0,2.2c0,0-1.1,3.5-1.3,4.6c-0.2,1.1,0.1,3,0.2,3.4c0,0,0.3,1.5,0.4,2.2c0.1,0.7-0.1,1.8-0.1,2.4
		c-0.1,0.7-1.2,1.8-1.4,2.1c-0.6,0.9-1.5,1.9-2.6,3.4c-0.1,0.1-0.4,0.3-0.7,0.5L11.6,68c0,0-3.8,0.4-3.9,0.5
		c-0.1,0.1,4.2-0.1,4.2-0.1l2.4,0.3l3.3-0.4l1,0.1c0,0,0.4-0.3,0.5-0.6c0.1-0.2,0.3-0.7,0.3-0.7s-0.6,0-1.1,0.6
		c-0.4,0.4-0.7,0.5-0.8,0.6l-0.7-0.2c0.1-0.2,0.1-0.4,0.2-0.5c0.1-0.3,0.5-0.8,0.5-0.8s-0.8,0.2-1.4,0.8C16,67.8,16,67.9,15.9,68
		l-0.4-0.1l-0.4-0.1c0.7-0.8,1.9-2.4,3.6-4.4c1-1.2-0.2-7.5-0.2-7.5c-0.2-1.8,1.4-6.9,1.4-6.9C19.9,48.5,18.6,47,18.6,47z"/>
	<path class="st0" d="M29.9,64.9c0.3-0.3,1.1-3,1.1-3c-0.1-2-0.9-4.3-1.4-5.4c-0.5-1.1-2.4-4.7-2.5-5.4c0,0-1-3.9-1-4.3
		c-0.1-0.5-0.8-3.3-0.8-3.3s-0.3,2.1-0.2,3.2c0,0.5,0.2,1.5,0.4,2.5c-0.4-0.1-0.9-0.3-1.4-0.4c0.1,0,0.2,0,0.2,0s-1.2-0.8-2-1.3
		c-1.6-1-2.9-2.3-4.8-5.4c-1.9-3.1-2.1-3.6-2.7-5.5c-0.4-1.2,0.6-9.3,0.6-9.4c0-0.1,0.5-3.6,0.6-3.9c0.2-0.5-1.6,2.6-1.6,2.6
		c-0.7,2-1.6,10.6-1,12c1.5,3.1,3.4,5.8,5.4,7.8l2.1,2.9c0,0,3,2.1,4.5,3.2c0.7,0.5,1.2,1.1,1.5,1.6c0.5,1.1,1.2,2.4,1.9,4.3
		c1,2.8,1.2,2.8,1.2,4c0,0.5-1.7,3.6-2.1,5.3c-0.1,0.2-0.1,0.4-0.2,0.6l-2.4,0.1c0.8-1.6,0.8-6.9,0.8-7.2c0-0.3-0.3-4.2-0.2-4.7
		c0.1-0.5,0.3-1.1,0.5-1.4c0.2-0.3,0-0.2,0-0.2c-0.5,0.3-0.9,1.4-1.1,2.1c-0.1,0.7-0.4,4.9-0.5,8.2c-0.1,2.3-0.4,2.6-1.6,3.1
		c-0.5,0.2-1.1,0.2-1.8,0.5c-0.4,0.2-0.6,0.3-0.8,0.4c0,0,0.1,0,0.1,0l-0.1,0l6.4,0.7c-0.2,0.4-0.4,0.6-0.3,0.6c0,0,0.2,0,0.5,0
		c0,0,0,0,0,0h0c0,0,0,0,0,0c0,0,0,0,0,0l1.9,0c0,0,0.1-0.5,0.3-0.7c0.1-0.3,0.2-0.7,0.2-0.7s-0.7,0.3-1.2,0.8l0.1-0.4
		C28.7,67.9,29.3,65.7,29.9,64.9z"/>
	<path class="st0" d="M43.3,63.3c0.1-0.2,0-1.7-0.1-2.4c-0.1-0.7-0.3-2.1-1-4.4c-0.7-2.3-0.9-3.1-1.1-3.3c-0.2-0.2-0.6-0.4-1.8-0.8
		c-0.5-0.1-1-0.2-1.3-0.2l0,0L37,52c0-1.1,0.2-1.4,0.4-2.1c0.3-1,1.7-5.1,1.9-6.3c0.1-0.7-0.7-4.4-1.6-5.8c-0.5-0.8-0.4-0.4-0.4-0.4
		c0.3,0.3,0.5,2.8,0.5,2.8c0.3,2,0.1,3.6,0.1,3.6c-0.1,0.4-2.1,6.7-2.3,7.3c-0.2,0.6,0.1,0.8,0.1,1.8c0,1,0.9,5.9,0.9,5.9
		s0.8,5.1,0.7,6.9c-0.1,1.3-0.8,3.3-1.2,3.4c-0.9,0.4-2,0.8-2,0.8c1,0,1.9-0.1,2.4-0.1c0.3,0,0.5-0.2,0.7-0.4l3.1-0.4l0,0h0
		c0,0-0.3-0.9,0.2-1.7C41.3,66.2,42.9,64,43.3,63.3z M39.3,67.8h-1.2c0.2-0.6,0.3-1.2,0.4-1.8c0.2-1.2-0.1-4.4-0.2-5.1
		c-0.1-0.7-0.8-4.3-1.2-7c0-0.2-0.1-0.4-0.1-0.6c0.3-0.1,0.8-0.2,1.1-0.2c0.3,0,0.8,0,1.3,0c0.3,0.2,0.4,0.4,0.7,0.9
		c0.5,0.8,1,2.8,1.4,4.3c0.4,1.5,0.7,3.8,0.5,4.6C42.1,63.3,40,66.2,39.3,67.8z"/>
	<path class="st0" d="M49.4,68.4c0.6-1.1,1.4-3.4,1.6-4.6c0.2-1.7-0.3-6.6-0.3-6.8c0-0.4,0.3-1.7,0.5-2.7c0.2-1-0.2-2.5-0.5-3.3
		c-0.2-0.9-0.2-0.1-0.2,0.8c0,0.9-1,4.3-1,4.7c-0.1,0.4,0,1.5,0.1,2.9c0.2,1.4,0.1,3.1,0,4.1c-0.1,0.9-0.7,3.5-1.3,4.4
		c-0.1,0.2-0.3,0.4-0.5,0.5l-1.8,0.1c0.2-0.2,0.5-0.4,0.5-0.4s-0.7-0.2-1.3,0.2c-0.2,0.1-0.3,0.2-0.3,0.3l-0.7,0.1
		c0.1-0.1,0.1-0.2,0.2-0.3c0.1-0.2,0.2-0.4,0.2-0.4s-0.5,0-1,0.3C42.9,68.8,43,69,43,69l0.6,0l4.5,0.3c0,0,3.6,0.1,3.6,0
		C51.8,69.2,49.7,68.5,49.4,68.4z"/>
	<g>
		<rect x="59.1" y="44.3" class="st0" width="8.2" height="1.7"/>
		<rect x="59.1" y="58.8" class="st0" width="8.2" height="1.7"/>
		<path class="st0" d="M65.8,51.5v2.2c0,1.1,0,1.6-0.2,2.3l-0.1,0.2l1.6,0.5c0,0,0.3-1,0.3-3.1v-1.8c0-2.7-0.6-3.8-2.3-3.8h-0.5
			c-1.5,0-2.3,0.6-2.3,1.8l0,3.3c0,0,0,1.4-0.1,1.7C62.2,55,62.1,55,61.7,55h-0.3c-0.5,0-0.8,0-0.8-1.7v-2c0-1.2,0-1.7,0.2-2.6
			l0-0.3L59.2,48c0,0-0.2,1.4-0.3,3.1v1.8c0,2.7,0.6,3.8,2.3,3.8h0.5c1.5,0,2.3-0.6,2.3-1.8l0-3.3c0,0,0-1.1,0.1-1.6
			c0-0.1,0.2-0.3,0.6-0.3H65C65.6,49.8,65.8,49.8,65.8,51.5z"/>
		<path class="st0" d="M67.4,8.3V6.5c0-0.9-0.1-2.6-0.1-3.4c0-0.2-0.1-0.8-0.1-0.8c0,0-0.2,0-0.4,0l-7.7,0v1.7h0.3
			c0.1,0,5.1,0,5.9,0l0.1,0L66,3.7l-0.3,0.8l0,0.1c0.1,0.6,0.1,1.1,0.1,2.5v0.3c0,2.3-0.7,2.3-1.6,2.3h-5.2v1.7h5.5
			C65.6,11.4,67.4,11,67.4,8.3z"/>
		<path class="st0" d="M67.5,29.4c0-0.4,0-0.6,0-0.6c0-0.9-0.1-2.7-0.1-3.5c0-0.3,0-0.4,0-0.5l0-0.3c0,0-0.2,0-0.4,0l0,0l-7.7,0v1.7
			l0.3,0c0.1,0,6,0,6,0l0.7-0.4l-0.3,0.8c0.1,0.6,0.1,1.4,0.1,2.7v0.3c0,1.5-0.4,2.2-0.4,2.2s1.3,0.6,1.3,0.6l0.2,0.1
			C66.9,32.6,67.4,31.6,67.5,29.4z"/>
		<path class="st0" d="M67.4,38.6v-1.8c0-1.3-0.1-2.3-0.1-2.4l-0.1-1.3h-8.1L59,34.4c0,0-0.1,1.3-0.1,2.6v1.6c0,1.9,0.4,3.9,3.5,3.9
			h1.4C66.5,42.5,67.4,41.5,67.4,38.6z M65.8,37.1v1.6c0,1.5-0.3,2.1-1.8,2.1h-1.5c-1.3,0-1.9-0.3-1.9-2v-1.9c0-0.5,0-1.5,0-1.9
			c0.1,0,0.2,0,0.3,0c0.5,0,1.1,0,1.6,0l1.5,0c0.6,0,1,0,1.3,0l0.1,0l0.7-0.4l-0.3,0.8C65.8,35.8,65.8,36.4,65.8,37.1z"/>
		<polygon class="st0" points="67.3,69.2 67.3,66.2 63.5,60.6 59.1,66 59.1,68.9 63.2,63.7 63.4,62.6 63.7,63.7 		"/>
		<path class="st0" d="M67.5,18.7v-1.6c0-1.9-0.4-4-3.4-4h-1.7c-3,0-3.4,2.1-3.4,4v1.6c0,1.9,0.4,4,3.4,4h1.7
			C67.1,22.7,67.5,20.6,67.5,18.7z M60.6,19.1v-2.3c0-1.3,0.3-1.9,1.8-1.9H64c1.6,0,1.8,0.7,1.8,1.9v2.3c0,1.3-0.3,1.9-1.8,1.9h-1.5
			C60.9,21,60.6,20.3,60.6,19.1z"/>
	</g>
	<g>
		<g>
			<path class="st0" d="M54,68.2v-1.7h0.7c0.2,0,0.3,0,0.4,0c0.1,0,0.2,0.1,0.2,0.2c0.1,0.1,0.1,0.2,0.1,0.3c0,0.1,0,0.2-0.1,0.3
				c-0.1,0.1-0.2,0.1-0.3,0.2c0.1,0,0.1,0.1,0.2,0.1c0,0.1,0.1,0.1,0.2,0.3l0.2,0.3h-0.4l-0.3-0.4c-0.1-0.1-0.2-0.2-0.2-0.3
				c0,0-0.1-0.1-0.1-0.1c0,0-0.1,0-0.2,0h-0.1v0.7H54z M54.3,67.2h0.3c0.2,0,0.3,0,0.3,0c0,0,0.1,0,0.1-0.1c0,0,0-0.1,0-0.1
				c0-0.1,0-0.1,0-0.1c0,0-0.1-0.1-0.1-0.1c0,0-0.1,0-0.3,0h-0.3V67.2z"/>
		</g>
		<path class="st0" d="M54.7,68.9c-0.8,0-1.5-0.7-1.5-1.5c0-0.8,0.7-1.5,1.5-1.5c0.8,0,1.5,0.7,1.5,1.5
			C56.2,68.2,55.5,68.9,54.7,68.9L54.7,68.9z M54.7,66.2c-0.7,0-1.2,0.5-1.2,1.2c0,0.7,0.5,1.2,1.2,1.2c0.7,0,1.2-0.5,1.2-1.2
			C55.9,66.7,55.3,66.2,54.7,66.2L54.7,66.2z"/>
	</g>
</g>
</svg>
