<?xml version="1.0" encoding="utf-8"?>
<!-- Generator: Adobe Illustrator 24.2.1, SVG Export Plug-In . SVG Version: 6.00 Build 0)  -->
<svg version="1.1" id="레이어_1" xmlns="http://www.w3.org/2000/svg" xmlns:xlink="http://www.w3.org/1999/xlink" x="0px"
	 y="0px" width="47px" height="47px" viewBox="0 0 47 47" style="enable-background:new 0 0 47 47;" xml:space="preserve">
<style type="text/css">
	.st0{fill-rule:evenodd;clip-rule:evenodd;fill:#FFFFFF;}
	.st1{fill:#727171;}
	.st2{filter:url(#Adobe_OpacityMaskFilter);}
	.st3{mask:url(#b_1_);fill-rule:evenodd;clip-rule:evenodd;fill:#AD0407;}
</style>
<g>
	<circle class="st0" cx="23.5" cy="23.5" r="23.3"/>
	<path class="st1" d="M23.5,0.5c12.7,0,23,10.3,23,23s-10.3,23-23,23s-23-10.3-23-23S10.8,0.5,23.5,0.5 M23.5,0
		C10.5,0,0,10.5,0,23.5S10.5,47,23.5,47S47,36.5,47,23.5S36.5,0,23.5,0L23.5,0z"/>
</g>
<g transform="translate(11 18)">
	<defs>
		<filter id="Adobe_OpacityMaskFilter" filterUnits="userSpaceOnUse" x="0" y="0" width="25" height="11">
			<feColorMatrix  type="matrix" values="1 0 0 0 0  0 1 0 0 0  0 0 1 0 0  0 0 0 1 0"/>
		</filter>
	</defs>
	<mask maskUnits="userSpaceOnUse" x="0" y="0" width="25" height="11" id="b_1_">
		<g class="st2">
			<path id="a_1_" class="st0" d="M0,0h25v11H0V0z"/>
		</g>
	</mask>
	<path class="st3" d="M22.3,7.8L20,8.1V7.9c2.4-0.6,4.8-1.9,4.8-4.1c0-2.5-3-3.8-5.8-3.8c-4.1,0-5.9,1.4-6.2,4.6h4.9
		c0-0.7,0.2-1.4,1.2-1.4c0.6,0,1.1,0.4,1.1,0.9c0,1-2.2,2.5-3,3.1l-4,2.8L9.1,5.6l4.3-5.2H7.9L5.5,3.8C5.3,4.2,4.9,4.6,4.8,5H4.7
		l0.1-4.6H0V11h4.8L4.7,6.6h0.1C4.9,7,5.4,7.4,5.7,7.8L8,11h17V7.7L22.3,7.8z"/>
</g>
</svg>
