<?xml version="1.0" encoding="utf-8"?>
<!-- Generator: Adobe Illustrator 24.2.1, SVG Export Plug-In . SVG Version: 6.00 Build 0)  -->
<svg version="1.1" id="레이어_1" xmlns="http://www.w3.org/2000/svg" xmlns:xlink="http://www.w3.org/1999/xlink" x="0px"
	 y="0px" width="70px" height="70px" viewBox="0 0 70 70" style="enable-background:new 0 0 70 70;" xml:space="preserve">
<style type="text/css">
	.st0{fill:#231815;}
</style>
<g>
	<path class="st0" d="M19.4,33.1c0,2.2-1.8,4-4,4l-10.9,0l0,4.7c0,1.1-0.9,2-2,2c-1.1,0-2-0.9-2-2V28.3c0-1.1,0.9-2,2-2l12.8,0
		c2.2,0,4,1.8,4,4V33.1L19.4,33.1z M15.4,33.1l0-2.8l-10.9,0v2.9H15.4L15.4,33.1z"/>
	<path class="st0" d="M23,43.7c1.1,0,2-0.9,2-2V28.3c0-1.1-0.9-2-2-2c-1.1,0-2,0.9-2,2v13.5C21.1,42.8,21.9,43.7,23,43.7L23,43.7z"
		/>
	<path class="st0" d="M30.6,41.7c0,1.1-0.9,2-2,2c-1.1,0-2-0.9-2-2l0-12.7c0-1.5,1.2-2.7,2.7-2.7c0.7,0,1.4,0.3,1.9,0.8l11.2,11
		l0-9.9c0-1.1,0.9-2,2-2c1.1,0,2,0.9,2,2l0,12.7c0,1.5-1.2,2.7-2.7,2.7c-0.7,0-1.4-0.3-1.9-0.8L30.6,31.7L30.6,41.7L30.6,41.7z"/>
	<path class="st0" d="M52.1,43.7c-2.2,0-4-1.8-4-4v-9.5c0-2.2,1.8-4,4-4l12.6,0c1.1,0,2,0.9,2,2c0,1.1-0.9,2-2,2l-12.6,0l0,9.5
		l11.7,0V37l-7.1,0c-1.1,0-2-0.9-2-2c0-1.1,0.9-2,2-2l7,0c2.2,0,4,1.8,4,4v2.8c0,2.2-1.8,4-4,4H52.1L52.1,43.7z"/>
	<path class="st0" d="M68.4,26.3c0.5,0,1,0.4,1,1c0,0.6-0.5,1-1,1c-0.6,0-1-0.4-1-1C67.4,26.7,67.8,26.3,68.4,26.3L68.4,26.3z
		 M68.4,28.1c0.5,0,0.8-0.4,0.8-0.9c0-0.5-0.4-0.9-0.8-0.9c-0.5,0-0.8,0.4-0.8,0.9C67.6,27.8,67.9,28.1,68.4,28.1L68.4,28.1z
		 M68,26.7h0.5c0.3,0,0.4,0.1,0.4,0.3c0,0.2-0.1,0.3-0.3,0.3l0.3,0.5h-0.2l-0.3-0.5h-0.2v0.5H68V26.7L68,26.7z M68.2,27.2h0.2
		c0.2,0,0.3,0,0.3-0.2c0-0.2-0.1-0.2-0.3-0.2h-0.2V27.2L68.2,27.2z"/>
</g>
</svg>
