<?xml version="1.0" encoding="utf-8"?>
<!-- Generator: Adobe Illustrator 24.2.1, SVG Export Plug-In . SVG Version: 6.00 Build 0)  -->
<svg version="1.1" id="레이어_1" xmlns="http://www.w3.org/2000/svg" xmlns:xlink="http://www.w3.org/1999/xlink" x="0px"
	 y="0px" width="70px" height="70px" viewBox="0 0 70 70" style="enable-background:new 0 0 70 70;" xml:space="preserve">
<style type="text/css">
	.st0{fill:#231815;}
</style>
<g>
	<g>
		<rect x="13.3" y="24.4" class="st0" width="2.9" height="12.2"/>
		<rect x="66.1" y="24.4" class="st0" width="2.9" height="12.2"/>
		<polygon class="st0" points="64.5,24.4 53.6,24.4 53.6,26.9 57.6,26.9 57.6,36.6 60.5,36.6 60.5,26.9 64.5,26.9 		"/>
		<polygon class="st0" points="52.7,24.4 41.8,24.4 41.8,26.9 45.8,26.9 45.8,36.6 48.7,36.6 48.7,26.9 52.7,26.9 		"/>
		<polygon class="st0" points="34,34.1 34,31.6 38.7,31.6 38.7,29.3 34,29.3 34,26.9 40.3,26.9 40.3,24.4 31.1,24.4 31.1,36.6 
			40.4,36.6 40.4,34.1 		"/>
		<path class="st0" d="M26,36.6h3.3l-2.5-4.8c1.3-0.6,2.3-2,2.3-3.6v0c0-2.1-1.8-3.9-3.9-3.9h-6.4v12.2h2.9v-4.4h2.1L26,36.6z
			 M21.7,26.9h3c0.8,0,1.5,0.7,1.5,1.5s-0.7,1.5-1.5,1.5h-3V26.9z"/>
		<path class="st0" d="M7.3,24.4H1v12.2h2.9v-4.3h3.4c2.2,0,4-1.8,4-4S9.5,24.4,7.3,24.4z M6.8,30H3.9v-3.1h2.9
			c0.9,0,1.6,0.7,1.6,1.6C8.4,29.3,7.7,30,6.8,30z"/>
	</g>
	<g>
		<path class="st0" d="M27.5,43h2.2V43c0,0.3,0,1.3-0.7,2c-0.5,0.5-1.1,0.6-1.7,0.6c-0.6,0-1.2-0.1-1.7-0.6
			c-0.2-0.2-0.7-0.8-0.7-1.8c0-0.9,0.4-1.5,0.7-1.8c0.4-0.4,1-0.7,1.9-0.7c0.4,0,0.7,0.1,1.1,0.3c0.3,0.2,0.6,0.4,0.9,0.9l-0.8,0.4
			c-0.2-0.3-0.4-0.5-0.6-0.6c-0.2-0.1-0.5-0.2-0.7-0.2c-0.4,0-0.8,0.1-1.1,0.4c-0.3,0.3-0.5,0.7-0.5,1.3c0,0.6,0.3,1,0.5,1.2
			c0.2,0.2,0.6,0.4,1.1,0.4c0.3,0,0.7-0.1,0.9-0.3c0.2-0.1,0.4-0.4,0.5-0.7h-1.2V43z"/>
		<path class="st0" d="M36.5,43.1c0,1.5-1,2.5-2.6,2.5c-1.5,0-2.6-1-2.6-2.5c0-1.5,1-2.5,2.6-2.5C35.5,40.6,36.5,41.7,36.5,43.1z
			 M35.6,43.1c0-1-0.7-1.7-1.6-1.7c-0.9,0-1.6,0.7-1.6,1.7c0,1,0.7,1.7,1.6,1.7C34.9,44.8,35.6,44.1,35.6,43.1z"/>
		<path class="st0" d="M39.4,40.7v4h1.5v0.8h-2.4v-4.8H39.4z"/>
		<path class="st0" d="M45.1,41.5h-1.6v1.1H45v0.8h-1.5v2.1h-0.9v-4.8h2.5V41.5z"/>
	</g>
</g>
</svg>
