<?xml version="1.0" encoding="utf-8"?>
<!-- Generator: Adobe Illustrator 24.2.1, SVG Export Plug-In . SVG Version: 6.00 Build 0)  -->
<svg version="1.1" id="레이어_1" xmlns="http://www.w3.org/2000/svg" xmlns:xlink="http://www.w3.org/1999/xlink" x="0px"
	 y="0px" width="70px" height="70px" viewBox="0 0 70 70" style="enable-background:new 0 0 70 70;" xml:space="preserve">
<style type="text/css">
	.st0{fill:#231815;}
</style>
<g>
	<path class="st0" d="M19.8,41.2c0,0,0.3-0.1,0.6-0.2c0.1,0,0.1-0.1,0.1-0.2c0-0.1-0.1-0.1-0.1-0.1c-1-0.1-2.4-0.5-4.4-3.6l-0.2-0.2
		c-0.8-1.2-1.4-2.2-3.4-2c-0.9,0.1-1.5,0.4-2.1,0.6c-0.4,0.2-0.7,0.3-1.1,0.4c-1,0.2-1.5,0.2-2,0.2c-0.1,0-0.2,0-0.3,0
		C4.9,36,3.7,35,3.2,32.9c0-0.1-0.1-0.1-0.2-0.1c-0.1,0-0.1,0.1-0.2,0.1c-0.1,0.2-0.3,0.8-0.4,1.3c-0.2,2.4,0.7,4,2.4,4.2
		c0.8,0.1,2.8,0.1,4.9-1.9c0.6-0.6,1.1-0.8,1.5-0.8c0.5,0.1,0.6,0.3,0.7,0.9c0.1,0.2,0.1,0.4,0.2,0.7C14.2,42.5,19.8,41.2,19.8,41.2
		L19.8,41.2z"/>
	<path class="st0" d="M51.6,43.2c-0.1,0.1-0.3,0.1-0.5,0.1c-0.4,0-0.6-0.2-0.8-0.5c-0.1-0.2-0.1-0.6-0.1-1.1V36
		c0-1.2-0.2-2.2-0.5-2.8c-0.6-1.2-1.9-1.8-3.7-1.8c-1.6,0-2.8,0.4-3.6,1.1c-0.8,0.7-1.2,1.4-1.2,2.1c0,0.3,0.1,0.6,0.3,0.9
		c0.2,0.3,0.5,0.4,1,0.4c0.3,0,0.5-0.1,0.7-0.2c0.3-0.2,0.5-0.6,0.5-1.1c0-0.1,0-0.2-0.1-0.5c0-0.3-0.1-0.5-0.1-0.6
		c0-0.4,0.2-0.8,0.6-1c0.4-0.2,0.9-0.4,1.4-0.4c1,0,1.7,0.3,2,0.9c0.2,0.4,0.3,1,0.3,2v1.2c-2.6,1-4.3,1.7-5.2,2.3
		c-1.4,0.9-2,2-2,3.4c0,0.9,0.3,1.6,0.9,2.2c0.6,0.6,1.3,0.9,2.1,0.9c0.8,0,1.6-0.3,2.4-0.8c0.5-0.3,1.1-0.8,1.8-1.4
		c0,0.6,0.2,1.1,0.5,1.5c0.3,0.4,0.7,0.6,1.4,0.6c0.5,0,1.1-0.2,1.6-0.5c0.3-0.2,0.7-0.5,1-0.9v-0.7C52,43,51.8,43.1,51.6,43.2z
		 M47.9,41.4c0,0.5-0.3,1-0.9,1.3c-0.6,0.3-1.2,0.5-1.8,0.5c-0.5,0-0.9-0.1-1.2-0.4c-0.6-0.4-0.8-1-0.8-1.9c0-1.1,0.7-2,2-2.8
		c0.7-0.4,1.6-0.8,2.7-1.2V41.4z"/>
	<path class="st0" d="M68.3,27.2L68,26.8c0.3-0.1,0.4-0.3,0.4-0.5c0-0.1-0.1-0.3-0.2-0.3c-0.1-0.1-0.3-0.1-0.4-0.1h-0.9v0.1
		c0.1,0,0.2,0,0.2,0c0,0,0,0.1,0,0.2v1.2c0,0.1,0,0.2,0,0.2c0,0-0.1,0-0.2,0v0.1h0.8v-0.1c-0.1,0-0.2,0-0.2-0.1c0,0,0-0.1,0-0.2
		v-0.5h0.3c0.1,0.2,0.2,0.4,0.4,0.6c0.1,0.2,0.2,0.2,0.2,0.2h0.3v0C68.5,27.4,68.4,27.3,68.3,27.2z M67.7,26.7h-0.2v-0.8h0.2
		c0.3,0,0.4,0.1,0.4,0.4C68,26.6,67.9,26.7,67.7,26.7z"/>
	<path class="st0" d="M64.4,33.2c-1-1.2-2.2-1.7-3.5-1.7c-1.1,0-2.1,0.4-3,1.1c-0.5,0.4-0.9,0.8-1.1,1.3v-8.6c0-0.1,0-0.1,0-0.2
		c-0.1,0-0.5,0.2-1.4,0.5c-0.9,0.3-1.8,0.6-2.9,0.8v0.5l0.6-0.1c0.5,0,0.9,0.1,1,0.3c0.1,0.2,0.2,0.6,0.2,1.2v14.9
		c0,0.4,0.5,0.8,1.5,1.2c1,0.4,2,0.6,3.1,0.6c2.1,0,3.7-0.7,5-2.1c1.3-1.4,1.9-3.1,1.9-5.1C65.9,35.9,65.4,34.4,64.4,33.2z
		 M62.5,42.5c-0.6,1-1.6,1.5-2.9,1.5c-0.5,0-1.1-0.1-1.7-0.3c-0.6-0.2-1-0.6-1.1-1v-7.2c0-0.6,0.3-1.1,1-1.6c0.6-0.4,1.3-0.6,2-0.6
		c1.3,0,2.3,0.6,2.9,1.8c0.6,1.2,0.9,2.5,0.9,3.9C63.4,40.4,63.1,41.5,62.5,42.5z"/>
	<path class="st0" d="M68.9,25.5c-0.3-0.3-0.7-0.5-1.2-0.5c-0.5,0-0.9,0.2-1.2,0.5c-0.3,0.3-0.5,0.7-0.5,1.2c0,0.5,0.2,0.9,0.5,1.2
		c0.3,0.3,0.7,0.5,1.2,0.5c0.5,0,0.9-0.2,1.2-0.5c0.3-0.3,0.5-0.7,0.5-1.2C69.4,26.2,69.2,25.8,68.9,25.5z M68.7,27.8
		c-0.3,0.3-0.6,0.4-1,0.4c-0.4,0-0.7-0.2-1-0.5c-0.3-0.3-0.4-0.6-0.4-1c0-0.4,0.1-0.8,0.4-1c0.3-0.3,0.6-0.4,1-0.4
		c0.4,0,0.7,0.1,1,0.4c0.3,0.3,0.4,0.6,0.4,1C69.1,27.1,69,27.5,68.7,27.8z"/>
	<path class="st0" d="M37.8,43.8c-0.4-0.2-0.7-0.5-1.1-1l-5.9-7.3c1.6-0.2,2.9-0.8,3.8-1.5c0.9-0.8,1.4-1.9,1.4-3.3
		c0-2.1-1-3.6-3.2-4.4c-1.1-0.4-2.5-0.6-4.2-0.6h-8v0.5c1,0.1,1.7,0.3,2,0.6c0.3,0.3,0.5,1,0.5,2v12.5c0,1.2-0.1,2-0.4,2.3
		c-0.3,0.3-1,0.5-2.1,0.6v0.5h8v-0.5c-1.1-0.1-1.8-0.3-2.1-0.6c-0.3-0.3-0.5-1-0.5-2v-5.7l1.6-0.1l6.9,8.9h4.6v-0.5
		C38.6,44.1,38.2,44,37.8,43.8z M26.1,34.8v-7.1c0-0.4,0.1-0.7,0.3-0.8c0.2-0.1,0.7-0.2,1.5-0.2c1.2,0,2.2,0.2,2.9,0.5
		c1.4,0.6,2.1,1.8,2.1,3.4c0,1.7-0.8,2.9-2.3,3.6C29.6,34.5,28.2,34.7,26.1,34.8z"/>
	<path class="st0" d="M8,29.1c0.6-0.6,1.1-0.8,1.5-0.8c0.5,0.1,0.6,0.3,0.7,0.9c0.1,0.2,0.1,0.4,0.2,0.7c1.9,5.3,7.4,4,7.5,4
		c0,0,0.3-0.1,0.6-0.2c0.1,0,0.1-0.1,0.1-0.2c0-0.1-0.1-0.1-0.1-0.1c-1-0.1-2.4-0.5-4.3-3.6L14,29.5c-0.8-1.2-1.4-2.2-3.4-2
		c-0.9,0.1-1.5,0.4-2.1,0.6c-0.4,0.2-0.7,0.3-1.1,0.4c-1,0.2-1.5,0.2-2,0.2c-0.1,0-0.2,0-0.3,0c-2.1-0.1-3.2-1.1-3.7-3.2
		c0-0.1-0.1-0.1-0.2-0.1c-0.1,0-0.1,0.1-0.2,0.1c-0.1,0.2-0.3,0.8-0.4,1.3c-0.2,2.4,0.7,4,2.4,4.2C3.8,31.2,5.9,31.2,8,29.1L8,29.1z
		"/>
</g>
</svg>
