<?xml version="1.0" encoding="UTF-8"?>
<svg width="16px" height="16px" viewBox="0 0 16 16" version="1.1" xmlns="http://www.w3.org/2000/svg" xmlns:xlink="http://www.w3.org/1999/xlink">
    <title>C3CACC2F-AB0B-4E5D-B421-8E237E6CB47D</title>
    <defs>
        <path d="M11.7660539,4.2339461 C11.4540315,3.92201797 10.9482433,3.92201797 10.6362209,4.2339461 L8.00500456,6.86516247 L5.37378819,4.2339461 C5.06026442,3.93113472 4.5619027,3.93546535 4.25368859,4.24367946 C3.94547447,4.55189358 3.94114384,5.0502553 4.24395522,5.36377907 L6.8751716,7.99499544 L4.24395522,10.6262118 C4.03624128,10.8268287 3.95293726,11.1239119 4.02606114,11.4032775 C4.09918501,11.682643 4.31735701,11.900815 4.59672253,11.9739389 C4.87608806,12.0470627 5.17317135,11.9637587 5.37378819,11.7560448 L8.00500456,9.1248284 L10.6362209,11.7560448 C10.9497447,12.0588562 11.4481064,12.0545255 11.7563205,11.7463114 C12.0645347,11.4380973 12.0688653,10.9397356 11.7660539,10.6262118 L9.13483753,7.99499544 L11.7660539,5.36377907 C12.077982,5.05175671 12.077982,4.54596845 11.7660539,4.2339461 Z" id="path-1"></path>
    </defs>
    <g id="Symbols" stroke="none" stroke-width="1" fill="none" fill-rule="evenodd">
        <g id="Icons/16px/Remove">
            <mask id="mask-2" fill="white">
                <use xlink:href="#path-1"></use>
            </mask>
            <use id="Path" fill="#ffffff" fill-rule="nonzero" xlink:href="#path-1"></use>
        </g>
    </g>
</svg>