<?xml version="1.0" encoding="utf-8"?>
<!-- Generator: Adobe Illustrator 24.2.1, SVG Export Plug-In . SVG Version: 6.00 Build 0)  -->
<svg version="1.1" id="레이어_1" xmlns="http://www.w3.org/2000/svg" xmlns:xlink="http://www.w3.org/1999/xlink" x="0px"
	 y="0px" width="70px" height="70px" viewBox="0 0 70 70" style="enable-background:new 0 0 70 70;" xml:space="preserve">
<style type="text/css">
	.st0{fill:#231815;}
</style>
<g>
	<path class="st0" d="M26.2,28.9l-1.6,7.1h1.9l1.6-7.1H26.2z M23.4,31.1l-1.8,3.1l-0.5-3.1h-1.9l1.2,4.9c-0.2,0.5-0.6,0.8-1.1,0.8
		c-0.4,0-0.6-0.1-0.8-0.1L18.1,38c0.4,0.1,0.8,0.2,1.5,0.2c1.2,0,1.8-0.6,2.3-1.5l3.5-5.6H23.4z M13.8,29.6c0-0.3,0.2-1-0.5-1.3
		c-5-2.5-9.9-1.2-12.1,1.5C6.4,28.7,10.7,29.1,13.8,29.6 M12.1,32.1c-1.3,0.1-1.8,1-2.5,2.1c-0.5,0.9-2.3,4-3.1,5.3
		c0.9,0.4,1.7,0.4,2.7,0.2c0.6-0.2,0.9-0.4,1.3-0.6c0.1-0.1,0.2-0.2,0.3-0.3l0,0c0,0,0,0,0,0c1.2-1.8,2-4.5,2.4-6
		c0-0.2,0.1-0.4,0.1-0.5C12.9,32,12.5,32,12.1,32.1 M5.3,32c-2.2,0.3-3.9,0.9-4.8,1.2c0,0,0.2,2.1,4,4.9c1.2-1.8,1.9-3.2,2.3-4.6
		C7.2,32.2,6.6,31.9,5.3,32 M63.5,31c-2.4,0-3.2,1.8-3.2,2.9c0,1.2,1,2.3,2.8,2.3c0.5,0,1.2-0.1,1.9-0.3l0.2-1.2
		c-0.5,0.2-1.2,0.3-1.7,0.3c-1.1,0-1.4-0.4-1.4-1h3.8c0.1-0.3,0.1-0.7,0.1-0.9C66,31.7,65,31,63.5,31 M62.2,33.1
		c0.1-0.5,0.6-1,1.4-1c0.7,0,0.9,0.4,0.9,1H62.2z M59.1,28.9l-0.6,3c0,0-0.4-0.9-1.9-0.9c-1.8,0-2.7,1.5-2.7,3.1c0,1.1,0.8,2,2,2
		c1.4,0,2-0.9,2-0.9l-0.1,0.8h1.7c0-0.2,0.1-0.4,0.1-0.7l1.4-6.4H59.1z M56.6,34.9c-0.6,0-0.9-0.4-0.9-1c0-0.8,0.5-1.5,1.4-1.5
		c0.6,0,0.9,0.5,0.9,1C58,34,57.5,34.9,56.6,34.9 M38,31c-1.1,0-1.7,1.1-1.7,1.1l0.2-1h-1.7c-0.1,0.4-0.1,0.9-0.2,1.3l-0.8,3.7h1.9
		l0.5-2.3c0.1-0.7,0.6-1.4,1.4-1.4c0.4,0,0.6,0,0.9,0.2l0.4-1.5C38.5,31,38.2,31,38,31 M31,31c-2.1,0-3.5,1.2-3.5,2.9
		c0,1.2,0.8,2.3,2.8,2.3c2,0,3.5-0.9,3.5-3C33.8,32,32.9,31,31,31 M30.5,35c-0.6,0-1-0.4-1-1.1c0-0.8,0.6-1.7,1.5-1.7
		c0.7,0,1,0.5,1,1C31.9,34.3,31.4,35,30.5,35 M51.1,31c-0.8,0-1.4,0.1-2,0.3L49,32.5c0.6-0.3,1.1-0.4,1.7-0.4c1,0,1,0.7,1,0.8
		c-0.3,0-0.6,0-1,0c-1.6,0-3,0.6-3,1.8c0,1,0.6,1.4,1.8,1.4c1.3,0,1.8-0.8,1.8-0.8l-0.1,0.7h1.5c0.2-1.5,0.7-2.6,0.7-3.4
		C53.4,31.5,52.4,31,51.1,31 M50.1,35.1c-0.4,0-0.6-0.3-0.6-0.5c0-0.5,0.8-0.8,2-0.7C51.4,34.5,50.9,35.1,50.1,35.1 M45.3,29.4
		l-2.3,4.5h0l-0.1-4.5h-3l-1.6,6.6h1.8l1.3-5.5l0.3,5.5h1.8l2.8-5.4L45,36.1h1.9l1.5-6.6H45.3z"/>
	<path class="st0" d="M66.8,30.2h-0.4L66.3,31h0.2l0.1-0.3h0.2c0.1,0,0.1,0,0.1,0.1c0,0.1,0,0.1,0,0.2h0.2l0,0c0,0,0,0,0-0.1
		c0-0.1,0-0.2-0.1-0.2c0.1,0,0.1-0.1,0.2-0.2C67,30.4,67,30.2,66.8,30.2 M66.8,30.5c0,0.1-0.1,0.1-0.1,0.1h-0.2l0-0.2L66.8,30.5
		C66.8,30.4,66.8,30.4,66.8,30.5 M66.6,29.9c-0.4,0-0.7,0.3-0.7,0.7c0,0.4,0.3,0.7,0.7,0.7c0.4,0,0.7-0.3,0.7-0.7
		C67.4,30.2,67,29.9,66.6,29.9 M66.6,31.2c-0.3,0-0.6-0.3-0.6-0.6c0-0.3,0.3-0.6,0.6-0.6c0.3,0,0.6,0.3,0.6,0.6
		C67.2,31,67,31.2,66.6,31.2"/>
	<path class="st0" d="M18.3,36.1c0.2-1.5,0.7-2.6,0.7-3.4c0-1.2-1-1.7-2.3-1.7c-0.8,0-1.4,0.1-2,0.3l-0.2,1.2
		c0.6-0.3,1.1-0.4,1.7-0.4c1,0,1,0.7,1,0.8c-0.3,0-0.6,0-1,0c-1.6,0-3,0.6-3,1.8c0,1,0.6,1.4,1.8,1.4c1.3,0,1.8-0.8,1.8-0.8
		l-0.1,0.7H18.3z M15.7,35.1c-0.4,0-0.6-0.3-0.6-0.5c0-0.5,0.8-0.8,2-0.7C16.9,34.5,16.4,35.1,15.7,35.1"/>
	<path class="st0" d="M48.9,38.4c0,0,0.1-0.1,0.1-0.1h0.7c0,0,0.1,0,0.1,0.1l0.1,4.6c0,0,0,0.1-0.1,0.1h-0.7c0,0-0.1,0-0.1-0.1l0-1
		h-1.1l-0.4,1c0,0-0.1,0.1-0.1,0.1h-0.7c-0.1,0-0.1,0,0-0.1L48.9,38.4z M49.1,41.4l0-1.8h0l-0.8,1.8H49.1z"/>
	<path class="st0" d="M50.5,43.1C50.4,43.1,50.4,43,50.5,43.1l1-4.7c0,0,0-0.1,0.1-0.1l1.1,0c0.2,0,0.5,0,0.6,0.1
		c0.2,0.1,0.3,0.1,0.4,0.2c0.1,0.1,0.2,0.3,0.2,0.4c0,0.2,0,0.4-0.1,0.7c-0.1,0.5-0.3,0.9-0.7,1.1c-0.3,0.2-0.7,0.3-1.2,0.3h-0.3
		c0,0-0.1,0-0.1,0L51.3,43c0,0,0,0.1-0.1,0.1H50.5z M52.2,40.6c0.1,0,0.2,0,0.3,0c0.1,0,0.2-0.1,0.2-0.1c0.1-0.1,0.1-0.1,0.2-0.2
		c0.1-0.1,0.1-0.2,0.1-0.4c0.1-0.3,0.1-0.5,0-0.6C53,39.1,52.8,39,52.6,39h-0.3c0,0-0.1,0-0.1,0l-0.3,1.5c0,0,0,0,0,0H52.2z"/>
	<path class="st0" d="M53.9,43.1C53.8,43.1,53.8,43,53.9,43.1l1-4.7c0,0,0-0.1,0.1-0.1h1.1c0.2,0,0.5,0,0.6,0.1
		c0.2,0.1,0.3,0.1,0.4,0.2c0.1,0.1,0.2,0.3,0.2,0.4c0,0.2,0,0.4-0.1,0.7c-0.1,0.5-0.3,0.9-0.7,1.1c-0.3,0.2-0.7,0.3-1.2,0.3h-0.3
		c0,0-0.1,0-0.1,0L54.7,43c0,0,0,0.1-0.1,0.1H53.9z M55.6,40.6c0.1,0,0.2,0,0.3,0c0.1,0,0.2-0.1,0.2-0.1c0.1-0.1,0.1-0.1,0.2-0.2
		c0.1-0.1,0.1-0.2,0.1-0.4c0.1-0.3,0.1-0.5,0-0.6c-0.1-0.1-0.2-0.2-0.5-0.2h-0.3c0,0-0.1,0-0.1,0l-0.3,1.5c0,0,0,0,0,0H55.6z"/>
	<path class="st0" d="M58.9,38.4c0,0,0.1-0.1,0.1-0.1l0.7,0c0,0,0.1,0,0.1,0.1l0.1,4.6c0,0,0,0.1-0.1,0.1h-0.7c0,0-0.1,0-0.1-0.1
		l0-1L58,42l-0.4,1c0,0-0.1,0.1-0.1,0.1h-0.7c-0.1,0-0.1,0,0-0.1L58.9,38.4z M59.1,41.4l0-1.8h0l-0.8,1.8L59.1,41.4z"/>
	<path class="st0" d="M62.5,43.1C62.5,43.1,62.5,43,62.5,43.1l-0.3-1.9h-0.1h-0.3c0,0-0.1,0-0.1,0L61.3,43c0,0,0,0.1-0.1,0.1h-0.7
		c-0.1,0-0.1,0-0.1-0.1l1.1-4.6c0,0,0-0.1,0.1-0.1h1.1c0.2,0,0.5,0,0.6,0.1c0.2,0,0.3,0.1,0.4,0.2c0.1,0.1,0.2,0.3,0.2,0.4
		c0,0.2,0,0.4,0,0.7c-0.1,0.3-0.2,0.6-0.4,0.8c-0.2,0.2-0.4,0.3-0.6,0.4l0.3,2c0,0,0,0.1-0.1,0.1H62.5z M62.2,40.5
		c0.2,0,0.4-0.1,0.6-0.2c0.1-0.1,0.2-0.3,0.3-0.6c0.1-0.3,0.1-0.5,0-0.6C63,39.1,62.8,39,62.6,39h-0.3c0,0-0.1,0-0.1,0l-0.3,1.4
		c0,0,0,0,0,0H62.2z"/>
	<path class="st0" d="M65,38.4C65,38.4,65.1,38.3,65,38.4l2.4-0.1c0.1,0,0.1,0,0.1,0.1l-0.1,0.5c0,0,0,0.1-0.1,0.1l-1.4,0
		c0,0-0.1,0-0.1,0l-0.3,1.2c0,0,0,0,0,0l1.2,0c0.1,0,0.1,0,0.1,0.1l-0.1,0.5c0,0,0,0.1-0.1,0.1l-1.2,0c0,0-0.1,0-0.1,0L65,42.3
		c0,0,0,0,0,0h1.4c0.1,0,0.1,0,0.1,0.1L66.4,43c0,0,0,0.1-0.1,0.1l-2.3,0c-0.1,0-0.1,0-0.1-0.1L65,38.4z"/>
	<path class="st0" d="M68.1,38.4C68.1,38.4,68.1,38.3,68.1,38.4l0.8-0.1c0.1,0,0.1,0,0.1,0.1L68,42.3c0,0,0,0,0,0h1.4
		c0.1,0,0.1,0,0.1,0.1L69.4,43c0,0,0,0.1-0.1,0.1h-2.3C67,43.1,67,43,67,43L68.1,38.4z"/>
</g>
</svg>
