<?xml version="1.0" encoding="utf-8"?>
<!-- Generator: Adobe Illustrator 24.2.1, SVG Export Plug-In . SVG Version: 6.00 Build 0)  -->
<svg version="1.1" id="레이어_1" xmlns="http://www.w3.org/2000/svg" xmlns:xlink="http://www.w3.org/1999/xlink" x="0px"
	 y="0px" width="70px" height="70px" viewBox="0 0 70 70" style="enable-background:new 0 0 70 70;" xml:space="preserve">
<style type="text/css">
	.st0{fill:#231815;}
</style>
<g>
	<path class="st0" d="M69.4,30c0,0.4-0.1,0.6-0.1,0.8c-0.1,0-0.1,0-0.2,0.1c0,0,0,0.1-0.1,0.1h-2.2V40H65v-8.9h-2.2v1.2
		c-0.2-0.1-0.3-0.2-0.5-0.3h-0.1v-0.1H62v-0.1c-0.2,0-0.5,0-0.7-0.1v-0.1h-0.6v0.1h-0.4c-0.4,0.2-0.7,0.5-0.8,1.1h0.1
		c0,0.1,0,0.3,0.1,0.4c0.1,0.1,0.2,0.1,0.3,0.2v0.1c0.1,0,0.2,0,0.3,0.1c0,0,0,0.1,0.1,0.1h0.1v0.1c0.1,0,0.2,0,0.3,0.1V34H61V34
		h0.1v0.1h0.1v0.1c0.1,0,0.3,0.1,0.4,0.1v0.1h0.2v0.1h0.1v0.1h0.1c0,0,0,0.1,0.1,0.1c0.1,0,0.3,0.1,0.4,0.1c0,0.1,0.1,0.1,0.1,0.2
		H63c0.1,0.1,0.1,0.2,0.2,0.3h0.1v0.1c0,0,0.1,0,0.1,0.1v0.1h0.1v0.1h0.1V36h0.1v0.4h0.1c0,0.3-0.1,0.6-0.1,0.9h-0.1
		c0,0.1,0,0.2-0.1,0.3h-0.1v0.1c-0.1,0-0.1,0.1-0.2,0.1v0.1h-0.1c0,0.1-0.1,0.1-0.1,0.2h-0.1c0,0.1-0.1,0.1-0.1,0.2h-0.1
		c0,0,0,0.1-0.1,0.1h-0.1v0.1c-0.1,0-0.2,0-0.3,0.1v0.1h-0.2c-0.7,0.2-1.7,0.3-2.5,0.1H59c-0.1,0-0.9-0.5-0.9-0.5v-0.3
		c0.1-0.1,0.1-0.1,0.1-0.2c0.3,0.1,0.5,0.1,0.8,0.2v0.1c0.2,0.1,1.5,0.3,1.9,0.1v-0.1h0.2v-0.1h0.2v-0.1c0.1,0,0.2,0,0.3-0.1
		c0.2-0.2,0.3-0.4,0.5-0.6c0-0.2,0-0.4,0.1-0.6h-0.1v-0.2h-0.1c0-0.1,0-0.2-0.1-0.3c-0.2-0.1-0.4-0.3-0.6-0.4h-0.1V36h-0.1v-0.1H61
		v-0.1h-0.1v-0.1c-0.1,0-0.2,0-0.3-0.1v-0.1h-0.2v-0.1h-0.1v-0.1c-0.1,0-0.2,0-0.3-0.1v-0.1h-0.2v-0.1h-0.1v-0.1h-0.1
		c0,0,0-0.1-0.1-0.1c-0.1,0-0.2,0-0.3-0.1c0,0,0-0.1-0.1-0.1h-0.1c-0.1-0.2-0.3-0.3-0.4-0.5c0,0-0.1-0.1-0.1-0.1
		c0-0.1-0.1-0.3-0.1-0.4h-0.1v-0.3h-0.1c-0.1-0.5,0.1-1.1,0.2-1.3c0-0.1,0-0.2,0.1-0.3c0.1,0,0.1-0.1,0.2-0.1
		c0.1-0.1,0.2-0.3,0.4-0.4H59c0,0,0-0.1,0.1-0.1c0.1,0,0.2,0,0.3-0.1v-0.1h0.2V31h0.1v-0.1c0.2,0,0.4,0,0.6-0.1v-0.1
		c0.4,0,0.8,0,1.2-0.1v0.1c0.4,0,0.7,0,1.1,0.1V30H69.4 M54.9,31.9v2.7h2.8c0.1,0.2,0.1,0.3,0.1,0.6c-0.1,0.1-0.2,0.3-0.4,0.4h-2.5
		v2.3h2.9v1.1h-4.3c-0.1,0.2-0.1,0.3-0.5,0.4c-0.2,0.2-1.4,0-1.6-0.1v-0.1h-0.1v-0.1c-0.1,0-0.2,0-0.3-0.1v-0.1
		c-0.1,0-0.1,0-0.2-0.1c0,0,0-0.1-0.1-0.1h-0.1c-0.2-0.2-0.4-0.4-0.6-0.6c-0.1-0.1-0.2-0.2-0.4-0.3v-0.1c-0.1,0-0.1-0.1-0.2-0.1
		v-0.1c0,0-0.1,0-0.1-0.1c0-0.1,0-0.1-0.1-0.2h-0.1v-0.1c0,0-0.1,0-0.1-0.1c0-0.1-0.1-0.3-0.1-0.4c0,0-0.1,0-0.1-0.1v-0.1
		c-0.1-0.3-0.3-0.4-0.4-0.8c0.5,0,0.9-0.1,1.3-0.1c0.1-0.2,0.2-0.1,0.3-0.2c0-0.1,0-0.1,0.1-0.2c0,0,0.1,0,0.1-0.1v-0.1h0.1v-0.1
		h0.1v-0.2h0.1v-0.2h0.1c0.1-0.3,0-0.8-0.1-0.9v-0.3h-0.1v-0.1h-0.1c0-0.1,0-0.2-0.1-0.3c-0.1,0-0.1-0.1-0.2-0.1v-0.1h-0.1
		c0,0,0-0.1-0.1-0.1c-0.4-0.2-1-0.2-1.6-0.2v7.1h-1.7v-2.4c0-0.4,0-0.9-0.1-1.2c-1.2,0.5-2.2-0.1-3.5-0.1v0.1
		c0.1,0.1,0.3,0.9,0.4,1.1c-0.7,0-1.4,0-1.9-0.2c0-0.4-0.2-0.7-0.3-1c-0.2,0.1-0.4,0.1-0.6,0.2v-0.2c0.7-0.4,1.4-0.7,2.5-0.7h0.8
		c0.6,0.2,2.4,0.7,3.2,0.4v-0.1H47c0,0,0.1-0.1,0.1-0.1v-0.1h-0.2v0.1h-0.6V31c1.9,0,4.1-0.3,5.2,0.6c0,0.1,0,0.1,0.1,0.2
		c0.1,0,0.1,0.1,0.2,0.1v0.1c0.3,0.5,0.5,1.3,0.3,2v0.3h-0.1v0.2H52v0.1h-0.1v0.1c0,0-0.1,0-0.1,0.1V35c0,0-0.1,0-0.1,0.1v0.1
		c0,0-0.1,0-0.1,0.1c-0.4,0.4-0.6,0.5-1.1,0.7c0,0.1,0,0.1,0.1,0.1c0,0.1,0,0.1,0.1,0.2h0.1v0.1h0.1v0.1c0,0,0.1,0,0.1,0.1
		c0,0.1,0,0.2,0.1,0.3c0,0,0.1,0,0.1,0.1c0.4,0.7,1.1,1.7,2.1,1.7v-7.8c0.4-0.1,1-0.1,1.5-0.1h3.1c0.1,0.2,0.1,0.6,0.1,1H54.9
		 M40.9,34.8c-0.2-0.8-0.4-1.5-0.6-2.3c-0.1,0.1,0,0-0.1,0.1c-0.2,0.2-0.2,0.7-0.4,1.1h-0.1V34h-0.1c0,0.2-0.1,0.4-0.1,0.6
		c-0.2,0.4-0.4,0.8-0.4,1.3c-0.4,0-0.8,0-1.1,0.1c0.7-2,1.3-4,2-6h1.3c0.3,1,0.6,2,0.9,3c0.1,0.3,0.3,0.7,0.4,1.1
		C41.9,34.4,41.4,34.6,40.9,34.8 M38,36.5L38,36.5l1.1-0.1v0.1c0.5,0,0.9,0,1.4,0.1v0.1h0.5v0.1h0.5v0.1h0.8c0.1,0,0.3,0.1,0.5,0.1
		v-0.1h0.7c0.5-0.1,0.9-0.3,1.3-0.5v0.1h-0.1v0.1c-0.1,0.1-1.1,0.6-1.3,0.6c0.2,0.6,0.4,1.2,0.6,1.8h-1.9v-0.1h-0.1
		c0-0.2-0.3-1.1-0.4-1.2c-0.2-0.2-1-0.1-1.3-0.1c-0.1-0.1-0.4,0-0.6-0.1v-0.1c-0.4,0-0.8-0.1-1.1-0.1v0.1h-0.1
		c0,0.4-0.2,0.8-0.4,1.1c-0.1,0.2,0,0.2-0.1,0.4v0.1h-1V39H37c0.2-0.5,0.4-1.1,0.6-1.7c-0.6,0-2,0-2.3,0.3c-0.1,0.2-0.1,0.8-0.1,1.1
		h0.1v0.3h-1.7c-0.1-1.9-0.2-3.9-0.3-5.8c-0.1,0.1,0,0-0.1,0.1h-0.1v0.2h-0.1c0,0.1,0,0.2-0.1,0.3H33V34h-0.1v0.1h-0.1v0.2h-0.1
		c0,0.1,0,0.2-0.1,0.3h-0.1v0.2h-0.1c0,0.1,0,0.2-0.1,0.3h-0.1c-0.1,0.2-0.1,0.5-0.2,0.7h-0.1V36H32v0.2H32c0,0.1,0,0.2-0.1,0.3
		h-0.1v0.2h-0.1c0,0.1,0,0.2-0.1,0.3h-0.1v0.2h-0.1v0.1h-0.1v0.2h-0.1c0,0.1,0,0.2-0.1,0.3h-0.1V38h-0.1c0,0.1,0,0.2-0.1,0.3h-0.1
		v0.2c-0.1,0.1-0.3,0.2-0.4,0.4H30c0-0.2-0.1-0.4-0.1-0.6h-0.1v-0.1h-0.1c0-0.1,0-0.3-0.1-0.4h-0.1c0-0.1,0-0.3-0.1-0.4h-0.1v-0.1
		h-0.1v-0.2h-0.1v-0.2h-0.1v-0.2h-0.1v-0.2h-0.1v-0.1H29v-0.2h-0.1v-0.2h-0.1v-0.2h-0.1v-0.2h-0.1v-0.1h-0.1c0-0.1,0-0.3-0.1-0.4
		h-0.1c-0.2-0.5-0.3-1-0.5-1.5H28v0.6c-0.2,0.3,0,1-0.1,1.4h-0.1v1.3h-0.1c0,0.8,0,1.6-0.1,2.4H27C27,39,27,38.9,27,39v0.2
		c-0.3,0.1-1.1,0.3-1.6,0.1v-0.1c-0.1,0-0.3,0-0.4-0.1v-0.1c-0.1,0-0.3-0.1-0.4-0.1v-0.1h-0.1c0-0.1-0.1-0.1-0.1-0.2h-0.1
		c0,0,0-0.1-0.1-0.1c-0.2-0.1-0.3-0.3-0.5-0.4V38c-0.1-0.1-0.2-0.1-0.3-0.2v-0.1c0,0-0.1,0-0.1-0.1c0-0.1,0-0.1-0.1-0.2H23v-0.1
		c0,0-0.1,0-0.1-0.1c-0.3-0.6-0.6-1.1-0.8-1.7c0.4,0,1.1,0,1.3-0.1c0-0.1,0.1-0.1,0.1-0.2c0.1,0,0.1,0,0.2-0.1v-0.1
		c0,0,0.1,0,0.1-0.1v-0.1h0.1v-0.1H24c0-0.2,0-0.3,0.1-0.5h0.1c0.1-0.3,0-1-0.1-1.1c-0.2-0.9-1.1-1-2.2-1v7.1h-1.7
		c-0.2-0.6-0.1-1.8-0.1-2.5V31c1.5,0,4-0.3,5,0.4c0,0.1,0.1,0.1,0.1,0.2c0.1,0.1,0.2,0.2,0.4,0.3V32c0,0,0.1,0,0.1,0.1
		c0,0.1,0,0.2,0.1,0.4h0.1v0.2h0.1V33H26c0.2,0.5-0.1,1.2-0.2,1.5v0.2h-0.1v0.1c0,0-0.1,0-0.1,0.1V35c0,0-0.1,0-0.1,0.1v0.1h-0.1
		c-0.1,0.1-0.1,0.2-0.2,0.3H25c0,0.1-0.1,0.1-0.1,0.2c-0.2,0.1-0.5,0.2-0.7,0.3c0,0.1,0,0.1,0.1,0.1c0,0.2,0.2,0.4,0.3,0.6h0.1
		c0,0.1,0,0.2,0.1,0.3c0,0,0.1,0,0.1,0.1v0.1c0,0,0.1,0,0.1,0.1v0.1c0.3,0.5,0.9,1.2,1.7,1.3c0.2-2.6,0.3-5.2,0.5-7.8
		c0.4-0.1,1.1-0.1,1.5-0.1c0.4,1.1,0.8,2.3,1.3,3.3c0,0.2,0.1,0.4,0.1,0.6h0.1V35h0.1c0,0.2,0.1,0.4,0.1,0.6h0.1v0.1h0.1V36
		c0.1,0.2,0.2,0.4,0.2,0.6h0.1c0-0.1,0.1-0.3,0.1-0.4h0.1V36h0.1v-0.1h0.1c0-0.1,0-0.2,0.1-0.3h0.1v-0.2h0.1v-0.1h0.1
		c0-0.1,0.1-0.3,0.1-0.4h0.1v-0.2h0.1v-0.1h0.1c0-0.1,0-0.2,0.1-0.3H32v-0.2H32v-0.1h0.1c0-0.1,0.1-0.3,0.1-0.4h0.1v-0.2h0.1V33h0.1
		v-0.1h0.1v-0.1h0.1v-0.2h0.1c0-0.1,0-0.2,0.1-0.3h0.1v-0.1h0.1v-0.1H33v-0.2H33c0-0.1,0-0.2,0.1-0.3h0.1v-0.1h0.1
		c0.1-0.2,0-0.2,0.1-0.4v-0.1h1.6c0.1,0.1,0,0,0.1,0.1c0,0-0.1,1.5,0,1.8h0.1v1c0,0.5,0,1.1,0.1,1.6c0,0.3,0,1.5,0,1.6
		c-0.2,0.2-0.6,0.4-0.8,0.5v0.2h0.1c0.2-0.2,0.5-0.2,0.7-0.4v-0.1h0.2v-0.1h0.1V37h0.2v-0.1h0.2v-0.1h0.2v-0.1h0.2v-0.1h0.3v-0.1
		c0.2,0,0.5,0,0.7-0.1v-0.1H38 M16.4,31.9v2.7h2.8c0,0.1,0.1,0.3,0.1,0.5h-0.1v0.2h-0.1v0.1c-0.6,0.3-1.8,0.2-2.8,0.2v2.3h2.9v1.1
		h-4.7v-8h4.6c0.1,0.2,0.1,0.6,0.1,1H16.4 M11.9,35.2L11.9,35.2c-0.2,0.3-0.2,0.2-0.5,0.4v0.1H9.1v3.3H7.4v-8H7.3
		c-0.2,0.3-1.7,0.2-2.3,0.1c-0.2,0.5-0.1,2-0.1,2.8V40H3.2v-8.9H0.6V30h7c0,0.5-0.1,0.6-0.1,0.9h0.1c0.2-0.1,1.2-0.1,1.6-0.1
		c0.1,0.3,0.1,0.9,0.1,1.3v2.5h2.7v-3.7c0.4-0.2,1.2-0.1,1.8-0.1v8h-1.8V35.2"/>
</g>
</svg>
