<?xml version="1.0" encoding="utf-8"?>
<!-- Generator: Adobe Illustrator 24.2.1, SVG Export Plug-In . SVG Version: 6.00 Build 0)  -->
<svg version="1.1" id="레이어_1" xmlns="http://www.w3.org/2000/svg" xmlns:xlink="http://www.w3.org/1999/xlink" x="0px"
	 y="0px" width="70px" height="70px" viewBox="0 0 70 70" style="enable-background:new 0 0 70 70;" xml:space="preserve">
<style type="text/css">
	.st0{fill:#231815;}
</style>
<g>
	<path class="st0" d="M68.2,30.6c0-0.4,0.3-0.6,0.6-0.6c0.3,0,0.6,0.3,0.6,0.6c0,0.4-0.3,0.6-0.6,0.6C68.5,31.3,68.2,31,68.2,30.6
		 M68.9,31.2c0.3,0,0.5-0.2,0.5-0.5c0-0.3-0.2-0.5-0.5-0.5c-0.3,0-0.5,0.2-0.5,0.5C68.4,30.9,68.6,31.2,68.9,31.2z M68.7,31h-0.1
		v-0.7h0.3c0.2,0,0.3,0.1,0.3,0.2c0,0.1-0.1,0.2-0.2,0.2l0.2,0.3h-0.1l-0.2-0.3h-0.1V31z M68.9,30.6c0.1,0,0.2,0,0.2-0.1
		c0-0.1-0.1-0.1-0.2-0.1h-0.1v0.2H68.9z"/>
	<path class="st0" d="M48.3,30.5c0-0.4,0.3-0.6,0.6-0.6c0.3,0,0.6,0.3,0.6,0.6c0,0.4-0.3,0.6-0.6,0.6C48.6,31.1,48.3,30.8,48.3,30.5
		 M48.9,31c0.3,0,0.5-0.2,0.5-0.5c0-0.3-0.2-0.5-0.5-0.5c-0.3,0-0.5,0.2-0.5,0.5C48.4,30.8,48.6,31,48.9,31z M48.8,30.8h-0.1v-0.7
		H49c0.2,0,0.3,0.1,0.3,0.2c0,0.1-0.1,0.2-0.2,0.2l0.2,0.3h-0.1l-0.2-0.3h-0.1V30.8z M48.9,30.4c0.1,0,0.2,0,0.2-0.1
		c0-0.1-0.1-0.1-0.2-0.1h-0.1v0.2H48.9z"/>
	<g>
		<path class="st0" d="M7.7,29.4c0.2,1,0.5,1.9,0.6,2.9c0,0.2,0,0.3-0.2,0.5C8.1,32.9,8,33,7.8,33c-0.2,0-0.4-0.1-0.5-0.2
			c-0.4-0.6-0.5-1.4-1.1-1.9c-0.1-0.1-0.3-0.2-0.5-0.1l-0.1,0.1l0.1,8.9c0,0.3,0.3,0.5,0.6,0.6c0.2-0.1,0.4-0.3,0.4-0.5l0-0.5l0-4.3
			c-0.1-0.3-0.5-0.3-0.6-0.6c0-0.2,0.2-0.3,0.4-0.4c0.6-0.2,1.2-0.4,1.7-0.7c0.2,0,0.4,0,0.5,0l0.1,0.1L9,39.7
			c0,0.2,0.1,0.5,0.4,0.5c0.1,0.1,0.1,0.2,0,0.4c-0.1,0.2-0.4,0.2-0.6,0.2H6.7c-0.2,0-0.3-0.1-0.4-0.2c-0.4,0.3-1.2,0.2-1.7,0.2
			c-0.6-0.1-1.4,0.2-1.9-0.2c-0.1-0.1-0.1-0.2-0.1-0.3C2.7,40.2,3,40.3,3.1,40l0.1-0.3l0-6.8l0-2.1c-0.1-0.1-0.2-0.1-0.3-0.1
			c-0.2,0-0.4,0.3-0.5,0.4c-0.3,0.5-0.4,1-0.7,1.5c-0.1,0.2-0.2,0.3-0.4,0.3c-0.2,0.1-0.5,0-0.6-0.2c-0.3-0.3,0-0.8,0-1.2l0.5-2.1
			c0.1-0.1,0.1-0.3,0.2-0.3c0.4-0.1,0.5,0.4,0.8,0.3l4.6,0c0.3,0,0.4-0.5,0.8-0.2L7.7,29.4"/>
	</g>
	<path class="st0" d="M36.1,29.6l0.1,0.1l0,1.5l0.1,8.5c0,0.2,0.1,0.5,0.4,0.6c0.1,0.1,0.1,0.2,0,0.4C36.6,40.9,36.3,41,36,41
		l-1.9,0c-0.2,0-0.3-0.1-0.4-0.2c-0.1-0.1-0.1-0.3,0-0.4c0.2-0.1,0.4-0.3,0.4-0.5l0-4c0-0.3,0-0.8,0-1.1c-0.1,0.4,0,0.9-0.4,1.1
		c-0.2,0.1-0.3,0-0.5-0.1c-0.2-0.2-0.3-0.4-0.3-0.6c-0.1-0.1-0.3,0-0.4,0c-1.5,1.1-0.9,3.1-1,4.8c0,0.3,0.4,0.2,0.4,0.5
		c0,0.1-0.1,0.3-0.1,0.4c-0.1,0.1-0.4,0.1-0.5,0.1l-2.1,0c-0.1,0-0.3-0.1-0.3-0.3c0-0.1,0-0.2,0-0.3c0.1-0.1,0.4-0.1,0.4-0.3l0-0.5
		l0-4.5c0-0.4-0.6-0.3-0.5-0.8L29,34c0.6-0.3,1.3-0.5,1.9-0.7c0.2,0,0.5,0,0.6,0.2c0.1,0.3,0,0.7,0.1,1.1c0,0,0.1,0,0.1,0
		c0.4-0.6,0.9-1.3,1.6-1.2c0.3,0,0.6,0,0.8,0.3l0-0.1l0-1.7l0,0c0-0.2,0-0.4,0-0.5c0-0.4-0.6-0.4-0.4-0.8c0.5-0.6,1.4-0.6,2.1-1.1
		C35.8,29.4,35.9,29.5,36.1,29.6"/>
	<path class="st0" d="M63.1,30.7l0.3-0.1c0,0-0.5-1.1-0.7-1.7c0.2,0,0.3,0,0.5,0c0.2,0.4,0.7,1.3,0.7,1.3s0.8-0.4,1.2-0.6
		c0.1,0,0.2,0.1,0.3,0.2l-1.2,1.1l0.3,1c0,0,0.8-1.2,1.3-1.8c0.1,0,0.3,0.1,0.4,0.3c-0.2,0.3-0.4,0.6-0.6,0.9c0.5,0,1,0,1.5,0.1
		c0.1,0.1,0.3,0.3,0.3,0.5l-1.3,0.1l-0.6,1l0.8-0.2c0,0,0.6-0.3,1.3-0.5c0.1,0.2,0.2,0.3,0.2,0.5l-1.4,0.5l-1.2,0.3
		c-0.2,0.2-0.3,0.4-0.4,0.6c1.1-0.2,2.1-0.5,3.2-0.8c0.5,1.6,0.2,3.5-0.7,4.9c-2.9,0.7-6.1-0.2-9.1,0.2l-0.9,0.1
		c-0.6-0.8-0.9-1.7-1.1-2.7c-0.1-1.1,0-2.2,0.4-3.2c0.1,0,1.4-0.1,1.4-0.1l-0.8-1c0-0.2,0.2-0.3,0.3-0.4c0.4,0.5,1.2,1.4,1.2,1.4
		l0.5,0L58,30.9c0.1-0.2,0.4-0.4,0.6-0.6l1.2,0.2c0,0,0-0.6,0-1c0.2-0.1,0.5-0.3,0.8-0.3c0.2,0.4,0.4,0.9,0.7,1.3
		c0.3-0.5,0.6-1.1,0.9-1.6c0,0,0.1,0,0.1,0L63.1,30.7 M62.2,30.1l-0.6,1.2l0.4,1.2l0.6-0.4l0.1-1C62.5,30.8,62.4,30.4,62.2,30.1z
		 M60.4,30.2v0.6l0.3,0.1C60.6,30.6,60.5,30.4,60.4,30.2z M58.8,30.9L58.8,30.9c0.3,0.4,1,1.1,1,1.1v-0.8L58.8,30.9z M63.6,31.2
		l-0.3,0.2l0.1,0.2l0.3-0.2L63.6,31.2z M60.4,31.4l0,1.1l0.4-1L60.4,31.4z M65.6,31.9l-0.4,0l-0.6,1l0.4,0L65.6,31.9z M63.1,32.6
		l0,1.2l0.9-1.1c0.1-0.1,0.1-0.2,0.1-0.2L64,31.9L63.1,32.6z M61.2,32.5L61,33l0.5,0.6C61.4,33.2,61.3,32.9,61.2,32.5z M62.4,33
		l-0.3,0.2l0,0.5l0.3,0.1L62.4,33z M59,33l-0.5,0.7l0.9,0.4l0.8-0.7L60,33.1L59,33z M57.1,33.2l0.8,0.4l0.3-0.4L57.1,33.2z
		 M64.1,33.7l-0.4,0.7l0.5,0l0.4-0.7L64.1,33.7z M60.8,33.9l-1.5,1.2l-0.7,0c0,0,0.3-0.3,0.4-0.5c-0.3-0.1-0.5-0.2-0.8-0.3L57.6,35
		c-0.2,0-0.4,0-0.5,0.1c0,0.6,0.1,1.1,0.2,1.7c0,0.1,0.1,0.4,0.3,0.4c1.5,0,2.8,0.2,4.3,0.4v-2.2c-0.1-0.1-0.3-0.4-0.4-0.5l-0.7,0.4
		l-1.2,0c0,0,1-0.6,1.5-0.9C61,34.1,60.9,33.9,60.8,33.9z M57.2,33.9c-0.1,0.2-0.1,0.5-0.1,0.7c0.1-0.2,0.4-0.6,0.4-0.6L57.2,33.9z
		 M67.7,34.2l-0.5,0.1c0.1,0.3,0.5,0.8,0.5,0.8l-0.6,0l-0.6-0.7c-0.3,0.1-0.9,0.2-0.9,0.2l0.3,0.5l-0.5,0.1L65,34.8
		c0,0-1.3,0.4-1.9,0.6l0,0.1c0,0.7,0.1,1.4,0.1,2.1l0.1,0.1c1.2,0.2,2.4,0.3,3.7,0.4l0.1,0c0.3-0.5,0.5-1.1,0.7-1.6
		C67.9,35.7,68,34.8,67.7,34.2z"/>
	<path class="st0" d="M20.9,29.5l0.1,0.2l0,3.8c0.1,0.3,0.3-0.2,0.5-0.2c0.6-0.2,1.2,0,1.6,0.5c0.8,0.8,0.9,1.9,1.1,2.9l0,0
		c0.1-1.2,0.4-2.5,1.5-3.2c0.6-0.4,1.4-0.3,2,0c0.7,0.6,1.3,1.4,1.2,2.3c0,0.3,0,0.5-0.1,0.7c-0.8,0.4-1.7,0.7-2.6,1
		c-0.2,0.1,0,0.4,0,0.6c0.1,0.3,0.3,0.8,0.8,0.9c0.2,0.1,0.6,0.2,0.8,0c0.3-0.2,0.1-0.9,0.6-0.8c0.2,0.1,0.4,0.2,0.6,0.4
		c0.1,0.7-0.1,1.3-0.5,1.8C28,41,27.2,41.1,26.4,41c-1.5-0.3-2-1.9-2.2-3.1c-0.1,1.2-0.2,2.6-1.5,3.1c-0.8,0.2-1.7,0.1-2.2-0.5
		c-0.1-0.1-0.1-0.3-0.2-0.3c-0.3,0-0.3,0.4-0.5,0.6c-0.2,0.1-0.4,0.3-0.7,0.2c-0.1,0-0.2-0.2-0.2-0.2c-0.3,0.3-0.7,0.2-1.1,0.2
		l-1.5,0c-0.2,0-0.3-0.1-0.4-0.3c0-0.2,0.2-0.3,0.3-0.3c0.1-0.2,0.2-0.5,0.2-0.8c0-1.3-0.2-2.6-0.4-3.9c-0.1-0.3-0.1-0.6-0.4-0.7
		c-0.2-0.1-0.3,0.1-0.4,0.1l-0.1,0.2l0,4.6c0.1,0.2,0.1,0.5,0.4,0.5c0.1,0.1,0.1,0.2,0,0.3c-0.3,0.4-0.9,0.2-1.2,0.3
		c-0.5-0.1-1.3,0.2-1.6-0.3c0-0.1,0-0.3,0.1-0.3c0.2-0.1,0.3-0.3,0.4-0.5l0-4.8c-0.1-0.2-0.3-0.3-0.4-0.3c-0.2,0-0.4,0.2-0.5,0.4
		c-0.2,0.4-0.1,0.8-0.1,1.3l0,3.5c0,0.3,0.3,0.4,0.4,0.6c0,0.2-0.1,0.3-0.2,0.4c-0.8,0.1-1.5,0-2.4,0.1c-0.2,0-0.4,0-0.5-0.2
		c0-0.1-0.1-0.2,0-0.3c0.2-0.1,0.4-0.2,0.4-0.4l0-0.3l0-4.6c0-0.4-0.6-0.3-0.5-0.7c0.3-0.3,0.7-0.4,1.1-0.6c0.3-0.1,0.7-0.2,1-0.4
		c0.2,0,0.5,0,0.6,0.2c0,0.2-0.1,0.4,0.1,0.5c0.3,0,0.3-0.4,0.6-0.5c0.4-0.4,1.2-0.3,1.7-0.1c0.2,0.1,0.3,0.4,0.5,0.6
		c0.3,0,0.4-0.4,0.6-0.5c0.4-0.3,1.1-0.2,1.6,0.1c0.8,0.6,0.8,1.6,1,2.5c0.2,1.2,0.3,2.3,0.3,3.6c0,0.2,0,0.6,0.3,0.7l0.1,0.1l0-0.1
		l-0.1-8.8c0-0.3-0.2-0.6-0.4-0.8c0-0.1,0-0.2,0.1-0.3c0.5-0.5,1.2-0.5,1.7-0.8C20.3,29.3,20.7,29.3,20.9,29.5 M25.9,34.6
		c-0.1,0.7-0.1,1.3,0,2c0,0.1,0.1,0.2,0.2,0.2c0.3-0.2,0.6-0.2,0.8-0.5c0.4-0.7-0.1-1.5-0.4-2.1C26.2,34.1,25.9,34.3,25.9,34.6z
		 M21.7,34.4c-0.1,0-0.2,0.2-0.3,0.3c-0.5,1-0.5,2.1-0.4,3.2c0.1,0.5,0.1,1,0.5,1.4c0.1,0.1,0.2,0,0.3-0.1c0.8-1.3,0.6-3.1,0.1-4.5
		C21.9,34.5,21.9,34.3,21.7,34.4z"/>
	<path class="st0" d="M53.4,29.6l0,0.4l0.1,9.3c0,0.1,0.1,0.2,0.2,0.2c0.1,0,0.3,0,0.3,0.2c0,0.2,0,0.3-0.1,0.4
		c-0.5,0.3-1.1,0.5-1.7,0.7c-0.3,0-0.5,0.2-0.8,0.1c-0.1-0.1,0.1-0.3-0.1-0.4C51,40.6,50.9,41,50.6,41c-0.6,0.1-1.2-0.1-1.7-0.6
		c-1-1.1-0.9-2.9-0.7-4.3c0.1-1,0.5-1.9,1.2-2.6c0.3-0.3,0.8-0.4,1.2-0.3c0.2,0,0.4,0.2,0.6,0.4c0,0,0.1,0,0.1-0.1l0-2.2
		c-0.1-0.4-1-0.5-0.5-1c0.2-0.1,0.4,0,0.6-0.1c0.6-0.3,1.2-0.5,1.8-0.8C53.2,29.4,53.4,29.4,53.4,29.6 M50.5,34.4
		c-0.2,0-0.2,0.2-0.3,0.4c-0.2,0.9-0.4,1.9-0.3,2.9c0.1,0.6,0.2,1.2,0.6,1.6c0.1,0,0.3,0.1,0.3-0.1c0.6-1.1,0.5-2.6,0.2-3.8
		C51,35,50.9,34.5,50.5,34.4z"/>
	<path class="st0" d="M47,34.1c0.2,0.4,0.4,0.8,0.5,1.2c0.2,1.4,0.4,2.8,0.5,4.3c0,0.2,0,0.4,0.1,0.5c0.1,0.1,0.3,0.1,0.3,0.3
		c0,0.2-0.1,0.3-0.2,0.4c-0.7,0.1-1.5,0.1-2.3,0.1c-0.2,0-0.3-0.1-0.4-0.3c0-0.1,0-0.3,0.1-0.3c0.3-0.1,0.3-0.5,0.3-0.7
		c0-1.4-0.3-2.9-0.7-4.2c-0.1-0.2-0.2-0.3-0.3-0.4c-0.1,0-0.3,0-0.3,0.1l0,0.2l0.1,4.6c0,0.3,0.3,0.4,0.4,0.6c0,0.2-0.1,0.3-0.2,0.4
		c-0.7,0.1-1.6,0.1-2.3,0c-0.2,0-0.3-0.1-0.4-0.3c-0.1,0-0.2,0.2-0.3,0.3C41.6,41,41.3,41,41,41c-0.4-0.1-0.6-0.3-0.9-0.6h-0.2
		c-0.6,0.5-1.4,0.8-2.1,0.5c-0.6-0.2-1.2-0.8-1.3-1.4c-0.2-0.9-0.1-1.9,0.6-2.4c0.6-0.6,1.3-0.9,2.1-1.1c0.2-0.3,0.1-0.8,0-1.1
		c-0.1-0.2-0.2-0.4-0.4-0.5l-0.7-0.1c-0.1,0-0.1,0-0.2,0.1c0.1,0.2,0.3,0.2,0.4,0.4c0.1,0.3,0.1,0.7-0.2,0.9c-0.3,0.2-0.9,0.3-1.3,0
		c-0.3-0.2-0.4-0.6-0.4-1c0-0.6,0.5-1,1-1.2c0.7-0.2,1.5-0.2,2.3-0.1c0.5,0.1,1,0.4,1.2,0.9c0.3,0.7,0.3,1.5,0.4,2.3
		c0.1,0.9,0.1,1.8,0.2,2.8c0,0.1,0.1,0.2,0.2,0.2c0.2,0,0.4,0,0.4,0.2c0.1,0.2,0.1,0.3,0.1,0.5c0.1,0,0.3-0.1,0.4-0.3l0.1-0.3l0-4.7
		c0-0.4-1-0.6-0.3-0.9c0.6-0.3,1.1-0.5,1.7-0.8c0.2,0,0.4,0,0.5,0.1c0.1,0.1,0,0.3,0.2,0.5c0.2-0.1,0.2-0.3,0.3-0.4
		c0.2-0.2,0.6-0.4,0.9-0.3C46.4,33.4,46.8,33.7,47,34.1 M38.9,37c-0.7,0.4-0.5,1.3-0.5,2c0.1,0.3,0.1,0.6,0.5,0.7
		c0.2,0.1,0.5,0,0.7-0.2c0-0.8,0-1.7-0.1-2.5C39.3,36.8,39,36.9,38.9,37z"/>
	<path class="st0" d="M67.3,38.6c-0.4,0.5-0.8,1-1.4,1.4c-2.8,0-5.3-0.8-8-0.9c-0.1-0.1-0.2-0.2-0.2-0.3c2.1-0.4,4.3-0.2,6.4,0
		C65.1,38.8,66.3,38.7,67.3,38.6L67.3,38.6"/>
	<g>
		<path class="st0" d="M63.2,39.9c0.8,0.1,1.6,0.2,2.4,0.3c-1.7,1.2-4.3,1.2-6.1,0.2c-0.5-0.3-1-0.6-1.4-1.1c0-0.1,0.1,0,0.2,0
			l1.2,0.1L63.2,39.9"/>
	</g>
</g>
</svg>
