<?xml version="1.0" encoding="utf-8"?>
<!-- Generator: Adobe Illustrator 24.2.1, SVG Export Plug-In . SVG Version: 6.00 Build 0)  -->
<svg version="1.1" id="레이어_1" xmlns="http://www.w3.org/2000/svg" xmlns:xlink="http://www.w3.org/1999/xlink" x="0px"
	 y="0px" width="70px" height="70px" viewBox="0 0 70 70" style="enable-background:new 0 0 70 70;" xml:space="preserve">
<style type="text/css">
	.st0{fill:#231815;}
</style>
<g>
	<g>
		<path class="st0" d="M20.3,34.9c0-2.7,0.8-5.2,2.3-7.2v-2.5H17v10.1c0,1.7-1.2,4.9-4.9,4.9c-3.7,0-4.9-3.3-4.9-4.9V25.2H1.6v10.1
			c0,5.8,4.7,10.5,10.5,10.5c4.1,0,7.6-2.3,9.3-5.7C20.7,38.5,20.3,36.7,20.3,34.9z"/>
		<g>
			<path class="st0" d="M32.9,44.4c-5.2,0-9.4-4.2-9.4-9.4c0-5.2,4.2-9.4,9.4-9.4c1.9,0,3.7,0.6,5.2,1.6c0.3-0.3,0.6-0.7,0.9-1
				c-1.7-1.2-3.8-1.9-6.1-1.9c-5.9,0-10.7,4.8-10.7,10.7c0,5.9,4.8,10.7,10.7,10.7c2.3,0,4.4-0.7,6.2-2c-0.3-0.3-0.6-0.6-0.9-1
				C36.7,43.8,34.8,44.4,32.9,44.4z"/>
			<path class="st0" d="M33,42.2c-4,0-7.3-3.3-7.3-7.3s3.3-7.3,7.3-7.3c1.5,0,2.8,0.4,4,1.2c0.2-0.3,0.3-0.6,0.5-0.9
				c-1.3-0.8-2.9-1.3-4.5-1.3c-4.6,0-8.3,3.7-8.3,8.3s3.7,8.3,8.3,8.3c1.7,0,3.3-0.5,4.6-1.4c-0.2-0.3-0.4-0.6-0.5-0.9
				C35.8,41.8,34.4,42.2,33,42.2z"/>
			<path class="st0" d="M32.9,40.1c-2.9,0-5.3-2.4-5.3-5.3s2.4-5.3,5.3-5.3c1.2,0,2.3,0.4,3.2,1.1c0.1-0.2,0.2-0.5,0.3-0.7
				c-1-0.7-2.2-1.1-3.5-1.1c-3.3,0-6,2.7-6,6c0,3.3,2.7,6,6,6c1.3,0,2.5-0.4,3.5-1.1c-0.1-0.2-0.2-0.5-0.3-0.7
				C35.2,39.7,34.1,40.1,32.9,40.1z"/>
		</g>
		<path class="st0" d="M47.9,25.6c5.2,0,9.4,4.2,9.4,9.4c0,5.2-4.2,9.4-9.4,9.4c-5.2,0-9.4-4.2-9.4-9.4
			C38.5,29.8,42.7,25.6,47.9,25.6 M47.9,24.2C42,24.2,37.2,29,37.2,35c0,5.9,4.8,10.7,10.7,10.7c5.9,0,10.7-4.8,10.7-10.7
			C58.7,29,53.9,24.2,47.9,24.2L47.9,24.2z"/>
		<path class="st0" d="M48,27.6c4,0,7.3,3.3,7.3,7.3s-3.3,7.3-7.3,7.3c-4,0-7.3-3.3-7.3-7.3S44,27.6,48,27.6 M48,26.6
			c-4.6,0-8.3,3.7-8.3,8.3s3.7,8.3,8.3,8.3c4.6,0,8.3-3.7,8.3-8.3S52.6,26.6,48,26.6L48,26.6z"/>
		<path class="st0" d="M48,29.5c2.9,0,5.3,2.4,5.3,5.3s-2.4,5.3-5.3,5.3s-5.3-2.4-5.3-5.3S45.1,29.5,48,29.5 M48,28.8
			c-3.3,0-6,2.7-6,6c0,3.3,2.7,6,6,6c3.3,0,6-2.7,6-6C54,31.5,51.3,28.8,48,28.8L48,28.8z"/>
		<path class="st0" d="M0.6,28.4"/>
	</g>
	<g>
		<g>
			<path class="st0" d="M69.3,28.1h-0.9v-2h-1.3V28h-0.9v-1.9h-1.5v2.1h-0.9V25h5.6V28.1z"/>
			<path class="st0" d="M65.5,29.7h-0.2c-0.5,0-0.9,0.1-0.9,0.7c0,0.3,0.2,0.7,0.7,0.7c0.5,0,0.7-0.2,1-1c0.3-1,0.8-1.5,1.7-1.5
				c1.1,0,1.6,0.7,1.6,1.7c0,1-0.4,1.7-1.5,1.7h-0.2V31c0.5,0,0.8-0.2,0.8-0.6c0-0.5-0.3-0.6-0.6-0.6c-0.3,0-0.6,0.1-0.8,0.6
				l-0.4,0.9c-0.4,0.8-0.8,1.1-1.5,1.1c-1.2,0-1.7-0.7-1.7-1.9c0-1.3,0.6-1.8,1.6-1.8h0.2V29.7z"/>
			<path class="st0" d="M69.3,36.1h-0.9v-1.2h-4.6v-1.1h4.6v-1.2h0.9V36.1z"/>
			<path class="st0" d="M65,36.9h-1.2v-1H65V36.9z"/>
			<path class="st0" d="M69.2,42.5h-0.9c-1.3-0.9-3-1.4-4.6-1.6v-1.2c1.3,0.2,3,0.6,4.4,1.7v-2.3h1V42.5z"/>
			<path class="st0" d="M63.8,44.1h3.9V43h0.7v0.1c0,0.7,0.3,1.2,0.9,1.3v0.8h-5.5V44.1z"/>
		</g>
	</g>
</g>
</svg>
