<?xml version="1.0" encoding="utf-8"?>
<!-- Generator: Adobe Illustrator 24.2.1, SVG Export Plug-In . SVG Version: 6.00 Build 0)  -->
<svg version="1.1" id="레이어_1" xmlns="http://www.w3.org/2000/svg" xmlns:xlink="http://www.w3.org/1999/xlink" x="0px"
	 y="0px" width="70px" height="70px" viewBox="0 0 70 70" style="enable-background:new 0 0 70 70;" xml:space="preserve">
<style type="text/css">
	.st0{fill:#231815;}
</style>
<g>
	<path class="st0" d="M6.1,32.1l1.5,4.7l1.6-4.7h1.3l-2.1,6H6.9l-1.5-4.6L4,38.1H2.6l-2.1-6h1.3l1.6,4.7l1.5-4.7H6.1z"/>
	<path class="st0" d="M12.8,38.1h-1.2v-6h1.2V38.1z"/>
	<path class="st0" d="M14.5,32.1h3.1c2.1,0,3.5,1.2,3.5,3s-1.3,3-3.5,3h-3.1V32.1z M17.6,37.1c1.4,0,2.2-0.8,2.2-2s-0.8-2-2.2-2
		h-1.9V37L17.6,37.1L17.6,37.1z"/>
	<path class="st0" d="M28.2,32.1v1.1h-4.6v1.3h4.1v1.1h-4.1v1.5h4.6v1.1h-5.8v-6L28.2,32.1L28.2,32.1z"/>
	<path class="st0" d="M29.4,33.2c0-0.8,0.7-1.5,1.5-1.5s1.5,0.6,1.5,1.5c0,0.8-0.7,1.4-1.5,1.4C30.1,34.7,29.4,34,29.4,33.2z
		 M31.5,33.2c0-0.3-0.2-0.6-0.6-0.6s-0.6,0.3-0.6,0.6s0.2,0.6,0.6,0.6S31.5,33.5,31.5,33.2z"/>
	<path class="st0" d="M36.7,32.1l3,6h-1.3l-0.7-1.4h-3.4l-0.7,1.4h-1.3l3-6H36.7z M34.8,35.7h2.4L36,33.3L34.8,35.7z"/>
	<path class="st0" d="M47,38.1h-1l-4-4.4v4.5h-1.2v-6h1.3l3.8,4.3v-4.3H47V38.1z"/>
	<path class="st0" d="M55.3,33.9l-1.1,0.5c-0.3-0.8-1.1-1.3-2.2-1.3c-1.4,0-2.4,0.8-2.4,2s1,2,2.3,2c1.1,0,2.1-0.5,2.2-1.3h-2.7v-1
		h3.9v3.3h-1.2v-0.7c-0.3,0.4-1.2,0.8-2.2,0.8c-2.1,0-3.6-1.3-3.6-3.1s1.5-3.1,3.6-3.1C53.6,32,54.8,32.7,55.3,33.9z"/>
	<path class="st0" d="M56.9,32.1h1.2v5h4.2v1.1h-5.5L56.9,32.1L56.9,32.1z"/>
	<path class="st0" d="M69.6,32.1v1.1H65v1.3h4.1v1.1H65v1.5h4.6v1.1h-5.8v-6L69.6,32.1L69.6,32.1z"/>
</g>
</svg>
