<?xml version="1.0" encoding="utf-8"?>
<!-- Generator: Adobe Illustrator 24.2.1, SVG Export Plug-In . SVG Version: 6.00 Build 0)  -->
<svg version="1.1" id="레이어_1" xmlns="http://www.w3.org/2000/svg" xmlns:xlink="http://www.w3.org/1999/xlink" x="0px"
	 y="0px" width="70px" height="70px" viewBox="0 0 70 70" style="enable-background:new 0 0 70 70;" xml:space="preserve">
<style type="text/css">
	.st0{fill:#231815;}
</style>
<g>
	<path class="st0" d="M0.9,47.7c-0.2,0.2-0.3,0.5-0.3,0.7l0,1c0,0.1,0,0.1,0,0.2c0,0.2,0.2,0.3,0.4,0.3l5.9,0c0.3,0,0.4-0.2,0.4-0.5
		l0-1c0-0.1,0-0.1,0-0.2c0-0.2-0.2-0.3-0.4-0.3l-3.5,0l3.6-3.5c0.2-0.2,0.3-0.5,0.3-0.7l0-1c0-0.1,0-0.1,0-0.2
		c0-0.2-0.2-0.3-0.4-0.3l-5.9,0c-0.3,0-0.4,0.2-0.4,0.5l0,1c0,0.1,0,0.1,0,0.2c0,0.2,0.2,0.3,0.4,0.3l3.5,0L0.9,47.7z M13.3,48
		l-2.5,0c-0.2,0-0.4-0.1-0.5-0.3c-0.1-0.1-0.2-0.2-0.2-0.4c0-0.1,0-0.3,0-0.4l0,0l3.3,0L13.3,48z M13.4,45.1l-4.6,0
		c-0.3,0-0.4,0.2-0.4,0.5l0,1.4c0,0.3,0,0.6,0.1,0.9c0.1,0.5,0.3,0.9,0.7,1.2c0.5,0.5,1.1,0.8,1.8,0.8l3.9,0c0.3,0,0.4-0.2,0.4-0.5
		l0-4.4c0-0.3,0-0.5-0.1-0.7c-0.1-0.5-0.3-0.9-0.7-1.2c-0.5-0.5-1.1-0.8-1.8-0.8l-3.9,0c-0.3,0-0.4,0.2-0.4,0.5l0,1
		c0,0.1,0,0.1,0,0.2c0,0.2,0.2,0.3,0.4,0.3l3.9,0c0.2,0,0.4,0.1,0.5,0.2c0.1,0.1,0.2,0.2,0.2,0.4c0,0.1,0,0.4,0,0.5 M20.1,49.4
		c0,0.1,0,0.1,0,0.2c0,0.2,0.2,0.3,0.4,0.3l0.9,0c0.3,0,0.4-0.2,0.4-0.5l0-5.3l1.3,0c0.2,0,0.4,0.1,0.5,0.2c0.1,0.1,0.2,0.2,0.2,0.4
		c0,0.1,0,0.1,0,0.2l0,4.4c0,0.1,0,0.1,0,0.2c0,0.2,0.2,0.3,0.4,0.3l0.9,0c0.3,0,0.4-0.2,0.4-0.5l0-4.4c0-0.3,0-0.5-0.1-0.7
		c-0.1-0.5-0.3-0.9-0.7-1.2c-0.5-0.5-1.1-0.8-1.8-0.8l-6.5,0c-0.3,0-0.4,0.2-0.4,0.5l0,6.7c0,0.1,0,0.1,0,0.2c0,0.2,0.2,0.3,0.4,0.3
		l0.9,0c0.3,0,0.4-0.2,0.4-0.5l0-5.3l2.1,0L20.1,49.4z M28.4,44.2l2.5,0c0.2,0,0.4,0.1,0.5,0.2c0.1,0.1,0.2,0.2,0.2,0.4
		c0,0.1,0,0.1,0,0.2l0,2c0,0.2-0.1,0.6-0.2,0.7C31.3,47.9,31.2,48,31,48l-2.5,0 M28.5,40.1c0-0.1,0-0.1,0-0.2c0-0.2-0.2-0.3-0.4-0.3
		h-0.9c-0.3,0-0.4,0.2-0.4,0.5l0,9.3c0,0.1,0,0.1,0,0.2c0,0.2,0.2,0.3,0.4,0.3l3.9,0c0.7,0,1.3-0.3,1.8-0.8c0.5-0.5,0.7-1.3,0.7-2.1
		l0-2c0-0.3,0-0.5-0.1-0.7c-0.1-0.5-0.3-0.9-0.7-1.2c-0.5-0.5-1.1-0.8-1.8-0.8l-2.5,0L28.5,40.1z M36.2,44.2l2.5,0
		c0.2,0,0.4,0.1,0.5,0.2c0.1,0.1,0.2,0.2,0.2,0.4c0,0.1,0,0.1,0,0.2l0,0.1l-3.3,0L36.2,44.2z M36.2,47l4.6,0c0.3,0,0.4-0.2,0.4-0.5
		l0-1.5c0-0.3,0-0.5-0.1-0.7c-0.1-0.5-0.3-0.9-0.7-1.2c-0.5-0.5-1.1-0.8-1.8-0.8l-3.9,0c-0.3,0-0.4,0.2-0.4,0.5l0,4.3
		c0,0.3,0,0.6,0.1,0.9c0.1,0.5,0.3,0.9,0.7,1.2c0.5,0.5,1.1,0.8,1.8,0.8l3.9,0c0.3,0,0.4-0.2,0.4-0.5l0-1c0-0.1,0-0.1,0-0.2
		c0-0.2-0.2-0.3-0.4-0.3l-3.9,0c-0.2,0-0.4-0.1-0.5-0.3c-0.1-0.1-0.2-0.2-0.2-0.4c0-0.1,0-0.4,0-0.5 M42.6,42.2
		c-0.3,0-0.4,0.2-0.4,0.5l0,6.7c0,0.1,0,0.1,0,0.2c0,0.2,0.2,0.3,0.4,0.3l0.9,0c0.3,0,0.4-0.2,0.4-0.5l0-5.3l1.3,0
		c0.2,0,0.4,0.1,0.5,0.2c0.1,0.1,0.2,0.2,0.2,0.4c0,0.1,0,0.1,0,0.2l0,0.3c0,0.1,0,0.1,0,0.2c0,0.2,0.2,0.3,0.4,0.3h0.9
		c0.3,0,0.4-0.2,0.4-0.5l0-0.3c0-0.3,0-0.5-0.1-0.7c-0.1-0.5-0.3-0.9-0.7-1.2c-0.5-0.5-1.1-0.8-1.8-0.8L42.6,42.2z M50.5,40.1
		c0-0.1,0-0.1,0-0.2c0-0.2-0.2-0.3-0.4-0.3l-0.9,0c-0.3,0-0.4,0.2-0.4,0.5v9.3c0,0.1,0,0.1,0,0.2c0,0.2,0.2,0.3,0.4,0.3H50
		c0.3,0,0.4-0.2,0.4-0.5V40.1z M59.8,42.2c-0.3,0-0.4,0.2-0.4,0.5l0,6.7c0,0.1,0,0.1,0,0.2c0,0.2,0.2,0.3,0.4,0.3l0.9,0
		c0.3,0,0.4-0.2,0.4-0.5l0-5.3l2.5,0c0.2,0,0.4,0.1,0.5,0.2c0.1,0.1,0.2,0.2,0.2,0.4c0,0.1,0,0.1,0,0.2l0,4.4c0,0.1,0,0.1,0,0.2
		c0,0.2,0.2,0.3,0.4,0.3l0.9,0c0.3,0,0.4-0.2,0.4-0.5l0-4.4c0-0.3,0-0.5-0.1-0.7c-0.1-0.5-0.3-0.9-0.7-1.2c-0.5-0.5-1.1-0.8-1.8-0.8
		L59.8,42.2z"/>
	<path class="st0" d="M56.6,48l-2.5,0c-0.2,0-0.4-0.1-0.5-0.2c-0.1-0.1-0.2-0.2-0.2-0.4c0-0.1,0-0.3,0-0.4l0,0l3.3,0L56.6,48z
		 M56.7,45.1l-4.6,0c-0.3,0-0.4,0.2-0.4,0.5l0,1.4c0,0.3,0,0.6,0.1,0.9c0.1,0.5,0.3,0.9,0.7,1.2c0.5,0.5,1.1,0.8,1.8,0.8l3.9,0
		c0.3,0,0.4-0.2,0.4-0.5l0-4.4c0-0.3,0-0.5-0.1-0.7c-0.1-0.5-0.3-0.9-0.7-1.2c-0.5-0.5-1.1-0.8-1.8-0.8l-3.9,0
		c-0.3,0-0.4,0.2-0.4,0.5l0,1c0,0.1,0,0.1,0,0.2c0,0.2,0.2,0.3,0.4,0.3l3.9,0c0.2,0,0.4,0.1,0.5,0.2c0.1,0.1,0.2,0.2,0.2,0.4
		c0,0.1,0,0.4,0,0.5"/>
	<path class="st0" d="M23.1,27.4l0-7.3h21.4l-6.6,4.8h-7.1c-1.4,0-3,0-4.8,0.8C24.2,26.5,23.1,27.4,23.1,27.4"/>
	<path class="st0" d="M68.2,42.8h0.1c0.1,0,0.3,0,0.3-0.2c0-0.1-0.1-0.2-0.3-0.2c-0.1,0-0.1,0-0.2,0V42.8z M68.2,43.4H68v-1.1
		c0.1,0,0.2,0,0.4,0c0.2,0,0.3,0,0.3,0.1c0.1,0,0.1,0.1,0.1,0.2c0,0.1-0.1,0.2-0.2,0.3v0c0.1,0,0.1,0.1,0.2,0.3
		c0,0.2,0.1,0.2,0.1,0.3h-0.2c0,0-0.1-0.1-0.1-0.3c0-0.1-0.1-0.2-0.2-0.2h-0.1V43.4z M68.4,41.9c-0.5,0-0.8,0.4-0.8,0.8
		c0,0.5,0.4,0.9,0.8,0.9c0.5,0,0.8-0.4,0.8-0.8C69.2,42.3,68.9,41.9,68.4,41.9L68.4,41.9z M68.4,41.8c0.6,0,1,0.5,1,1
		c0,0.6-0.5,1-1,1c-0.6,0-1.1-0.5-1.1-1C67.4,42.2,67.8,41.8,68.4,41.8L68.4,41.8z"/>
	<g>
		<path class="st0" d="M43.9,28.7l0,7.3H22.3l6.7-4.8h7.1c1.4,0,3,0,4.8-0.8C42.8,29.6,43.9,28.7,43.9,28.7"/>
	</g>
</g>
</svg>
