<svg width="16" height="15" viewBox="0 0 16 15" fill="none" xmlns="http://www.w3.org/2000/svg">
<path d="M7.09008 1.72218L7.09008 11.8942L2.51104 7.45018C2.33388 7.27956 2.09441 7.18382 1.84483 7.18382C1.59525 7.18382 1.35578 7.27956 1.17862 7.45017C1.00385 7.6208 0.90576 7.8516 0.90576 8.09218C0.90576 8.33277 1.00385 8.56357 1.17862 8.73419L7.36219 14.7354C7.538 14.905 7.77582 15.0002 8.02371 15.0002C8.27161 15.0002 8.50943 14.905 8.68524 14.7354L14.8688 8.7342C15.0225 8.55999 15.1029 8.3359 15.0937 8.10671C15.0846 7.87752 14.9867 7.66011 14.8196 7.49793C14.6525 7.33575 14.4285 7.24074 14.1923 7.23188C13.9562 7.22303 13.7253 7.30099 13.5458 7.45018L8.96673 11.8942L8.96674 1.72218C8.96674 1.48066 8.86788 1.24903 8.69191 1.07825C8.51594 0.907468 8.27727 0.811525 8.02841 0.811525C7.77955 0.811525 7.54088 0.907468 7.36491 1.07825C7.18894 1.24903 7.09008 1.48066 7.09008 1.72218Z" fill="white"/>
</svg>
