<svg width="22" height="22" viewBox="0 0 22 22" fill="none" xmlns="http://www.w3.org/2000/svg">
<path d="M21.7809 6.55826C21.7809 6.55826 21.566 5.04863 20.9043 4.38575C20.0664 3.51333 19.1297 3.50905 18.7 3.45773C15.6234 3.23535 11.0043 3.23535 11.0043 3.23535H10.9957C10.9957 3.23535 6.37656 3.23535 3.3 3.45773C2.87031 3.50905 1.93359 3.51333 1.0957 4.38575C0.433984 5.04863 0.223438 6.55826 0.223438 6.55826C0.223438 6.55826 0 8.33305 0 10.1036V11.7629C0 13.5334 0.219141 15.3082 0.219141 15.3082C0.219141 15.3082 0.433984 16.8178 1.09141 17.4807C1.9293 18.3531 3.0293 18.3232 3.51914 18.4172C5.28086 18.584 11 18.6354 11 18.6354C11 18.6354 15.6234 18.6268 18.7 18.4087C19.1297 18.3574 20.0664 18.3531 20.9043 17.4807C21.566 16.8178 21.7809 15.3082 21.7809 15.3082C21.7809 15.3082 22 13.5377 22 11.7629V10.1036C22 8.33305 21.7809 6.55826 21.7809 6.55826ZM8.72695 13.7771V7.62313L14.6695 10.7108L8.72695 13.7771Z" fill="#666666"/>
</svg>
