<svg width="16" height="15" viewBox="0 0 16 15" fill="none" xmlns="http://www.w3.org/2000/svg">
<path d="M8.91016 13.2778L8.91016 3.10584L13.4892 7.54982C13.6664 7.72044 13.9058 7.81617 14.1554 7.81617C14.405 7.81617 14.6445 7.72044 14.8216 7.54982C14.9964 7.3792 15.0945 7.1484 15.0945 6.90781C15.0945 6.66723 14.9964 6.43643 14.8216 6.2658L8.63805 0.264607C8.46224 0.094998 8.22442 -0.000203486 7.97653 -0.000203464C7.72863 -0.000203442 7.49081 0.0949981 7.31501 0.264607L1.13143 6.26581C0.977706 6.44001 0.897381 6.6641 0.906503 6.89329C0.915625 7.12248 1.01352 7.33989 1.18063 7.50207C1.34774 7.66426 1.57176 7.75927 1.80791 7.76812C2.04407 7.77697 2.27497 7.69901 2.45447 7.54982L7.03351 3.10584L7.03351 13.2778C7.03351 13.5193 7.13237 13.751 7.30834 13.9218C7.48431 14.0925 7.72298 14.1885 7.97184 14.1885C8.2207 14.1885 8.45936 14.0925 8.63533 13.9218C8.8113 13.751 8.91016 13.5193 8.91016 13.2778Z" fill="white"/>
</svg>
